<?xml version="1.0" encoding="UTF-8"?>

<!DOCTYPE svg PUBLIC '-//W3C//DTD SVG 1.0//EN' 'http://www.w3.org/TR/2001/REC-SVG-20010904/DTD/svg10.dtd'>
<svg stroke-dasharray="none" shape-rendering="auto" xmlns="http://www.w3.org/2000/svg" font-family="&apos;Dialog&apos;" width="594" text-rendering="auto" fill-opacity="1" contentScriptType="text/ecmascript" color-interpolation="auto" color-rendering="auto" preserveAspectRatio="xMidYMid meet" font-size="12" fill="black" xmlns:xlink="http://www.w3.org/1999/xlink" stroke="black" image-rendering="auto" stroke-miterlimit="10" zoomAndPan="magnify" version="1.0" stroke-linecap="square" stroke-linejoin="miter" contentStyleType="text/css" font-style="normal" height="31" stroke-width="1" stroke-dashoffset="0" font-weight="normal" stroke-opacity="1">
  <!--Generated by the Batik Graphics2D SVG Generator-->
  <defs id="genericDefs" />
  <g>
    <g font-size="100" transform="scale(20,20) translate(0.15,0.5169) scale(0.01,0.01)" text-rendering="geometricPrecision" image-rendering="optimizeQuality" color-rendering="optimizeQuality" font-family="&apos;jlm_cmsy10&apos;" color-interpolation="linearRGB">
      <path d="M85.7969 -23 L8.9062 -23 Q5.9062 -23.5 5.5938 -25 Q5.5938 -27 8.9062 -27 L85.7969 -27 Q79 -32 75.5938 -39.9062 L75.5 -40 Q75 -41.2969 75 -41.5938 Q75 -42.7969 76.5 -42.7969 Q77.5938 -42.7969 78.2031 -41.4062 Q82.5938 -31.5 91.7969 -26.7969 L91.9062 -26.7969 L92 -26.7031 L92.0938 -26.7031 Q92.7969 -26.2969 93.5 -26 Q93.9062 -26 94.2031 -25 Q94.2031 -24.2969 93.2969 -23.7969 Q93.0938 -23.7969 92.7969 -23.5938 Q82.9062 -18.9062 78.2969 -8.5938 L78.2969 -8.5938 Q78.2031 -8.5 78.0938 -8.2031 Q77.5938 -7.2031 76.5 -7.2031 Q75 -7.2031 75 -8.4062 Q75 -9.9062 77.9062 -14.4062 Q81.2031 -19.5938 85.7969 -23 Z" stroke="none" />
    </g>
    <g font-size="100" transform="matrix(20,0,0,20,0,0) translate(0.1762,1.1336) scale(0.01,0.01)" text-rendering="geometricPrecision" image-rendering="optimizeQuality" color-rendering="optimizeQuality" font-family="&apos;jlm_cmmi10&apos;" color-interpolation="linearRGB">
      <path d="M62.7969 -56.9062 L26.7969 0.4062 Q25.2031 2.0938 24 2.2031 Q22.5938 2.2031 22.2031 1 Q22.0938 0.5938 22 -0.0938 L14.0938 -61.7969 Q13.7969 -64.0938 12.7031 -64.5938 Q11.5938 -65.2031 8.0938 -65.2031 Q5.7969 -65.2031 5.5938 -66.4062 Q5.5938 -68.2969 7.5 -68.2969 L12.7969 -68.0938 L12.9062 -68.0938 L18.2031 -68 L18.4062 -68 L30.7031 -68.2969 L30.7969 -68.2969 Q32.2031 -68.2969 32.2031 -67.2031 Q31.4062 -65.2969 29.7031 -65.2031 Q23.2969 -65.2031 22.7969 -62.2031 L29.5938 -9.2969 L60.2969 -58.0938 L61.5938 -60.9062 Q61.7969 -61.5 61.7969 -61.9062 Q61.7969 -64.9062 57.2031 -65.2031 Q55.5938 -65.2031 55.5938 -66.4062 Q55.5938 -68.2969 57.5 -68.2969 L67.2969 -68 L67.4062 -68 L75.4062 -68.2969 L75.5938 -68.2969 Q76.9062 -68.2969 76.9062 -67.0938 Q76.9062 -65.2969 75.5938 -65.2031 Q70.4062 -64.9062 67.4062 -62.4062 Q66.2969 -61.5 65.2031 -60.2031 Q64 -58.7969 62.7969 -56.9062 Z" stroke="none" />
    </g>
    <g font-size="100" transform="matrix(20,0,0,20,0,0) translate(0.7595,1.2836) scale(0.007,0.007)" text-rendering="geometricPrecision" image-rendering="optimizeQuality" color-rendering="optimizeQuality" font-family="&apos;jlm_cmmi10&apos;" color-interpolation="linearRGB">
      <path d="M51.5938 -68.2969 L37.2031 -10.5 Q36.5938 -8 36.5938 -5.7031 Q36.5938 -1.0938 39.5938 -1.0938 Q43.4062 -1.0938 46 -9.0938 Q46.5 -10.7969 47.2031 -13.5 Q48 -15.2031 48.5938 -15.2969 Q49.7969 -15.2969 49.7969 -14.2969 Q49.7969 -12.7969 48 -7.2969 Q47.4062 -5.5938 46.7969 -4.4062 Q44 1.0938 39.4062 1.0938 Q33.7969 1.0938 31.2969 -3.7031 Q30.5938 -4.9062 30.2969 -6.4062 Q24 1.0938 17.2969 1.0938 Q9.7969 1.0938 6.2031 -5.7031 Q4 -9.7031 4 -14.9062 Q4 -25.7031 11.5 -34.9062 Q18.5 -43.2969 26.7031 -44.0938 Q27.4062 -44.2031 28.0938 -44.2031 Q34.2031 -44.2031 37.2969 -37.7969 L43.2969 -61.5 L43.5938 -63.5 Q43.5938 -64.5938 42.2031 -64.9062 Q41 -65.2031 38.5938 -65.2031 Q36.4062 -65.2031 36.2031 -66.4062 Q36.2031 -68.0938 37.5938 -68.2969 Q47 -69.4062 50.2969 -69.4062 Q51.5938 -69.4062 51.5938 -68.2969 ZM30.7969 -11.9062 L30.7969 -11.9062 L35.7969 -31.5 Q36.0938 -33 36.0938 -33.2031 Q36.0938 -35.2969 34.2969 -38.2969 Q32.0938 -42 28.2031 -42 Q23 -42 18.2969 -35.2031 Q17.4062 -33.9062 16.5938 -32.4062 Q13.7031 -26.5938 11.7031 -15.9062 Q11.0938 -12.5 11.0938 -10.5 Q11.0938 -3.7031 14.9062 -1.7031 Q16 -1.0938 17.5 -1.0938 Q23.0938 -1.0938 28.7969 -8.2031 Q30.2031 -9.7969 30.7031 -11.5 L30.7031 -11.5938 Q30.7969 -11.7969 30.7969 -11.9062 Z" stroke="none" />
    </g>
    <g font-size="100" transform="matrix(20,0,0,20,0,0) translate(1.4278,1.1336) scale(0.01,0.01)" text-rendering="geometricPrecision" image-rendering="optimizeQuality" color-rendering="optimizeQuality" font-family="&apos;jlm_cmr10&apos;" color-interpolation="linearRGB">
      <path d="M68.7031 -32.7031 L9 -32.7031 Q5.7969 -32.7031 5.5938 -34.7031 Q5.5938 -36.7031 8.9062 -36.7031 L68.7969 -36.7031 Q72 -36.7031 72.0938 -34.7031 Q72.0938 -32.7031 68.7031 -32.7031 ZM68.7969 -13.2969 L8.9062 -13.2969 Q5.7031 -13.2969 5.5938 -15.2969 Q5.5938 -17.2969 9 -17.2969 L68.7031 -17.2969 Q71.9062 -17.2969 72.0938 -15.2969 Q72.0938 -13.2969 68.7969 -13.2969 Z" stroke="none" />
    </g>
    <g font-size="100" transform="matrix(20,0,0,20,0,0) translate(2.4833,1.1336) scale(0.01,0.01)" text-rendering="geometricPrecision" image-rendering="optimizeQuality" color-rendering="optimizeQuality" font-family="&apos;jlm_cmr10&apos;" color-interpolation="linearRGB">
      <path d="M33.0938 24 L33.0938 24 Q33.0938 25 32.0938 25 Q30.9062 25 26.7969 20.9062 Q20.5938 14.7031 16.5 6.2031 Q9.9062 -7.4062 9.9062 -25 Q9.9062 -41.9062 16.2031 -55.5 Q21.4062 -66.5938 29.4062 -73.2969 Q31.5 -75 32.0938 -75 Q33.0938 -75 33.0938 -74 Q33.0938 -73.5 31.7969 -72.2969 Q15.7031 -55.9062 15.7031 -25 Q15.7031 5.7969 31.4062 21.7969 Q33.0938 23.5 33.0938 24 Z" stroke="none" />
    </g>
    <g font-size="100" transform="matrix(20,0,0,20,0,0) translate(2.8722,1.1336) scale(0.01,0.01)" text-rendering="geometricPrecision" image-rendering="optimizeQuality" color-rendering="optimizeQuality" font-family="&apos;jlm_cmmi10&apos;" color-interpolation="linearRGB">
      <path d="M42.7031 -60.7031 L29.4062 -7.5938 Q29 -6.0938 29 -5.5 Q29 -4 30.5938 -3.5938 L30.7031 -3.5938 Q31.4062 -3.4062 32.7031 -3.2969 Q35.2969 -3.0938 39.0938 -3.0938 Q42.2031 -3.0938 42.4062 -2.5 Q42.5 -2.2969 42.5 -2 Q42.0938 -0.0938 40.2969 0 L31.7031 -0.2031 L31.5938 -0.2031 L23.5 -0.2969 L23.2969 -0.2969 L15 -0.2031 L14.7969 -0.2031 L6.7031 0 L6.5938 0 Q4.9062 0 4.9062 -1.2031 Q4.9062 -2.7031 6 -3 Q6.7031 -3.0938 9.0938 -3.0938 Q18 -3.0938 19.7031 -4.7969 Q20.2969 -5.4062 20.7031 -6.5938 Q20.7031 -6.7969 20.7969 -7.0938 L20.7969 -7.2969 L20.9062 -7.2969 L20.9062 -7.4062 Q20.9062 -7.5 21 -7.9062 L34.4062 -61.2969 Q34.7969 -62.5 34.7969 -63.3906 Q34.7969 -64.2969 33.9062 -64.5 Q33.2969 -64.5938 32 -64.5938 L28.0938 -64.5938 Q17.7969 -64.5938 14 -62.2969 Q11.9062 -61.0938 10.2969 -58.5938 L10.2031 -58.5 L10.2031 -58.4062 L10.0938 -58.4062 Q8 -55.0938 5.2969 -47.2969 Q4.5938 -45.4062 4.0938 -45.2969 Q3.9062 -45.2031 3.5938 -45.2031 Q2.4062 -45.2031 2.4062 -46.2969 Q2.4062 -46.9062 3 -48.0938 L9 -65.7031 Q9.5938 -67.4062 10.4062 -67.5938 Q10.9062 -67.7031 12.2031 -67.7031 L67.7031 -67.7031 Q70.2031 -67.7031 70.4062 -66.5938 Q70.4062 -65.7031 70.2031 -64.9062 L67.5 -47.5 Q67.2031 -45.4062 66 -45.2031 Q64.7969 -45.2031 64.7969 -46.5 Q64.7969 -47.2031 65.0938 -48.4062 Q65.9062 -53.5938 65.9062 -56.4062 Q65.9062 -62.2031 61.7969 -63.7031 Q59.2031 -64.5938 51.2969 -64.5938 Q45.9062 -64.5938 45 -64.4062 Q43.7031 -64.0938 43.0938 -62.2031 L43.0938 -62.0938 Q42.9062 -61.5938 42.7031 -60.7031 Z" stroke="none" />
    </g>
    <g font-size="100" transform="matrix(20,0,0,20,0,0) translate(3.5955,1.1336) scale(0.01,0.01)" text-rendering="geometricPrecision" image-rendering="optimizeQuality" color-rendering="optimizeQuality" font-family="&apos;jlm_cmmi10&apos;" color-interpolation="linearRGB">
      <path d="M30.2969 -32.5 L24.0938 -7.5938 Q23.7031 -6.0938 23.7031 -5.2969 Q23.7031 -3.9062 25 -3.5938 Q25.7031 -3.4062 26.9062 -3.2969 Q29.4062 -3.0938 32.0938 -3.0938 Q34.5938 -3.0938 34.9062 -3 L35.4062 -2.2969 Q35.5 -2.0938 35.5 -1.9062 Q35.5 0 33.4062 0 L18.5938 -0.2969 L18.5 -0.2969 L5.4062 0 L5.2969 0 Q3.7969 0 3.7969 -1.2031 Q3.7969 -2.9062 5.4062 -3.0938 L6.5938 -3.0938 Q13.0938 -3.0938 14.4062 -4.5 Q15 -5.2031 15.5938 -7.2969 Q15.5938 -7.4062 15.7031 -7.7969 L28.9062 -60.7031 Q29.4062 -62.5 29.4062 -63.0938 Q29.4062 -64.7969 24.7969 -64.9062 L24.7031 -64.9062 L22.9062 -64.9062 Q20.2969 -64.9062 20.0938 -66 Q20.0938 -67.7969 21.7031 -68 L23.0938 -68 L72.0938 -68 Q74.5 -68 74.7031 -67.2969 L74.7969 -67.2969 Q75 -66.7031 74.7969 -65.2969 L72.7969 -48 Q72.0938 -45.7031 71.4062 -45.5 Q70.2031 -45.5 70.2031 -46.7031 Q70.2031 -47.2031 70.4062 -48.5 Q70.7031 -51.2031 70.7031 -53.9062 Q70.7031 -60.5938 67.2969 -62.7969 L67.2031 -62.9062 Q64 -64.9062 56.0938 -64.9062 L42.9062 -64.9062 Q39.2031 -64.9062 38.5 -63.7969 L38.4062 -63.7969 L38.4062 -63.7031 Q38.0938 -63.2969 37.9062 -62.5 L37.9062 -62.4062 L37.7969 -62.2969 Q37.7031 -61.9062 37.5 -61 L31.0938 -35.5938 L40.2031 -35.5938 Q47.5 -35.5938 50 -38.2969 L50.0938 -38.4062 Q51.7969 -40.2969 53.0938 -45.2031 Q53.5938 -47.0938 54.5938 -47.2969 Q55.7031 -47.2969 55.7969 -46.2031 Q55.7969 -45.7031 55.5 -44.5938 L50 -22.9062 Q49 -20.9062 48.5 -20.7969 Q47.2969 -20.7969 47.2969 -22 Q47.2969 -22.4062 47.5938 -23.0938 Q48.2969 -26.0938 48.2969 -28 Q48.2969 -30.9062 46.0938 -31.7969 L46.0938 -31.7969 Q44.2031 -32.5 40 -32.5 L30.2969 -32.5 Z" stroke="none" />
    </g>
    <g font-size="100" transform="matrix(20,0,0,20,0,0) translate(4.2386,1.2836) scale(0.007,0.007)" text-rendering="geometricPrecision" image-rendering="optimizeQuality" color-rendering="optimizeQuality" font-family="&apos;jlm_cmmi10&apos;" color-interpolation="linearRGB">
      <path d="M51.5938 -68.2969 L37.2031 -10.5 Q36.5938 -8 36.5938 -5.7031 Q36.5938 -1.0938 39.5938 -1.0938 Q43.4062 -1.0938 46 -9.0938 Q46.5 -10.7969 47.2031 -13.5 Q48 -15.2031 48.5938 -15.2969 Q49.7969 -15.2969 49.7969 -14.2969 Q49.7969 -12.7969 48 -7.2969 Q47.4062 -5.5938 46.7969 -4.4062 Q44 1.0938 39.4062 1.0938 Q33.7969 1.0938 31.2969 -3.7031 Q30.5938 -4.9062 30.2969 -6.4062 Q24 1.0938 17.2969 1.0938 Q9.7969 1.0938 6.2031 -5.7031 Q4 -9.7031 4 -14.9062 Q4 -25.7031 11.5 -34.9062 Q18.5 -43.2969 26.7031 -44.0938 Q27.4062 -44.2031 28.0938 -44.2031 Q34.2031 -44.2031 37.2969 -37.7969 L43.2969 -61.5 L43.5938 -63.5 Q43.5938 -64.5938 42.2031 -64.9062 Q41 -65.2031 38.5938 -65.2031 Q36.4062 -65.2031 36.2031 -66.4062 Q36.2031 -68.0938 37.5938 -68.2969 Q47 -69.4062 50.2969 -69.4062 Q51.5938 -69.4062 51.5938 -68.2969 ZM30.7969 -11.9062 L30.7969 -11.9062 L35.7969 -31.5 Q36.0938 -33 36.0938 -33.2031 Q36.0938 -35.2969 34.2969 -38.2969 Q32.0938 -42 28.2031 -42 Q23 -42 18.2969 -35.2031 Q17.4062 -33.9062 16.5938 -32.4062 Q13.7031 -26.5938 11.7031 -15.9062 Q11.0938 -12.5 11.0938 -10.5 Q11.0938 -3.7031 14.9062 -1.7031 Q16 -1.0938 17.5 -1.0938 Q23.0938 -1.0938 28.7969 -8.2031 Q30.2031 -9.7969 30.7031 -11.5 L30.7031 -11.5938 Q30.7969 -11.7969 30.7969 -11.9062 Z" stroke="none" />
    </g>
    <g font-size="100" transform="matrix(20,0,0,20,0,0) translate(4.6029,1.1336) scale(0.01,0.01)" text-rendering="geometricPrecision" image-rendering="optimizeQuality" color-rendering="optimizeQuality" font-family="&apos;jlm_cmr10&apos;" color-interpolation="linearRGB">
      <path d="M33.0938 24 L33.0938 24 Q33.0938 25 32.0938 25 Q30.9062 25 26.7969 20.9062 Q20.5938 14.7031 16.5 6.2031 Q9.9062 -7.4062 9.9062 -25 Q9.9062 -41.9062 16.2031 -55.5 Q21.4062 -66.5938 29.4062 -73.2969 Q31.5 -75 32.0938 -75 Q33.0938 -75 33.0938 -74 Q33.0938 -73.5 31.7969 -72.2969 Q15.7031 -55.9062 15.7031 -25 Q15.7031 5.7969 31.4062 21.7969 Q33.0938 23.5 33.0938 24 Z" stroke="none" />
    </g>
    <g font-size="100" transform="matrix(20,0,0,20,0,0) translate(4.9918,1.1336) scale(0.01,0.01)" text-rendering="geometricPrecision" image-rendering="optimizeQuality" color-rendering="optimizeQuality" font-family="&apos;jlm_cmmi10&apos;" color-interpolation="linearRGB">
      <path d="M20.5938 -40 L13.2031 -10.5 Q12.5938 -8 12.5938 -5.7031 Q12.5938 -1.0938 15.7031 -1.0938 Q22.2969 -1.0938 27.2969 -10.7969 L28.7031 -13.9062 Q29.2969 -15.2031 30.2031 -15.2969 Q31.4062 -15.2969 31.4062 -14.2969 Q31.4062 -13 28.7969 -8.5938 Q23 1.0938 15.5 1.0938 Q9.7031 1.0938 7.2969 -3.7031 Q6.2969 -5.7031 6.2969 -8.0938 Q6.2969 -10 12.4062 -34 L13.9062 -40 L5.0938 -40 Q2.5938 -40 2.4062 -40.7969 L2.2969 -40.7969 L2.2969 -41.2031 Q2.2969 -42.9062 3.9062 -43.0938 L5.2969 -43.0938 L14.7031 -43.0938 L18.5938 -59 Q19.5 -62.5 22.5938 -62.5938 Q25.2031 -62.5938 25.5 -59.9062 Q25.5 -59.2969 21.4062 -43.0938 L30.2031 -43.0938 Q32.7969 -43.0938 33 -42 Q33 -40.2031 31.4062 -40 L31.2969 -40 L30 -40 L20.5938 -40 Z" stroke="none" />
    </g>
    <g font-size="100" transform="matrix(20,0,0,20,0,0) translate(5.3529,1.2836) scale(0.007,0.007)" text-rendering="geometricPrecision" image-rendering="optimizeQuality" color-rendering="optimizeQuality" font-family="&apos;jlm_cmr10&apos;" color-interpolation="linearRGB">
      <path d="M29.4062 -64 L29.4062 -7.9062 Q29.4062 -4.9062 30.5938 -4.0938 Q32.2969 -3.0938 38.7031 -3.0938 L41.9062 -3.0938 L41.9062 0 Q38.4062 -0.2969 25.7031 -0.2969 Q13 -0.2969 9.5 0 L9.5 -3.0938 L12.7031 -3.0938 Q20.4062 -3.0938 21.5 -4.9062 L21.5938 -5 Q22 -5.7969 22 -7.9062 L22 -59.7031 Q16.7969 -57.0938 8.9062 -57.0938 L8.9062 -60.2031 Q20.9062 -60.2031 27.0938 -66.5938 Q29 -66.5938 29.2969 -65.9062 L29.2969 -65.9062 L29.2969 -65.7969 Q29.4062 -65.5 29.4062 -64 Z" stroke="none" />
    </g>
    <g font-size="100" transform="matrix(20,0,0,20,0,0) translate(5.7029,1.1336) scale(0.01,0.01)" text-rendering="geometricPrecision" image-rendering="optimizeQuality" color-rendering="optimizeQuality" font-family="&apos;jlm_cmr10&apos;" color-interpolation="linearRGB">
      <path d="M28.9062 -25 L28.9062 -25 Q28.9062 -8.0938 22.5938 5.5 Q17.4062 16.5938 9.4062 23.2969 Q7.2969 25 6.7031 25 Q5.7031 25 5.7031 24 Q5.7031 23.5 7 22.2969 Q23.0938 5.9062 23.0938 -25 Q23.0938 -55.5 8.0938 -71.2031 L7.5938 -71.7031 Q5.7031 -73.5 5.7031 -74 Q5.7031 -75 6.7031 -75 Q7.9062 -75 12 -70.9062 Q18.2031 -64.7031 22.2969 -56.2031 Q28.9062 -42.5938 28.9062 -25 Z" stroke="none" />
    </g>
    <g font-size="100" transform="matrix(20,0,0,20,0,0) translate(6.314,1.1336) scale(0.01,0.01)" text-rendering="geometricPrecision" image-rendering="optimizeQuality" color-rendering="optimizeQuality" font-family="&apos;jlm_cmsy10&apos;" color-interpolation="linearRGB">
      <path d="M26.0938 -22.9062 L26.0938 -22.9062 L27.5 -7.0938 Q27.7969 -3.4062 24.9062 -3.4062 Q23.0938 -3.4062 22.5 -5 Q22.2969 -5.5 22.4062 -6.0938 L22.4062 -6.5938 L23.7969 -23 L11.2031 -13.7031 Q10 -12.7969 9.2031 -12.7969 Q7.4062 -12.7969 6.7031 -14.5938 Q6.5 -15.0938 6.5 -15.5938 Q6.5 -17.2969 8.5938 -18.2031 L22.7031 -25 L8.5938 -31.7031 Q6.5 -32.5938 6.5 -34.2969 Q6.5 -36.2031 8.4062 -36.9062 Q8.7969 -37.0938 9.2031 -37.0938 Q9.7969 -37.0938 11.2031 -36.0938 L23.7969 -26.9062 L22.4062 -42.7969 L22.4062 -43.9062 Q22 -45.5 23.7969 -46.2031 L23.9062 -46.2969 L24 -46.2969 Q24.5 -46.5 25 -46.5 Q27.7969 -46.5 27.5 -42.9062 L26.0938 -26.9062 L38.7031 -36.2031 Q39.9062 -37.0938 40.7031 -37.0938 Q42.5 -37.0938 43.2031 -35.2969 Q43.4062 -34.7969 43.4062 -34.2969 Q43.4062 -32.5938 41.2969 -31.7031 L27.0938 -24.9062 L41.5938 -18.0938 Q43.4062 -17.2031 43.4062 -15.5938 Q43.4062 -13.7031 41.5 -13 Q41.0938 -12.7969 40.7031 -12.7969 Q39.9062 -12.7969 37 -15 L26.0938 -22.9062 Z" stroke="none" />
    </g>
    <g font-size="100" transform="matrix(20,0,0,20,0,0) translate(7.0362,1.1336) scale(0.01,0.01)" text-rendering="geometricPrecision" image-rendering="optimizeQuality" color-rendering="optimizeQuality" font-family="&apos;jlm_cmmi10&apos;" color-interpolation="linearRGB">
      <path d="M37.4062 -60.5938 L24 -7.2969 Q23.5938 -5.9062 23.5938 -5 Q23.5938 -3.7031 25 -3.4062 L25.0938 -3.4062 L25.2031 -3.4062 Q25.5938 -3.2969 26.0938 -3.2969 Q28.0938 -3.0938 30.4062 -3.0938 Q33.0938 -3.0938 33.2969 -2.4062 Q33.4062 -2.2031 33.4062 -1.9062 Q33.4062 0 31.4062 0 L18.0938 -0.2969 L18 -0.2969 L5 0 L4.9062 0 Q3.4062 0 3.4062 -1.0938 Q3.4062 -2.7969 4.7969 -3 Q5.2969 -3.0938 6.5938 -3.0938 Q13.2969 -3.0938 14.5938 -4.7969 Q15.0938 -5.5 15.7031 -7.7969 L29.2031 -61.7031 Q29.4062 -62.5938 29.4062 -63.2969 Q29.4062 -65.0938 25.2031 -65.2031 L25.0938 -65.2031 L22.5 -65.2031 Q19.9062 -65.2031 19.7031 -66.2969 Q19.7031 -68.2969 21.7031 -68.2969 L34.9062 -68 L35 -68 L48.0938 -68.2969 L48.2031 -68.2969 Q49.7031 -68.2969 49.7031 -67.0938 Q49.7031 -65.4062 48.2969 -65.2969 Q47.7969 -65.2031 46.5 -65.2031 Q39.7969 -65.2031 38.5 -63.5938 Q38 -62.9062 37.4062 -60.5938 Z" stroke="none" />
    </g>
    <g font-size="100" transform="matrix(20,0,0,20,0,0) translate(7.5543,1.1336) scale(0.01,0.01)" text-rendering="geometricPrecision" image-rendering="optimizeQuality" color-rendering="optimizeQuality" font-family="&apos;jlm_cmmi10&apos;" color-interpolation="linearRGB">
      <path d="M15.9062 -7.7969 L15.9062 -7.7969 L29.2969 -61.5 Q29.7031 -63.0938 29.7031 -63.4062 Q29.7031 -64.5938 28.0938 -64.9062 L28 -64.9062 L28 -64.9062 Q27.7969 -65 27.5 -65 Q25.0938 -65.2031 23.2031 -65.2031 Q20.5938 -65.2031 20.4062 -66 Q20.2969 -66.2031 20.2969 -66.4062 Q20.2969 -68.0938 22 -68.2969 L22 -68.2969 L23.2969 -68.2969 L56.9062 -68.2969 Q69.9062 -68.2969 76.2969 -58.2031 Q80.4062 -51.7969 80.4062 -43 Q80.4062 -28.5 70.2969 -15.9062 Q60.7031 -4.2031 47.7031 -1 Q43.7969 0 39.9062 0 L6.7969 0 Q4.2969 0 4.0938 -0.7969 Q4 -0.9062 4 -1.2031 Q4 -2.9062 5.5938 -3.0938 L6.7969 -3.0938 Q13.2969 -3.0938 14.5938 -4.5 Q15.2031 -5.2031 15.7969 -7.2969 Q15.7969 -7.4062 15.9062 -7.7969 ZM37.5 -61.4062 L23.7969 -6.5 Q23.2969 -4.7031 23.2969 -4.2031 Q23.2969 -3.4062 24.2031 -3.2031 L24.2031 -3.2031 L24.2031 -3.2031 L24.5938 -3.2031 Q25.2031 -3.0938 26.7969 -3.0938 L38.0938 -3.0938 Q50.5 -3.0938 59.5 -12.4062 Q60.4062 -13.4062 61.2031 -14.4062 Q69.2031 -24.7969 71.2969 -41.5938 Q71.7031 -44.7031 71.7031 -46.7031 Q71.7031 -60.0938 61.2031 -63.9062 Q57.7969 -65.2031 53.5938 -65.2031 L42.9062 -65.2031 Q39.2969 -65.2031 38.5 -64.2031 L38.5 -64.2031 L38.5 -64.0938 L38.4062 -64.0938 L38.4062 -64 Q38 -63.4062 37.5 -61.4062 Z" stroke="none" />
    </g>
    <g font-size="100" transform="matrix(20,0,0,20,0,0) translate(8.41,1.1336) scale(0.01,0.01)" text-rendering="geometricPrecision" image-rendering="optimizeQuality" color-rendering="optimizeQuality" font-family="&apos;jlm_cmmi10&apos;" color-interpolation="linearRGB">
      <path d="M30.2969 -32.5 L24.0938 -7.5938 Q23.7031 -6.0938 23.7031 -5.2969 Q23.7031 -3.9062 25 -3.5938 Q25.7031 -3.4062 26.9062 -3.2969 Q29.4062 -3.0938 32.0938 -3.0938 Q34.5938 -3.0938 34.9062 -3 L35.4062 -2.2969 Q35.5 -2.0938 35.5 -1.9062 Q35.5 0 33.4062 0 L18.5938 -0.2969 L18.5 -0.2969 L5.4062 0 L5.2969 0 Q3.7969 0 3.7969 -1.2031 Q3.7969 -2.9062 5.4062 -3.0938 L6.5938 -3.0938 Q13.0938 -3.0938 14.4062 -4.5 Q15 -5.2031 15.5938 -7.2969 Q15.5938 -7.4062 15.7031 -7.7969 L28.9062 -60.7031 Q29.4062 -62.5 29.4062 -63.0938 Q29.4062 -64.7969 24.7969 -64.9062 L24.7031 -64.9062 L22.9062 -64.9062 Q20.2969 -64.9062 20.0938 -66 Q20.0938 -67.7969 21.7031 -68 L23.0938 -68 L72.0938 -68 Q74.5 -68 74.7031 -67.2969 L74.7969 -67.2969 Q75 -66.7031 74.7969 -65.2969 L72.7969 -48 Q72.0938 -45.7031 71.4062 -45.5 Q70.2031 -45.5 70.2031 -46.7031 Q70.2031 -47.2031 70.4062 -48.5 Q70.7031 -51.2031 70.7031 -53.9062 Q70.7031 -60.5938 67.2969 -62.7969 L67.2031 -62.9062 Q64 -64.9062 56.0938 -64.9062 L42.9062 -64.9062 Q39.2031 -64.9062 38.5 -63.7969 L38.4062 -63.7969 L38.4062 -63.7031 Q38.0938 -63.2969 37.9062 -62.5 L37.9062 -62.4062 L37.7969 -62.2969 Q37.7031 -61.9062 37.5 -61 L31.0938 -35.5938 L40.2031 -35.5938 Q47.5 -35.5938 50 -38.2969 L50.0938 -38.4062 Q51.7969 -40.2969 53.0938 -45.2031 Q53.5938 -47.0938 54.5938 -47.2969 Q55.7031 -47.2969 55.7969 -46.2031 Q55.7969 -45.7031 55.5 -44.5938 L50 -22.9062 Q49 -20.9062 48.5 -20.7969 Q47.2969 -20.7969 47.2969 -22 Q47.2969 -22.4062 47.5938 -23.0938 Q48.2969 -26.0938 48.2969 -28 Q48.2969 -30.9062 46.0938 -31.7969 L46.0938 -31.7969 Q44.2031 -32.5 40 -32.5 L30.2969 -32.5 Z" stroke="none" />
    </g>
    <g font-size="100" transform="matrix(20,0,0,20,0,0) translate(9.1919,1.1336) scale(0.01,0.01)" text-rendering="geometricPrecision" image-rendering="optimizeQuality" color-rendering="optimizeQuality" font-family="&apos;jlm_cmr10&apos;" color-interpolation="linearRGB">
      <path d="M33.0938 24 L33.0938 24 Q33.0938 25 32.0938 25 Q30.9062 25 26.7969 20.9062 Q20.5938 14.7031 16.5 6.2031 Q9.9062 -7.4062 9.9062 -25 Q9.9062 -41.9062 16.2031 -55.5 Q21.4062 -66.5938 29.4062 -73.2969 Q31.5 -75 32.0938 -75 Q33.0938 -75 33.0938 -74 Q33.0938 -73.5 31.7969 -72.2969 Q15.7031 -55.9062 15.7031 -25 Q15.7031 5.7969 31.4062 21.7969 Q33.0938 23.5 33.0938 24 Z" stroke="none" />
    </g>
    <g font-size="100" transform="matrix(20,0,0,20,0,0) translate(9.5808,1.1336) scale(0.01,0.01)" text-rendering="geometricPrecision" image-rendering="optimizeQuality" color-rendering="optimizeQuality" font-family="&apos;jlm_cmmi10&apos;" color-interpolation="linearRGB">
      <path d="M20.5938 -40 L13.2031 -10.5 Q12.5938 -8 12.5938 -5.7031 Q12.5938 -1.0938 15.7031 -1.0938 Q22.2969 -1.0938 27.2969 -10.7969 L28.7031 -13.9062 Q29.2969 -15.2031 30.2031 -15.2969 Q31.4062 -15.2969 31.4062 -14.2969 Q31.4062 -13 28.7969 -8.5938 Q23 1.0938 15.5 1.0938 Q9.7031 1.0938 7.2969 -3.7031 Q6.2969 -5.7031 6.2969 -8.0938 Q6.2969 -10 12.4062 -34 L13.9062 -40 L5.0938 -40 Q2.5938 -40 2.4062 -40.7969 L2.2969 -40.7969 L2.2969 -41.2031 Q2.2969 -42.9062 3.9062 -43.0938 L5.2969 -43.0938 L14.7031 -43.0938 L18.5938 -59 Q19.5 -62.5 22.5938 -62.5938 Q25.2031 -62.5938 25.5 -59.9062 Q25.5 -59.2969 21.4062 -43.0938 L30.2031 -43.0938 Q32.7969 -43.0938 33 -42 Q33 -40.2031 31.4062 -40 L31.2969 -40 L30 -40 L20.5938 -40 Z" stroke="none" />
    </g>
    <g font-size="100" transform="matrix(20,0,0,20,0,0) translate(9.9419,1.2836) scale(0.007,0.007)" text-rendering="geometricPrecision" image-rendering="optimizeQuality" color-rendering="optimizeQuality" font-family="&apos;jlm_cmr10&apos;" color-interpolation="linearRGB">
      <path d="M29.4062 -64 L29.4062 -7.9062 Q29.4062 -4.9062 30.5938 -4.0938 Q32.2969 -3.0938 38.7031 -3.0938 L41.9062 -3.0938 L41.9062 0 Q38.4062 -0.2969 25.7031 -0.2969 Q13 -0.2969 9.5 0 L9.5 -3.0938 L12.7031 -3.0938 Q20.4062 -3.0938 21.5 -4.9062 L21.5938 -5 Q22 -5.7969 22 -7.9062 L22 -59.7031 Q16.7969 -57.0938 8.9062 -57.0938 L8.9062 -60.2031 Q20.9062 -60.2031 27.0938 -66.5938 Q29 -66.5938 29.2969 -65.9062 L29.2969 -65.9062 L29.2969 -65.7969 Q29.4062 -65.5 29.4062 -64 Z" stroke="none" />
    </g>
    <g font-size="100" transform="matrix(20,0,0,20,0,0) translate(10.2919,1.1336) scale(0.01,0.01)" text-rendering="geometricPrecision" image-rendering="optimizeQuality" color-rendering="optimizeQuality" font-family="&apos;jlm_cmr10&apos;" color-interpolation="linearRGB">
      <path d="M28.9062 -25 L28.9062 -25 Q28.9062 -8.0938 22.5938 5.5 Q17.4062 16.5938 9.4062 23.2969 Q7.2969 25 6.7031 25 Q5.7031 25 5.7031 24 Q5.7031 23.5 7 22.2969 Q23.0938 5.9062 23.0938 -25 Q23.0938 -55.5 8.0938 -71.2031 L7.5938 -71.7031 Q5.7031 -73.5 5.7031 -74 Q5.7031 -75 6.7031 -75 Q7.9062 -75 12 -70.9062 Q18.2031 -64.7031 22.2969 -56.2031 Q28.9062 -42.5938 28.9062 -25 Z" stroke="none" />
    </g>
    <g font-size="100" transform="matrix(20,0,0,20,0,0) translate(10.6808,1.1336) scale(0.01,0.01)" text-rendering="geometricPrecision" image-rendering="optimizeQuality" color-rendering="optimizeQuality" font-family="&apos;jlm_cmmi10&apos;" color-interpolation="linearRGB">
      <path d="M20.2969 -0.0938 L20.2969 -0.0938 Q20.2969 9.5938 14 16.9062 Q12.2969 18.9062 11.2031 19.2969 Q10.2031 19.2969 10.2031 18.2031 Q10.2031 17.7031 11.2969 16.5938 Q17.2969 10.5938 18 1.9062 Q18.0938 0.9062 18.0938 -0.0938 Q18.0938 -1.5938 17.9062 -1.5938 Q17.7969 -1.5938 17.4062 -1.2969 Q16 0 13.9062 0 Q10.2031 0 9 -3.4062 Q8.5938 -4.2969 8.5938 -5.2969 Q8.5938 -8.9062 11.7031 -10.2031 Q12.7031 -10.5938 13.9062 -10.5938 Q18.2969 -10.5938 19.7969 -4.7969 Q20.2969 -2.7031 20.2969 -0.0938 Z" stroke="none" />
    </g>
    <g font-size="100" transform="matrix(20,0,0,20,0,0) translate(11.1253,1.1336) scale(0.01,0.01)" text-rendering="geometricPrecision" image-rendering="optimizeQuality" color-rendering="optimizeQuality" font-family="&apos;jlm_cmmi10&apos;" color-interpolation="linearRGB">
      <path d="M42.7031 -60.7031 L29.4062 -7.5938 Q29 -6.0938 29 -5.5 Q29 -4 30.5938 -3.5938 L30.7031 -3.5938 Q31.4062 -3.4062 32.7031 -3.2969 Q35.2969 -3.0938 39.0938 -3.0938 Q42.2031 -3.0938 42.4062 -2.5 Q42.5 -2.2969 42.5 -2 Q42.0938 -0.0938 40.2969 0 L31.7031 -0.2031 L31.5938 -0.2031 L23.5 -0.2969 L23.2969 -0.2969 L15 -0.2031 L14.7969 -0.2031 L6.7031 0 L6.5938 0 Q4.9062 0 4.9062 -1.2031 Q4.9062 -2.7031 6 -3 Q6.7031 -3.0938 9.0938 -3.0938 Q18 -3.0938 19.7031 -4.7969 Q20.2969 -5.4062 20.7031 -6.5938 Q20.7031 -6.7969 20.7969 -7.0938 L20.7969 -7.2969 L20.9062 -7.2969 L20.9062 -7.4062 Q20.9062 -7.5 21 -7.9062 L34.4062 -61.2969 Q34.7969 -62.5 34.7969 -63.3906 Q34.7969 -64.2969 33.9062 -64.5 Q33.2969 -64.5938 32 -64.5938 L28.0938 -64.5938 Q17.7969 -64.5938 14 -62.2969 Q11.9062 -61.0938 10.2969 -58.5938 L10.2031 -58.5 L10.2031 -58.4062 L10.0938 -58.4062 Q8 -55.0938 5.2969 -47.2969 Q4.5938 -45.4062 4.0938 -45.2969 Q3.9062 -45.2031 3.5938 -45.2031 Q2.4062 -45.2031 2.4062 -46.2969 Q2.4062 -46.9062 3 -48.0938 L9 -65.7031 Q9.5938 -67.4062 10.4062 -67.5938 Q10.9062 -67.7031 12.2031 -67.7031 L67.7031 -67.7031 Q70.2031 -67.7031 70.4062 -66.5938 Q70.4062 -65.7031 70.2031 -64.9062 L67.5 -47.5 Q67.2031 -45.4062 66 -45.2031 Q64.7969 -45.2031 64.7969 -46.5 Q64.7969 -47.2031 65.0938 -48.4062 Q65.9062 -53.5938 65.9062 -56.4062 Q65.9062 -62.2031 61.7969 -63.7031 Q59.2031 -64.5938 51.2969 -64.5938 Q45.9062 -64.5938 45 -64.4062 Q43.7031 -64.0938 43.0938 -62.2031 L43.0938 -62.0938 Q42.9062 -61.5938 42.7031 -60.7031 Z" stroke="none" />
    </g>
    <g font-size="100" transform="matrix(20,0,0,20,0,0) translate(11.8485,1.1336) scale(0.01,0.01)" text-rendering="geometricPrecision" image-rendering="optimizeQuality" color-rendering="optimizeQuality" font-family="&apos;jlm_cmmi10&apos;" color-interpolation="linearRGB">
      <path d="M30.2969 -32.5 L24.0938 -7.5938 Q23.7031 -6.0938 23.7031 -5.2969 Q23.7031 -3.9062 25 -3.5938 Q25.7031 -3.4062 26.9062 -3.2969 Q29.4062 -3.0938 32.0938 -3.0938 Q34.5938 -3.0938 34.9062 -3 L35.4062 -2.2969 Q35.5 -2.0938 35.5 -1.9062 Q35.5 0 33.4062 0 L18.5938 -0.2969 L18.5 -0.2969 L5.4062 0 L5.2969 0 Q3.7969 0 3.7969 -1.2031 Q3.7969 -2.9062 5.4062 -3.0938 L6.5938 -3.0938 Q13.0938 -3.0938 14.4062 -4.5 Q15 -5.2031 15.5938 -7.2969 Q15.5938 -7.4062 15.7031 -7.7969 L28.9062 -60.7031 Q29.4062 -62.5 29.4062 -63.0938 Q29.4062 -64.7969 24.7969 -64.9062 L24.7031 -64.9062 L22.9062 -64.9062 Q20.2969 -64.9062 20.0938 -66 Q20.0938 -67.7969 21.7031 -68 L23.0938 -68 L72.0938 -68 Q74.5 -68 74.7031 -67.2969 L74.7969 -67.2969 Q75 -66.7031 74.7969 -65.2969 L72.7969 -48 Q72.0938 -45.7031 71.4062 -45.5 Q70.2031 -45.5 70.2031 -46.7031 Q70.2031 -47.2031 70.4062 -48.5 Q70.7031 -51.2031 70.7031 -53.9062 Q70.7031 -60.5938 67.2969 -62.7969 L67.2031 -62.9062 Q64 -64.9062 56.0938 -64.9062 L42.9062 -64.9062 Q39.2031 -64.9062 38.5 -63.7969 L38.4062 -63.7969 L38.4062 -63.7031 Q38.0938 -63.2969 37.9062 -62.5 L37.9062 -62.4062 L37.7969 -62.2969 Q37.7031 -61.9062 37.5 -61 L31.0938 -35.5938 L40.2031 -35.5938 Q47.5 -35.5938 50 -38.2969 L50.0938 -38.4062 Q51.7969 -40.2969 53.0938 -45.2031 Q53.5938 -47.0938 54.5938 -47.2969 Q55.7031 -47.2969 55.7969 -46.2031 Q55.7969 -45.7031 55.5 -44.5938 L50 -22.9062 Q49 -20.9062 48.5 -20.7969 Q47.2969 -20.7969 47.2969 -22 Q47.2969 -22.4062 47.5938 -23.0938 Q48.2969 -26.0938 48.2969 -28 Q48.2969 -30.9062 46.0938 -31.7969 L46.0938 -31.7969 Q44.2031 -32.5 40 -32.5 L30.2969 -32.5 Z" stroke="none" />
    </g>
    <g font-size="100" transform="matrix(20,0,0,20,0,0) translate(12.4916,1.2836) scale(0.007,0.007)" text-rendering="geometricPrecision" image-rendering="optimizeQuality" color-rendering="optimizeQuality" font-family="&apos;jlm_cmmi10&apos;" color-interpolation="linearRGB">
      <path d="M51.5938 -68.2969 L37.2031 -10.5 Q36.5938 -8 36.5938 -5.7031 Q36.5938 -1.0938 39.5938 -1.0938 Q43.4062 -1.0938 46 -9.0938 Q46.5 -10.7969 47.2031 -13.5 Q48 -15.2031 48.5938 -15.2969 Q49.7969 -15.2969 49.7969 -14.2969 Q49.7969 -12.7969 48 -7.2969 Q47.4062 -5.5938 46.7969 -4.4062 Q44 1.0938 39.4062 1.0938 Q33.7969 1.0938 31.2969 -3.7031 Q30.5938 -4.9062 30.2969 -6.4062 Q24 1.0938 17.2969 1.0938 Q9.7969 1.0938 6.2031 -5.7031 Q4 -9.7031 4 -14.9062 Q4 -25.7031 11.5 -34.9062 Q18.5 -43.2969 26.7031 -44.0938 Q27.4062 -44.2031 28.0938 -44.2031 Q34.2031 -44.2031 37.2969 -37.7969 L43.2969 -61.5 L43.5938 -63.5 Q43.5938 -64.5938 42.2031 -64.9062 Q41 -65.2031 38.5938 -65.2031 Q36.4062 -65.2031 36.2031 -66.4062 Q36.2031 -68.0938 37.5938 -68.2969 Q47 -69.4062 50.2969 -69.4062 Q51.5938 -69.4062 51.5938 -68.2969 ZM30.7969 -11.9062 L30.7969 -11.9062 L35.7969 -31.5 Q36.0938 -33 36.0938 -33.2031 Q36.0938 -35.2969 34.2969 -38.2969 Q32.0938 -42 28.2031 -42 Q23 -42 18.2969 -35.2031 Q17.4062 -33.9062 16.5938 -32.4062 Q13.7031 -26.5938 11.7031 -15.9062 Q11.0938 -12.5 11.0938 -10.5 Q11.0938 -3.7031 14.9062 -1.7031 Q16 -1.0938 17.5 -1.0938 Q23.0938 -1.0938 28.7969 -8.2031 Q30.2031 -9.7969 30.7031 -11.5 L30.7031 -11.5938 Q30.7969 -11.7969 30.7969 -11.9062 Z" stroke="none" />
    </g>
    <g font-size="100" transform="matrix(20,0,0,20,0,0) translate(12.8559,1.1336) scale(0.01,0.01)" text-rendering="geometricPrecision" image-rendering="optimizeQuality" color-rendering="optimizeQuality" font-family="&apos;jlm_cmr10&apos;" color-interpolation="linearRGB">
      <path d="M33.0938 24 L33.0938 24 Q33.0938 25 32.0938 25 Q30.9062 25 26.7969 20.9062 Q20.5938 14.7031 16.5 6.2031 Q9.9062 -7.4062 9.9062 -25 Q9.9062 -41.9062 16.2031 -55.5 Q21.4062 -66.5938 29.4062 -73.2969 Q31.5 -75 32.0938 -75 Q33.0938 -75 33.0938 -74 Q33.0938 -73.5 31.7969 -72.2969 Q15.7031 -55.9062 15.7031 -25 Q15.7031 5.7969 31.4062 21.7969 Q33.0938 23.5 33.0938 24 Z" stroke="none" />
    </g>
    <g font-size="100" transform="matrix(20,0,0,20,0,0) translate(13.2448,1.1336) scale(0.01,0.01)" text-rendering="geometricPrecision" image-rendering="optimizeQuality" color-rendering="optimizeQuality" font-family="&apos;jlm_cmmi10&apos;" color-interpolation="linearRGB">
      <path d="M20.5938 -40 L13.2031 -10.5 Q12.5938 -8 12.5938 -5.7031 Q12.5938 -1.0938 15.7031 -1.0938 Q22.2969 -1.0938 27.2969 -10.7969 L28.7031 -13.9062 Q29.2969 -15.2031 30.2031 -15.2969 Q31.4062 -15.2969 31.4062 -14.2969 Q31.4062 -13 28.7969 -8.5938 Q23 1.0938 15.5 1.0938 Q9.7031 1.0938 7.2969 -3.7031 Q6.2969 -5.7031 6.2969 -8.0938 Q6.2969 -10 12.4062 -34 L13.9062 -40 L5.0938 -40 Q2.5938 -40 2.4062 -40.7969 L2.2969 -40.7969 L2.2969 -41.2031 Q2.2969 -42.9062 3.9062 -43.0938 L5.2969 -43.0938 L14.7031 -43.0938 L18.5938 -59 Q19.5 -62.5 22.5938 -62.5938 Q25.2031 -62.5938 25.5 -59.9062 Q25.5 -59.2969 21.4062 -43.0938 L30.2031 -43.0938 Q32.7969 -43.0938 33 -42 Q33 -40.2031 31.4062 -40 L31.2969 -40 L30 -40 L20.5938 -40 Z" stroke="none" />
    </g>
    <g font-size="100" transform="matrix(20,0,0,20,0,0) translate(13.6059,1.2836) scale(0.007,0.007)" text-rendering="geometricPrecision" image-rendering="optimizeQuality" color-rendering="optimizeQuality" font-family="&apos;jlm_cmr10&apos;" color-interpolation="linearRGB">
      <path d="M44.9062 -17.4062 L44.9062 -17.4062 L42.0938 0 L5 0 Q5 -2.5 5.5938 -3.2031 L6.0938 -3.7031 L25.2969 -25.0938 Q35.7969 -36.9062 35.7969 -47.2031 Q35.7969 -56.0938 30.4062 -60.7031 L30.2969 -60.7969 L30.2031 -60.7969 Q27 -63.5 22.4062 -63.5 Q15.2031 -63.5 10.9062 -57.2969 Q9.7031 -55.5 8.9062 -53.2969 Q9.2031 -53.4062 10.2031 -53.4062 Q14.2031 -53.4062 15.2969 -49.7969 L15.2969 -49.7031 Q15.5 -49 15.5 -48.2031 Q15.5 -44.2031 11.7031 -43.0938 Q10.9062 -42.9062 10.2969 -42.9062 Q6.5938 -42.9062 5.4062 -46 Q5 -47.0938 5 -48.5 Q5 -56.2031 10.9062 -61.7031 Q16.2031 -66.5938 23.7031 -66.5938 Q34.7031 -66.5938 40.7969 -59.2031 Q44.2969 -54.9062 44.7969 -49 Q44.9062 -48.0938 44.9062 -47.2031 Q44.9062 -39.9062 39.4062 -33.2969 Q36.5 -29.9062 30.4062 -24.2969 L24.2969 -18.9062 L23.2969 -18 L12.7031 -7.7031 L30.7031 -7.7031 Q39.5 -7.7031 40.2031 -8.5 Q41.2031 -9.9062 42.4062 -17.4062 L44.9062 -17.4062 Z" stroke="none" />
    </g>
    <g font-size="100" transform="matrix(20,0,0,20,0,0) translate(13.9559,1.1336) scale(0.01,0.01)" text-rendering="geometricPrecision" image-rendering="optimizeQuality" color-rendering="optimizeQuality" font-family="&apos;jlm_cmr10&apos;" color-interpolation="linearRGB">
      <path d="M28.9062 -25 L28.9062 -25 Q28.9062 -8.0938 22.5938 5.5 Q17.4062 16.5938 9.4062 23.2969 Q7.2969 25 6.7031 25 Q5.7031 25 5.7031 24 Q5.7031 23.5 7 22.2969 Q23.0938 5.9062 23.0938 -25 Q23.0938 -55.5 8.0938 -71.2031 L7.5938 -71.7031 Q5.7031 -73.5 5.7031 -74 Q5.7031 -75 6.7031 -75 Q7.9062 -75 12 -70.9062 Q18.2031 -64.7031 22.2969 -56.2031 Q28.9062 -42.5938 28.9062 -25 Z" stroke="none" />
    </g>
    <g font-size="100" transform="matrix(20,0,0,20,0,0) translate(14.5671,1.1336) scale(0.01,0.01)" text-rendering="geometricPrecision" image-rendering="optimizeQuality" color-rendering="optimizeQuality" font-family="&apos;jlm_cmsy10&apos;" color-interpolation="linearRGB">
      <path d="M26.0938 -22.9062 L26.0938 -22.9062 L27.5 -7.0938 Q27.7969 -3.4062 24.9062 -3.4062 Q23.0938 -3.4062 22.5 -5 Q22.2969 -5.5 22.4062 -6.0938 L22.4062 -6.5938 L23.7969 -23 L11.2031 -13.7031 Q10 -12.7969 9.2031 -12.7969 Q7.4062 -12.7969 6.7031 -14.5938 Q6.5 -15.0938 6.5 -15.5938 Q6.5 -17.2969 8.5938 -18.2031 L22.7031 -25 L8.5938 -31.7031 Q6.5 -32.5938 6.5 -34.2969 Q6.5 -36.2031 8.4062 -36.9062 Q8.7969 -37.0938 9.2031 -37.0938 Q9.7969 -37.0938 11.2031 -36.0938 L23.7969 -26.9062 L22.4062 -42.7969 L22.4062 -43.9062 Q22 -45.5 23.7969 -46.2031 L23.9062 -46.2969 L24 -46.2969 Q24.5 -46.5 25 -46.5 Q27.7969 -46.5 27.5 -42.9062 L26.0938 -26.9062 L38.7031 -36.2031 Q39.9062 -37.0938 40.7031 -37.0938 Q42.5 -37.0938 43.2031 -35.2969 Q43.4062 -34.7969 43.4062 -34.2969 Q43.4062 -32.5938 41.2969 -31.7031 L27.0938 -24.9062 L41.5938 -18.0938 Q43.4062 -17.2031 43.4062 -15.5938 Q43.4062 -13.7031 41.5 -13 Q41.0938 -12.7969 40.7031 -12.7969 Q39.9062 -12.7969 37 -15 L26.0938 -22.9062 Z" stroke="none" />
    </g>
    <g font-size="100" transform="matrix(20,0,0,20,0,0) translate(15.2893,1.1336) scale(0.01,0.01)" text-rendering="geometricPrecision" image-rendering="optimizeQuality" color-rendering="optimizeQuality" font-family="&apos;jlm_cmmi10&apos;" color-interpolation="linearRGB">
      <path d="M37.4062 -60.5938 L24 -7.2969 Q23.5938 -5.9062 23.5938 -5 Q23.5938 -3.7031 25 -3.4062 L25.0938 -3.4062 L25.2031 -3.4062 Q25.5938 -3.2969 26.0938 -3.2969 Q28.0938 -3.0938 30.4062 -3.0938 Q33.0938 -3.0938 33.2969 -2.4062 Q33.4062 -2.2031 33.4062 -1.9062 Q33.4062 0 31.4062 0 L18.0938 -0.2969 L18 -0.2969 L5 0 L4.9062 0 Q3.4062 0 3.4062 -1.0938 Q3.4062 -2.7969 4.7969 -3 Q5.2969 -3.0938 6.5938 -3.0938 Q13.2969 -3.0938 14.5938 -4.7969 Q15.0938 -5.5 15.7031 -7.7969 L29.2031 -61.7031 Q29.4062 -62.5938 29.4062 -63.2969 Q29.4062 -65.0938 25.2031 -65.2031 L25.0938 -65.2031 L22.5 -65.2031 Q19.9062 -65.2031 19.7031 -66.2969 Q19.7031 -68.2969 21.7031 -68.2969 L34.9062 -68 L35 -68 L48.0938 -68.2969 L48.2031 -68.2969 Q49.7031 -68.2969 49.7031 -67.0938 Q49.7031 -65.4062 48.2969 -65.2969 Q47.7969 -65.2031 46.5 -65.2031 Q39.7969 -65.2031 38.5 -63.5938 Q38 -62.9062 37.4062 -60.5938 Z" stroke="none" />
    </g>
    <g font-size="100" transform="matrix(20,0,0,20,0,0) translate(15.8073,1.1336) scale(0.01,0.01)" text-rendering="geometricPrecision" image-rendering="optimizeQuality" color-rendering="optimizeQuality" font-family="&apos;jlm_cmmi10&apos;" color-interpolation="linearRGB">
      <path d="M15.9062 -7.7969 L15.9062 -7.7969 L29.2969 -61.5 Q29.7031 -63.0938 29.7031 -63.4062 Q29.7031 -64.5938 28.0938 -64.9062 L28 -64.9062 L28 -64.9062 Q27.7969 -65 27.5 -65 Q25.0938 -65.2031 23.2031 -65.2031 Q20.5938 -65.2031 20.4062 -66 Q20.2969 -66.2031 20.2969 -66.4062 Q20.2969 -68.0938 22 -68.2969 L22 -68.2969 L23.2969 -68.2969 L56.9062 -68.2969 Q69.9062 -68.2969 76.2969 -58.2031 Q80.4062 -51.7969 80.4062 -43 Q80.4062 -28.5 70.2969 -15.9062 Q60.7031 -4.2031 47.7031 -1 Q43.7969 0 39.9062 0 L6.7969 0 Q4.2969 0 4.0938 -0.7969 Q4 -0.9062 4 -1.2031 Q4 -2.9062 5.5938 -3.0938 L6.7969 -3.0938 Q13.2969 -3.0938 14.5938 -4.5 Q15.2031 -5.2031 15.7969 -7.2969 Q15.7969 -7.4062 15.9062 -7.7969 ZM37.5 -61.4062 L23.7969 -6.5 Q23.2969 -4.7031 23.2969 -4.2031 Q23.2969 -3.4062 24.2031 -3.2031 L24.2031 -3.2031 L24.2031 -3.2031 L24.5938 -3.2031 Q25.2031 -3.0938 26.7969 -3.0938 L38.0938 -3.0938 Q50.5 -3.0938 59.5 -12.4062 Q60.4062 -13.4062 61.2031 -14.4062 Q69.2031 -24.7969 71.2969 -41.5938 Q71.7031 -44.7031 71.7031 -46.7031 Q71.7031 -60.0938 61.2031 -63.9062 Q57.7969 -65.2031 53.5938 -65.2031 L42.9062 -65.2031 Q39.2969 -65.2031 38.5 -64.2031 L38.5 -64.2031 L38.5 -64.0938 L38.4062 -64.0938 L38.4062 -64 Q38 -63.4062 37.5 -61.4062 Z" stroke="none" />
    </g>
    <g font-size="100" transform="matrix(20,0,0,20,0,0) translate(16.663,1.1336) scale(0.01,0.01)" text-rendering="geometricPrecision" image-rendering="optimizeQuality" color-rendering="optimizeQuality" font-family="&apos;jlm_cmmi10&apos;" color-interpolation="linearRGB">
      <path d="M30.2969 -32.5 L24.0938 -7.5938 Q23.7031 -6.0938 23.7031 -5.2969 Q23.7031 -3.9062 25 -3.5938 Q25.7031 -3.4062 26.9062 -3.2969 Q29.4062 -3.0938 32.0938 -3.0938 Q34.5938 -3.0938 34.9062 -3 L35.4062 -2.2969 Q35.5 -2.0938 35.5 -1.9062 Q35.5 0 33.4062 0 L18.5938 -0.2969 L18.5 -0.2969 L5.4062 0 L5.2969 0 Q3.7969 0 3.7969 -1.2031 Q3.7969 -2.9062 5.4062 -3.0938 L6.5938 -3.0938 Q13.0938 -3.0938 14.4062 -4.5 Q15 -5.2031 15.5938 -7.2969 Q15.5938 -7.4062 15.7031 -7.7969 L28.9062 -60.7031 Q29.4062 -62.5 29.4062 -63.0938 Q29.4062 -64.7969 24.7969 -64.9062 L24.7031 -64.9062 L22.9062 -64.9062 Q20.2969 -64.9062 20.0938 -66 Q20.0938 -67.7969 21.7031 -68 L23.0938 -68 L72.0938 -68 Q74.5 -68 74.7031 -67.2969 L74.7969 -67.2969 Q75 -66.7031 74.7969 -65.2969 L72.7969 -48 Q72.0938 -45.7031 71.4062 -45.5 Q70.2031 -45.5 70.2031 -46.7031 Q70.2031 -47.2031 70.4062 -48.5 Q70.7031 -51.2031 70.7031 -53.9062 Q70.7031 -60.5938 67.2969 -62.7969 L67.2031 -62.9062 Q64 -64.9062 56.0938 -64.9062 L42.9062 -64.9062 Q39.2031 -64.9062 38.5 -63.7969 L38.4062 -63.7969 L38.4062 -63.7031 Q38.0938 -63.2969 37.9062 -62.5 L37.9062 -62.4062 L37.7969 -62.2969 Q37.7031 -61.9062 37.5 -61 L31.0938 -35.5938 L40.2031 -35.5938 Q47.5 -35.5938 50 -38.2969 L50.0938 -38.4062 Q51.7969 -40.2969 53.0938 -45.2031 Q53.5938 -47.0938 54.5938 -47.2969 Q55.7031 -47.2969 55.7969 -46.2031 Q55.7969 -45.7031 55.5 -44.5938 L50 -22.9062 Q49 -20.9062 48.5 -20.7969 Q47.2969 -20.7969 47.2969 -22 Q47.2969 -22.4062 47.5938 -23.0938 Q48.2969 -26.0938 48.2969 -28 Q48.2969 -30.9062 46.0938 -31.7969 L46.0938 -31.7969 Q44.2031 -32.5 40 -32.5 L30.2969 -32.5 Z" stroke="none" />
    </g>
    <g font-size="100" transform="matrix(20,0,0,20,0,0) translate(17.445,1.1336) scale(0.01,0.01)" text-rendering="geometricPrecision" image-rendering="optimizeQuality" color-rendering="optimizeQuality" font-family="&apos;jlm_cmr10&apos;" color-interpolation="linearRGB">
      <path d="M33.0938 24 L33.0938 24 Q33.0938 25 32.0938 25 Q30.9062 25 26.7969 20.9062 Q20.5938 14.7031 16.5 6.2031 Q9.9062 -7.4062 9.9062 -25 Q9.9062 -41.9062 16.2031 -55.5 Q21.4062 -66.5938 29.4062 -73.2969 Q31.5 -75 32.0938 -75 Q33.0938 -75 33.0938 -74 Q33.0938 -73.5 31.7969 -72.2969 Q15.7031 -55.9062 15.7031 -25 Q15.7031 5.7969 31.4062 21.7969 Q33.0938 23.5 33.0938 24 Z" stroke="none" />
    </g>
    <g font-size="100" transform="matrix(20,0,0,20,0,0) translate(17.8339,1.1336) scale(0.01,0.01)" text-rendering="geometricPrecision" image-rendering="optimizeQuality" color-rendering="optimizeQuality" font-family="&apos;jlm_cmmi10&apos;" color-interpolation="linearRGB">
      <path d="M20.5938 -40 L13.2031 -10.5 Q12.5938 -8 12.5938 -5.7031 Q12.5938 -1.0938 15.7031 -1.0938 Q22.2969 -1.0938 27.2969 -10.7969 L28.7031 -13.9062 Q29.2969 -15.2031 30.2031 -15.2969 Q31.4062 -15.2969 31.4062 -14.2969 Q31.4062 -13 28.7969 -8.5938 Q23 1.0938 15.5 1.0938 Q9.7031 1.0938 7.2969 -3.7031 Q6.2969 -5.7031 6.2969 -8.0938 Q6.2969 -10 12.4062 -34 L13.9062 -40 L5.0938 -40 Q2.5938 -40 2.4062 -40.7969 L2.2969 -40.7969 L2.2969 -41.2031 Q2.2969 -42.9062 3.9062 -43.0938 L5.2969 -43.0938 L14.7031 -43.0938 L18.5938 -59 Q19.5 -62.5 22.5938 -62.5938 Q25.2031 -62.5938 25.5 -59.9062 Q25.5 -59.2969 21.4062 -43.0938 L30.2031 -43.0938 Q32.7969 -43.0938 33 -42 Q33 -40.2031 31.4062 -40 L31.2969 -40 L30 -40 L20.5938 -40 Z" stroke="none" />
    </g>
    <g font-size="100" transform="matrix(20,0,0,20,0,0) translate(18.195,1.2836) scale(0.007,0.007)" text-rendering="geometricPrecision" image-rendering="optimizeQuality" color-rendering="optimizeQuality" font-family="&apos;jlm_cmr10&apos;" color-interpolation="linearRGB">
      <path d="M44.9062 -17.4062 L44.9062 -17.4062 L42.0938 0 L5 0 Q5 -2.5 5.5938 -3.2031 L6.0938 -3.7031 L25.2969 -25.0938 Q35.7969 -36.9062 35.7969 -47.2031 Q35.7969 -56.0938 30.4062 -60.7031 L30.2969 -60.7969 L30.2031 -60.7969 Q27 -63.5 22.4062 -63.5 Q15.2031 -63.5 10.9062 -57.2969 Q9.7031 -55.5 8.9062 -53.2969 Q9.2031 -53.4062 10.2031 -53.4062 Q14.2031 -53.4062 15.2969 -49.7969 L15.2969 -49.7031 Q15.5 -49 15.5 -48.2031 Q15.5 -44.2031 11.7031 -43.0938 Q10.9062 -42.9062 10.2969 -42.9062 Q6.5938 -42.9062 5.4062 -46 Q5 -47.0938 5 -48.5 Q5 -56.2031 10.9062 -61.7031 Q16.2031 -66.5938 23.7031 -66.5938 Q34.7031 -66.5938 40.7969 -59.2031 Q44.2969 -54.9062 44.7969 -49 Q44.9062 -48.0938 44.9062 -47.2031 Q44.9062 -39.9062 39.4062 -33.2969 Q36.5 -29.9062 30.4062 -24.2969 L24.2969 -18.9062 L23.2969 -18 L12.7031 -7.7031 L30.7031 -7.7031 Q39.5 -7.7031 40.2031 -8.5 Q41.2031 -9.9062 42.4062 -17.4062 L44.9062 -17.4062 Z" stroke="none" />
    </g>
    <g font-size="100" transform="matrix(20,0,0,20,0,0) translate(18.545,1.1336) scale(0.01,0.01)" text-rendering="geometricPrecision" image-rendering="optimizeQuality" color-rendering="optimizeQuality" font-family="&apos;jlm_cmr10&apos;" color-interpolation="linearRGB">
      <path d="M28.9062 -25 L28.9062 -25 Q28.9062 -8.0938 22.5938 5.5 Q17.4062 16.5938 9.4062 23.2969 Q7.2969 25 6.7031 25 Q5.7031 25 5.7031 24 Q5.7031 23.5 7 22.2969 Q23.0938 5.9062 23.0938 -25 Q23.0938 -55.5 8.0938 -71.2031 L7.5938 -71.7031 Q5.7031 -73.5 5.7031 -74 Q5.7031 -75 6.7031 -75 Q7.9062 -75 12 -70.9062 Q18.2031 -64.7031 22.2969 -56.2031 Q28.9062 -42.5938 28.9062 -25 Z" stroke="none" />
    </g>
    <g font-size="100" transform="matrix(20,0,0,20,0,0) translate(18.9339,1.1336) scale(0.01,0.01)" text-rendering="geometricPrecision" image-rendering="optimizeQuality" color-rendering="optimizeQuality" font-family="&apos;jlm_cmmi10&apos;" color-interpolation="linearRGB">
      <path d="M20.2969 -0.0938 L20.2969 -0.0938 Q20.2969 9.5938 14 16.9062 Q12.2969 18.9062 11.2031 19.2969 Q10.2031 19.2969 10.2031 18.2031 Q10.2031 17.7031 11.2969 16.5938 Q17.2969 10.5938 18 1.9062 Q18.0938 0.9062 18.0938 -0.0938 Q18.0938 -1.5938 17.9062 -1.5938 Q17.7969 -1.5938 17.4062 -1.2969 Q16 0 13.9062 0 Q10.2031 0 9 -3.4062 Q8.5938 -4.2969 8.5938 -5.2969 Q8.5938 -8.9062 11.7031 -10.2031 Q12.7031 -10.5938 13.9062 -10.5938 Q18.2969 -10.5938 19.7969 -4.7969 Q20.2969 -2.7031 20.2969 -0.0938 Z" stroke="none" />
    </g>
    <g font-size="100" transform="matrix(20,0,0,20,0,0) translate(19.3783,1.1336) scale(0.01,0.01)" text-rendering="geometricPrecision" image-rendering="optimizeQuality" color-rendering="optimizeQuality" font-family="&apos;jlm_cmmi10&apos;" color-interpolation="linearRGB">
      <path d="M19.2031 -5.2969 L19.2031 -5.2969 Q19.2031 -2 16.2031 -0.5 Q15.0938 0 13.9062 0 Q10.5938 0 9.0938 -3 Q8.5938 -4.0938 8.5938 -5.2969 Q8.5938 -8.5938 11.5938 -10.0938 Q12.7031 -10.5938 13.9062 -10.5938 Q17.2031 -10.5938 18.7031 -7.5938 Q19.2031 -6.5 19.2031 -5.2969 Z" stroke="none" />
    </g>
    <g font-size="100" transform="matrix(20,0,0,20,0,0) translate(19.6561,1.1336) scale(0.01,0.01)" text-rendering="geometricPrecision" image-rendering="optimizeQuality" color-rendering="optimizeQuality" font-family="&apos;jlm_cmmi10&apos;" color-interpolation="linearRGB">
      <path d="M19.2031 -5.2969 L19.2031 -5.2969 Q19.2031 -2 16.2031 -0.5 Q15.0938 0 13.9062 0 Q10.5938 0 9.0938 -3 Q8.5938 -4.0938 8.5938 -5.2969 Q8.5938 -8.5938 11.5938 -10.0938 Q12.7031 -10.5938 13.9062 -10.5938 Q17.2031 -10.5938 18.7031 -7.5938 Q19.2031 -6.5 19.2031 -5.2969 Z" stroke="none" />
    </g>
    <g font-size="100" transform="matrix(20,0,0,20,0,0) translate(19.9339,1.1336) scale(0.01,0.01)" text-rendering="geometricPrecision" image-rendering="optimizeQuality" color-rendering="optimizeQuality" font-family="&apos;jlm_cmmi10&apos;" color-interpolation="linearRGB">
      <path d="M19.2031 -5.2969 L19.2031 -5.2969 Q19.2031 -2 16.2031 -0.5 Q15.0938 0 13.9062 0 Q10.5938 0 9.0938 -3 Q8.5938 -4.0938 8.5938 -5.2969 Q8.5938 -8.5938 11.5938 -10.0938 Q12.7031 -10.5938 13.9062 -10.5938 Q17.2031 -10.5938 18.7031 -7.5938 Q19.2031 -6.5 19.2031 -5.2969 Z" stroke="none" />
    </g>
    <g font-size="100" transform="matrix(20,0,0,20,0,0) translate(20.2117,1.1336) scale(0.01,0.01)" text-rendering="geometricPrecision" image-rendering="optimizeQuality" color-rendering="optimizeQuality" font-family="&apos;jlm_cmmi10&apos;" color-interpolation="linearRGB">
      <path d="M20.2969 -0.0938 L20.2969 -0.0938 Q20.2969 9.5938 14 16.9062 Q12.2969 18.9062 11.2031 19.2969 Q10.2031 19.2969 10.2031 18.2031 Q10.2031 17.7031 11.2969 16.5938 Q17.2969 10.5938 18 1.9062 Q18.0938 0.9062 18.0938 -0.0938 Q18.0938 -1.5938 17.9062 -1.5938 Q17.7969 -1.5938 17.4062 -1.2969 Q16 0 13.9062 0 Q10.2031 0 9 -3.4062 Q8.5938 -4.2969 8.5938 -5.2969 Q8.5938 -8.9062 11.7031 -10.2031 Q12.7031 -10.5938 13.9062 -10.5938 Q18.2969 -10.5938 19.7969 -4.7969 Q20.2969 -2.7031 20.2969 -0.0938 Z" stroke="none" />
    </g>
    <g font-size="100" transform="matrix(20,0,0,20,0,0) translate(20.6561,1.1336) scale(0.01,0.01)" text-rendering="geometricPrecision" image-rendering="optimizeQuality" color-rendering="optimizeQuality" font-family="&apos;jlm_cmmi10&apos;" color-interpolation="linearRGB">
      <path d="M42.7031 -60.7031 L29.4062 -7.5938 Q29 -6.0938 29 -5.5 Q29 -4 30.5938 -3.5938 L30.7031 -3.5938 Q31.4062 -3.4062 32.7031 -3.2969 Q35.2969 -3.0938 39.0938 -3.0938 Q42.2031 -3.0938 42.4062 -2.5 Q42.5 -2.2969 42.5 -2 Q42.0938 -0.0938 40.2969 0 L31.7031 -0.2031 L31.5938 -0.2031 L23.5 -0.2969 L23.2969 -0.2969 L15 -0.2031 L14.7969 -0.2031 L6.7031 0 L6.5938 0 Q4.9062 0 4.9062 -1.2031 Q4.9062 -2.7031 6 -3 Q6.7031 -3.0938 9.0938 -3.0938 Q18 -3.0938 19.7031 -4.7969 Q20.2969 -5.4062 20.7031 -6.5938 Q20.7031 -6.7969 20.7969 -7.0938 L20.7969 -7.2969 L20.9062 -7.2969 L20.9062 -7.4062 Q20.9062 -7.5 21 -7.9062 L34.4062 -61.2969 Q34.7969 -62.5 34.7969 -63.3906 Q34.7969 -64.2969 33.9062 -64.5 Q33.2969 -64.5938 32 -64.5938 L28.0938 -64.5938 Q17.7969 -64.5938 14 -62.2969 Q11.9062 -61.0938 10.2969 -58.5938 L10.2031 -58.5 L10.2031 -58.4062 L10.0938 -58.4062 Q8 -55.0938 5.2969 -47.2969 Q4.5938 -45.4062 4.0938 -45.2969 Q3.9062 -45.2031 3.5938 -45.2031 Q2.4062 -45.2031 2.4062 -46.2969 Q2.4062 -46.9062 3 -48.0938 L9 -65.7031 Q9.5938 -67.4062 10.4062 -67.5938 Q10.9062 -67.7031 12.2031 -67.7031 L67.7031 -67.7031 Q70.2031 -67.7031 70.4062 -66.5938 Q70.4062 -65.7031 70.2031 -64.9062 L67.5 -47.5 Q67.2031 -45.4062 66 -45.2031 Q64.7969 -45.2031 64.7969 -46.5 Q64.7969 -47.2031 65.0938 -48.4062 Q65.9062 -53.5938 65.9062 -56.4062 Q65.9062 -62.2031 61.7969 -63.7031 Q59.2031 -64.5938 51.2969 -64.5938 Q45.9062 -64.5938 45 -64.4062 Q43.7031 -64.0938 43.0938 -62.2031 L43.0938 -62.0938 Q42.9062 -61.5938 42.7031 -60.7031 Z" stroke="none" />
    </g>
    <g font-size="100" transform="matrix(20,0,0,20,0,0) translate(21.3794,1.1336) scale(0.01,0.01)" text-rendering="geometricPrecision" image-rendering="optimizeQuality" color-rendering="optimizeQuality" font-family="&apos;jlm_cmmi10&apos;" color-interpolation="linearRGB">
      <path d="M30.2969 -32.5 L24.0938 -7.5938 Q23.7031 -6.0938 23.7031 -5.2969 Q23.7031 -3.9062 25 -3.5938 Q25.7031 -3.4062 26.9062 -3.2969 Q29.4062 -3.0938 32.0938 -3.0938 Q34.5938 -3.0938 34.9062 -3 L35.4062 -2.2969 Q35.5 -2.0938 35.5 -1.9062 Q35.5 0 33.4062 0 L18.5938 -0.2969 L18.5 -0.2969 L5.4062 0 L5.2969 0 Q3.7969 0 3.7969 -1.2031 Q3.7969 -2.9062 5.4062 -3.0938 L6.5938 -3.0938 Q13.0938 -3.0938 14.4062 -4.5 Q15 -5.2031 15.5938 -7.2969 Q15.5938 -7.4062 15.7031 -7.7969 L28.9062 -60.7031 Q29.4062 -62.5 29.4062 -63.0938 Q29.4062 -64.7969 24.7969 -64.9062 L24.7031 -64.9062 L22.9062 -64.9062 Q20.2969 -64.9062 20.0938 -66 Q20.0938 -67.7969 21.7031 -68 L23.0938 -68 L72.0938 -68 Q74.5 -68 74.7031 -67.2969 L74.7969 -67.2969 Q75 -66.7031 74.7969 -65.2969 L72.7969 -48 Q72.0938 -45.7031 71.4062 -45.5 Q70.2031 -45.5 70.2031 -46.7031 Q70.2031 -47.2031 70.4062 -48.5 Q70.7031 -51.2031 70.7031 -53.9062 Q70.7031 -60.5938 67.2969 -62.7969 L67.2031 -62.9062 Q64 -64.9062 56.0938 -64.9062 L42.9062 -64.9062 Q39.2031 -64.9062 38.5 -63.7969 L38.4062 -63.7969 L38.4062 -63.7031 Q38.0938 -63.2969 37.9062 -62.5 L37.9062 -62.4062 L37.7969 -62.2969 Q37.7031 -61.9062 37.5 -61 L31.0938 -35.5938 L40.2031 -35.5938 Q47.5 -35.5938 50 -38.2969 L50.0938 -38.4062 Q51.7969 -40.2969 53.0938 -45.2031 Q53.5938 -47.0938 54.5938 -47.2969 Q55.7031 -47.2969 55.7969 -46.2031 Q55.7969 -45.7031 55.5 -44.5938 L50 -22.9062 Q49 -20.9062 48.5 -20.7969 Q47.2969 -20.7969 47.2969 -22 Q47.2969 -22.4062 47.5938 -23.0938 Q48.2969 -26.0938 48.2969 -28 Q48.2969 -30.9062 46.0938 -31.7969 L46.0938 -31.7969 Q44.2031 -32.5 40 -32.5 L30.2969 -32.5 Z" stroke="none" />
    </g>
    <g font-size="100" transform="matrix(20,0,0,20,0,0) translate(22.0224,1.2836) scale(0.007,0.007)" text-rendering="geometricPrecision" image-rendering="optimizeQuality" color-rendering="optimizeQuality" font-family="&apos;jlm_cmmi10&apos;" color-interpolation="linearRGB">
      <path d="M51.5938 -68.2969 L37.2031 -10.5 Q36.5938 -8 36.5938 -5.7031 Q36.5938 -1.0938 39.5938 -1.0938 Q43.4062 -1.0938 46 -9.0938 Q46.5 -10.7969 47.2031 -13.5 Q48 -15.2031 48.5938 -15.2969 Q49.7969 -15.2969 49.7969 -14.2969 Q49.7969 -12.7969 48 -7.2969 Q47.4062 -5.5938 46.7969 -4.4062 Q44 1.0938 39.4062 1.0938 Q33.7969 1.0938 31.2969 -3.7031 Q30.5938 -4.9062 30.2969 -6.4062 Q24 1.0938 17.2969 1.0938 Q9.7969 1.0938 6.2031 -5.7031 Q4 -9.7031 4 -14.9062 Q4 -25.7031 11.5 -34.9062 Q18.5 -43.2969 26.7031 -44.0938 Q27.4062 -44.2031 28.0938 -44.2031 Q34.2031 -44.2031 37.2969 -37.7969 L43.2969 -61.5 L43.5938 -63.5 Q43.5938 -64.5938 42.2031 -64.9062 Q41 -65.2031 38.5938 -65.2031 Q36.4062 -65.2031 36.2031 -66.4062 Q36.2031 -68.0938 37.5938 -68.2969 Q47 -69.4062 50.2969 -69.4062 Q51.5938 -69.4062 51.5938 -68.2969 ZM30.7969 -11.9062 L30.7969 -11.9062 L35.7969 -31.5 Q36.0938 -33 36.0938 -33.2031 Q36.0938 -35.2969 34.2969 -38.2969 Q32.0938 -42 28.2031 -42 Q23 -42 18.2969 -35.2031 Q17.4062 -33.9062 16.5938 -32.4062 Q13.7031 -26.5938 11.7031 -15.9062 Q11.0938 -12.5 11.0938 -10.5 Q11.0938 -3.7031 14.9062 -1.7031 Q16 -1.0938 17.5 -1.0938 Q23.0938 -1.0938 28.7969 -8.2031 Q30.2031 -9.7969 30.7031 -11.5 L30.7031 -11.5938 Q30.7969 -11.7969 30.7969 -11.9062 Z" stroke="none" />
    </g>
    <g font-size="100" transform="matrix(20,0,0,20,0,0) translate(22.3868,1.1336) scale(0.01,0.01)" text-rendering="geometricPrecision" image-rendering="optimizeQuality" color-rendering="optimizeQuality" font-family="&apos;jlm_cmr10&apos;" color-interpolation="linearRGB">
      <path d="M33.0938 24 L33.0938 24 Q33.0938 25 32.0938 25 Q30.9062 25 26.7969 20.9062 Q20.5938 14.7031 16.5 6.2031 Q9.9062 -7.4062 9.9062 -25 Q9.9062 -41.9062 16.2031 -55.5 Q21.4062 -66.5938 29.4062 -73.2969 Q31.5 -75 32.0938 -75 Q33.0938 -75 33.0938 -74 Q33.0938 -73.5 31.7969 -72.2969 Q15.7031 -55.9062 15.7031 -25 Q15.7031 5.7969 31.4062 21.7969 Q33.0938 23.5 33.0938 24 Z" stroke="none" />
    </g>
    <g font-size="100" transform="matrix(20,0,0,20,0,0) translate(22.7757,1.1336) scale(0.01,0.01)" text-rendering="geometricPrecision" image-rendering="optimizeQuality" color-rendering="optimizeQuality" font-family="&apos;jlm_cmmi10&apos;" color-interpolation="linearRGB">
      <path d="M20.5938 -40 L13.2031 -10.5 Q12.5938 -8 12.5938 -5.7031 Q12.5938 -1.0938 15.7031 -1.0938 Q22.2969 -1.0938 27.2969 -10.7969 L28.7031 -13.9062 Q29.2969 -15.2031 30.2031 -15.2969 Q31.4062 -15.2969 31.4062 -14.2969 Q31.4062 -13 28.7969 -8.5938 Q23 1.0938 15.5 1.0938 Q9.7031 1.0938 7.2969 -3.7031 Q6.2969 -5.7031 6.2969 -8.0938 Q6.2969 -10 12.4062 -34 L13.9062 -40 L5.0938 -40 Q2.5938 -40 2.4062 -40.7969 L2.2969 -40.7969 L2.2969 -41.2031 Q2.2969 -42.9062 3.9062 -43.0938 L5.2969 -43.0938 L14.7031 -43.0938 L18.5938 -59 Q19.5 -62.5 22.5938 -62.5938 Q25.2031 -62.5938 25.5 -59.9062 Q25.5 -59.2969 21.4062 -43.0938 L30.2031 -43.0938 Q32.7969 -43.0938 33 -42 Q33 -40.2031 31.4062 -40 L31.2969 -40 L30 -40 L20.5938 -40 Z" stroke="none" />
    </g>
    <g font-size="100" transform="matrix(20,0,0,20,0,0) translate(23.1368,1.2836) scale(0.007,0.007)" text-rendering="geometricPrecision" image-rendering="optimizeQuality" color-rendering="optimizeQuality" font-family="&apos;jlm_cmmi10&apos;" color-interpolation="linearRGB">
      <path d="M92.5938 -60.5938 L79.2969 -7.2969 Q78.7969 -5.5 78.7969 -4.9062 Q78.7969 -3.2031 83.5 -3.0938 L83.5938 -3.0938 L85.2969 -3.0938 Q87.9062 -3.0938 88.0938 -2 Q88.0938 0 86.2031 0 L73.7969 -0.2969 L73.7031 -0.2969 L61.4062 0 L61.2969 0 Q59.7969 0 59.7969 -1.2031 Q59.7969 -2.9062 61.4062 -3.0938 L62.5938 -3.0938 Q69.0938 -3.0938 70.4062 -4.5 Q71 -5.2031 71.5938 -7.2969 Q71.5938 -7.4062 71.7031 -7.7969 L86 -65.0938 L85.9062 -65.0938 L45.5 -1.7969 Q44.2969 -0.0938 43.2969 0 Q42.2031 0 41.7969 -2.2969 L33.2031 -64.2969 L33.0938 -64.2969 L19.5 -9.7969 Q19.0938 -8.2969 19.0938 -7.5 Q19.0938 -3.7969 23.9062 -3.2031 Q24.7969 -3.0938 25.9062 -3.0938 Q27.7031 -3.0938 27.7031 -2 Q27.7031 0 25.9062 0 L15.9062 -0.2969 L15.5938 -0.2969 L5.7031 0 L5.5938 0 Q4.2031 0 4.2031 -1.2031 Q4.2031 -3.0938 6 -3.0938 Q13.9062 -3.4062 16 -8.0938 Q16.4062 -9.0938 16.7969 -10.5938 L29.5 -61.5 Q29.9062 -63.0938 29.9062 -63.4062 Q29.9062 -64.5938 28.2969 -64.9062 L28.2031 -64.9062 L28.2031 -64.9062 Q28 -65 27.7031 -65 Q25.2969 -65.2031 23.4062 -65.2031 Q20.7969 -65.2031 20.5938 -66 Q20.5 -66.2031 20.5 -66.4062 Q20.5 -68.0938 22.2031 -68.2969 L22.2031 -68.2969 L23.5 -68.2969 L37.2031 -68.2969 Q39.5 -68.2969 39.9062 -67.7969 L39.9062 -67.7031 Q40.0938 -67.2969 40.2969 -66 L48.0938 -9.4062 L84.5938 -66.4062 Q85.7031 -68.0938 86.5938 -68.2031 Q87 -68.2969 88.5 -68.2969 L101.7031 -68.2969 Q104.2031 -68.2969 104.4062 -67.2031 Q104.4062 -65.5 103 -65.2969 Q102.5 -65.2031 101.2031 -65.2031 Q94.9062 -65.2031 93.7031 -63.5938 L93.5938 -63.5 L93.5938 -63.4062 Q93.0938 -62.7031 92.5938 -60.5938 Z" stroke="none" />
    </g>
    <g font-size="100" transform="matrix(20,0,0,20,0,0) translate(23.8159,1.1336) scale(0.01,0.01)" text-rendering="geometricPrecision" image-rendering="optimizeQuality" color-rendering="optimizeQuality" font-family="&apos;jlm_cmr10&apos;" color-interpolation="linearRGB">
      <path d="M28.9062 -25 L28.9062 -25 Q28.9062 -8.0938 22.5938 5.5 Q17.4062 16.5938 9.4062 23.2969 Q7.2969 25 6.7031 25 Q5.7031 25 5.7031 24 Q5.7031 23.5 7 22.2969 Q23.0938 5.9062 23.0938 -25 Q23.0938 -55.5 8.0938 -71.2031 L7.5938 -71.7031 Q5.7031 -73.5 5.7031 -74 Q5.7031 -75 6.7031 -75 Q7.9062 -75 12 -70.9062 Q18.2031 -64.7031 22.2969 -56.2031 Q28.9062 -42.5938 28.9062 -25 Z" stroke="none" />
    </g>
    <g font-size="100" transform="matrix(20,0,0,20,0,0) translate(24.427,1.1336) scale(0.01,0.01)" text-rendering="geometricPrecision" image-rendering="optimizeQuality" color-rendering="optimizeQuality" font-family="&apos;jlm_cmsy10&apos;" color-interpolation="linearRGB">
      <path d="M26.0938 -22.9062 L26.0938 -22.9062 L27.5 -7.0938 Q27.7969 -3.4062 24.9062 -3.4062 Q23.0938 -3.4062 22.5 -5 Q22.2969 -5.5 22.4062 -6.0938 L22.4062 -6.5938 L23.7969 -23 L11.2031 -13.7031 Q10 -12.7969 9.2031 -12.7969 Q7.4062 -12.7969 6.7031 -14.5938 Q6.5 -15.0938 6.5 -15.5938 Q6.5 -17.2969 8.5938 -18.2031 L22.7031 -25 L8.5938 -31.7031 Q6.5 -32.5938 6.5 -34.2969 Q6.5 -36.2031 8.4062 -36.9062 Q8.7969 -37.0938 9.2031 -37.0938 Q9.7969 -37.0938 11.2031 -36.0938 L23.7969 -26.9062 L22.4062 -42.7969 L22.4062 -43.9062 Q22 -45.5 23.7969 -46.2031 L23.9062 -46.2969 L24 -46.2969 Q24.5 -46.5 25 -46.5 Q27.7969 -46.5 27.5 -42.9062 L26.0938 -26.9062 L38.7031 -36.2031 Q39.9062 -37.0938 40.7031 -37.0938 Q42.5 -37.0938 43.2031 -35.2969 Q43.4062 -34.7969 43.4062 -34.2969 Q43.4062 -32.5938 41.2969 -31.7031 L27.0938 -24.9062 L41.5938 -18.0938 Q43.4062 -17.2031 43.4062 -15.5938 Q43.4062 -13.7031 41.5 -13 Q41.0938 -12.7969 40.7031 -12.7969 Q39.9062 -12.7969 37 -15 L26.0938 -22.9062 Z" stroke="none" />
    </g>
    <g font-size="100" transform="matrix(20,0,0,20,0,0) translate(25.1492,1.1336) scale(0.01,0.01)" text-rendering="geometricPrecision" image-rendering="optimizeQuality" color-rendering="optimizeQuality" font-family="&apos;jlm_cmmi10&apos;" color-interpolation="linearRGB">
      <path d="M37.4062 -60.5938 L24 -7.2969 Q23.5938 -5.9062 23.5938 -5 Q23.5938 -3.7031 25 -3.4062 L25.0938 -3.4062 L25.2031 -3.4062 Q25.5938 -3.2969 26.0938 -3.2969 Q28.0938 -3.0938 30.4062 -3.0938 Q33.0938 -3.0938 33.2969 -2.4062 Q33.4062 -2.2031 33.4062 -1.9062 Q33.4062 0 31.4062 0 L18.0938 -0.2969 L18 -0.2969 L5 0 L4.9062 0 Q3.4062 0 3.4062 -1.0938 Q3.4062 -2.7969 4.7969 -3 Q5.2969 -3.0938 6.5938 -3.0938 Q13.2969 -3.0938 14.5938 -4.7969 Q15.0938 -5.5 15.7031 -7.7969 L29.2031 -61.7031 Q29.4062 -62.5938 29.4062 -63.2969 Q29.4062 -65.0938 25.2031 -65.2031 L25.0938 -65.2031 L22.5 -65.2031 Q19.9062 -65.2031 19.7031 -66.2969 Q19.7031 -68.2969 21.7031 -68.2969 L34.9062 -68 L35 -68 L48.0938 -68.2969 L48.2031 -68.2969 Q49.7031 -68.2969 49.7031 -67.0938 Q49.7031 -65.4062 48.2969 -65.2969 Q47.7969 -65.2031 46.5 -65.2031 Q39.7969 -65.2031 38.5 -63.5938 Q38 -62.9062 37.4062 -60.5938 Z" stroke="none" />
    </g>
    <g font-size="100" transform="matrix(20,0,0,20,0,0) translate(25.6673,1.1336) scale(0.01,0.01)" text-rendering="geometricPrecision" image-rendering="optimizeQuality" color-rendering="optimizeQuality" font-family="&apos;jlm_cmmi10&apos;" color-interpolation="linearRGB">
      <path d="M15.9062 -7.7969 L15.9062 -7.7969 L29.2969 -61.5 Q29.7031 -63.0938 29.7031 -63.4062 Q29.7031 -64.5938 28.0938 -64.9062 L28 -64.9062 L28 -64.9062 Q27.7969 -65 27.5 -65 Q25.0938 -65.2031 23.2031 -65.2031 Q20.5938 -65.2031 20.4062 -66 Q20.2969 -66.2031 20.2969 -66.4062 Q20.2969 -68.0938 22 -68.2969 L22 -68.2969 L23.2969 -68.2969 L56.9062 -68.2969 Q69.9062 -68.2969 76.2969 -58.2031 Q80.4062 -51.7969 80.4062 -43 Q80.4062 -28.5 70.2969 -15.9062 Q60.7031 -4.2031 47.7031 -1 Q43.7969 0 39.9062 0 L6.7969 0 Q4.2969 0 4.0938 -0.7969 Q4 -0.9062 4 -1.2031 Q4 -2.9062 5.5938 -3.0938 L6.7969 -3.0938 Q13.2969 -3.0938 14.5938 -4.5 Q15.2031 -5.2031 15.7969 -7.2969 Q15.7969 -7.4062 15.9062 -7.7969 ZM37.5 -61.4062 L23.7969 -6.5 Q23.2969 -4.7031 23.2969 -4.2031 Q23.2969 -3.4062 24.2031 -3.2031 L24.2031 -3.2031 L24.2031 -3.2031 L24.5938 -3.2031 Q25.2031 -3.0938 26.7969 -3.0938 L38.0938 -3.0938 Q50.5 -3.0938 59.5 -12.4062 Q60.4062 -13.4062 61.2031 -14.4062 Q69.2031 -24.7969 71.2969 -41.5938 Q71.7031 -44.7031 71.7031 -46.7031 Q71.7031 -60.0938 61.2031 -63.9062 Q57.7969 -65.2031 53.5938 -65.2031 L42.9062 -65.2031 Q39.2969 -65.2031 38.5 -64.2031 L38.5 -64.2031 L38.5 -64.0938 L38.4062 -64.0938 L38.4062 -64 Q38 -63.4062 37.5 -61.4062 Z" stroke="none" />
    </g>
    <g font-size="100" transform="matrix(20,0,0,20,0,0) translate(26.523,1.1336) scale(0.01,0.01)" text-rendering="geometricPrecision" image-rendering="optimizeQuality" color-rendering="optimizeQuality" font-family="&apos;jlm_cmmi10&apos;" color-interpolation="linearRGB">
      <path d="M30.2969 -32.5 L24.0938 -7.5938 Q23.7031 -6.0938 23.7031 -5.2969 Q23.7031 -3.9062 25 -3.5938 Q25.7031 -3.4062 26.9062 -3.2969 Q29.4062 -3.0938 32.0938 -3.0938 Q34.5938 -3.0938 34.9062 -3 L35.4062 -2.2969 Q35.5 -2.0938 35.5 -1.9062 Q35.5 0 33.4062 0 L18.5938 -0.2969 L18.5 -0.2969 L5.4062 0 L5.2969 0 Q3.7969 0 3.7969 -1.2031 Q3.7969 -2.9062 5.4062 -3.0938 L6.5938 -3.0938 Q13.0938 -3.0938 14.4062 -4.5 Q15 -5.2031 15.5938 -7.2969 Q15.5938 -7.4062 15.7031 -7.7969 L28.9062 -60.7031 Q29.4062 -62.5 29.4062 -63.0938 Q29.4062 -64.7969 24.7969 -64.9062 L24.7031 -64.9062 L22.9062 -64.9062 Q20.2969 -64.9062 20.0938 -66 Q20.0938 -67.7969 21.7031 -68 L23.0938 -68 L72.0938 -68 Q74.5 -68 74.7031 -67.2969 L74.7969 -67.2969 Q75 -66.7031 74.7969 -65.2969 L72.7969 -48 Q72.0938 -45.7031 71.4062 -45.5 Q70.2031 -45.5 70.2031 -46.7031 Q70.2031 -47.2031 70.4062 -48.5 Q70.7031 -51.2031 70.7031 -53.9062 Q70.7031 -60.5938 67.2969 -62.7969 L67.2031 -62.9062 Q64 -64.9062 56.0938 -64.9062 L42.9062 -64.9062 Q39.2031 -64.9062 38.5 -63.7969 L38.4062 -63.7969 L38.4062 -63.7031 Q38.0938 -63.2969 37.9062 -62.5 L37.9062 -62.4062 L37.7969 -62.2969 Q37.7031 -61.9062 37.5 -61 L31.0938 -35.5938 L40.2031 -35.5938 Q47.5 -35.5938 50 -38.2969 L50.0938 -38.4062 Q51.7969 -40.2969 53.0938 -45.2031 Q53.5938 -47.0938 54.5938 -47.2969 Q55.7031 -47.2969 55.7969 -46.2031 Q55.7969 -45.7031 55.5 -44.5938 L50 -22.9062 Q49 -20.9062 48.5 -20.7969 Q47.2969 -20.7969 47.2969 -22 Q47.2969 -22.4062 47.5938 -23.0938 Q48.2969 -26.0938 48.2969 -28 Q48.2969 -30.9062 46.0938 -31.7969 L46.0938 -31.7969 Q44.2031 -32.5 40 -32.5 L30.2969 -32.5 Z" stroke="none" />
    </g>
    <g font-size="100" transform="matrix(20,0,0,20,0,0) translate(27.3049,1.1336) scale(0.01,0.01)" text-rendering="geometricPrecision" image-rendering="optimizeQuality" color-rendering="optimizeQuality" font-family="&apos;jlm_cmr10&apos;" color-interpolation="linearRGB">
      <path d="M33.0938 24 L33.0938 24 Q33.0938 25 32.0938 25 Q30.9062 25 26.7969 20.9062 Q20.5938 14.7031 16.5 6.2031 Q9.9062 -7.4062 9.9062 -25 Q9.9062 -41.9062 16.2031 -55.5 Q21.4062 -66.5938 29.4062 -73.2969 Q31.5 -75 32.0938 -75 Q33.0938 -75 33.0938 -74 Q33.0938 -73.5 31.7969 -72.2969 Q15.7031 -55.9062 15.7031 -25 Q15.7031 5.7969 31.4062 21.7969 Q33.0938 23.5 33.0938 24 Z" stroke="none" />
    </g>
    <g font-size="100" transform="matrix(20,0,0,20,0,0) translate(27.6938,1.1336) scale(0.01,0.01)" text-rendering="geometricPrecision" image-rendering="optimizeQuality" color-rendering="optimizeQuality" font-family="&apos;jlm_cmmi10&apos;" color-interpolation="linearRGB">
      <path d="M20.5938 -40 L13.2031 -10.5 Q12.5938 -8 12.5938 -5.7031 Q12.5938 -1.0938 15.7031 -1.0938 Q22.2969 -1.0938 27.2969 -10.7969 L28.7031 -13.9062 Q29.2969 -15.2031 30.2031 -15.2969 Q31.4062 -15.2969 31.4062 -14.2969 Q31.4062 -13 28.7969 -8.5938 Q23 1.0938 15.5 1.0938 Q9.7031 1.0938 7.2969 -3.7031 Q6.2969 -5.7031 6.2969 -8.0938 Q6.2969 -10 12.4062 -34 L13.9062 -40 L5.0938 -40 Q2.5938 -40 2.4062 -40.7969 L2.2969 -40.7969 L2.2969 -41.2031 Q2.2969 -42.9062 3.9062 -43.0938 L5.2969 -43.0938 L14.7031 -43.0938 L18.5938 -59 Q19.5 -62.5 22.5938 -62.5938 Q25.2031 -62.5938 25.5 -59.9062 Q25.5 -59.2969 21.4062 -43.0938 L30.2031 -43.0938 Q32.7969 -43.0938 33 -42 Q33 -40.2031 31.4062 -40 L31.2969 -40 L30 -40 L20.5938 -40 Z" stroke="none" />
    </g>
    <g font-size="100" transform="matrix(20,0,0,20,0,0) translate(28.0549,1.2836) scale(0.007,0.007)" text-rendering="geometricPrecision" image-rendering="optimizeQuality" color-rendering="optimizeQuality" font-family="&apos;jlm_cmmi10&apos;" color-interpolation="linearRGB">
      <path d="M92.5938 -60.5938 L79.2969 -7.2969 Q78.7969 -5.5 78.7969 -4.9062 Q78.7969 -3.2031 83.5 -3.0938 L83.5938 -3.0938 L85.2969 -3.0938 Q87.9062 -3.0938 88.0938 -2 Q88.0938 0 86.2031 0 L73.7969 -0.2969 L73.7031 -0.2969 L61.4062 0 L61.2969 0 Q59.7969 0 59.7969 -1.2031 Q59.7969 -2.9062 61.4062 -3.0938 L62.5938 -3.0938 Q69.0938 -3.0938 70.4062 -4.5 Q71 -5.2031 71.5938 -7.2969 Q71.5938 -7.4062 71.7031 -7.7969 L86 -65.0938 L85.9062 -65.0938 L45.5 -1.7969 Q44.2969 -0.0938 43.2969 0 Q42.2031 0 41.7969 -2.2969 L33.2031 -64.2969 L33.0938 -64.2969 L19.5 -9.7969 Q19.0938 -8.2969 19.0938 -7.5 Q19.0938 -3.7969 23.9062 -3.2031 Q24.7969 -3.0938 25.9062 -3.0938 Q27.7031 -3.0938 27.7031 -2 Q27.7031 0 25.9062 0 L15.9062 -0.2969 L15.5938 -0.2969 L5.7031 0 L5.5938 0 Q4.2031 0 4.2031 -1.2031 Q4.2031 -3.0938 6 -3.0938 Q13.9062 -3.4062 16 -8.0938 Q16.4062 -9.0938 16.7969 -10.5938 L29.5 -61.5 Q29.9062 -63.0938 29.9062 -63.4062 Q29.9062 -64.5938 28.2969 -64.9062 L28.2031 -64.9062 L28.2031 -64.9062 Q28 -65 27.7031 -65 Q25.2969 -65.2031 23.4062 -65.2031 Q20.7969 -65.2031 20.5938 -66 Q20.5 -66.2031 20.5 -66.4062 Q20.5 -68.0938 22.2031 -68.2969 L22.2031 -68.2969 L23.5 -68.2969 L37.2031 -68.2969 Q39.5 -68.2969 39.9062 -67.7969 L39.9062 -67.7031 Q40.0938 -67.2969 40.2969 -66 L48.0938 -9.4062 L84.5938 -66.4062 Q85.7031 -68.0938 86.5938 -68.2031 Q87 -68.2969 88.5 -68.2969 L101.7031 -68.2969 Q104.2031 -68.2969 104.4062 -67.2031 Q104.4062 -65.5 103 -65.2969 Q102.5 -65.2031 101.2031 -65.2031 Q94.9062 -65.2031 93.7031 -63.5938 L93.5938 -63.5 L93.5938 -63.4062 Q93.0938 -62.7031 92.5938 -60.5938 Z" stroke="none" />
    </g>
    <g font-size="100" transform="matrix(20,0,0,20,0,0) translate(28.734,1.1336) scale(0.01,0.01)" text-rendering="geometricPrecision" image-rendering="optimizeQuality" color-rendering="optimizeQuality" font-family="&apos;jlm_cmr10&apos;" color-interpolation="linearRGB">
      <path d="M28.9062 -25 L28.9062 -25 Q28.9062 -8.0938 22.5938 5.5 Q17.4062 16.5938 9.4062 23.2969 Q7.2969 25 6.7031 25 Q5.7031 25 5.7031 24 Q5.7031 23.5 7 22.2969 Q23.0938 5.9062 23.0938 -25 Q23.0938 -55.5 8.0938 -71.2031 L7.5938 -71.7031 Q5.7031 -73.5 5.7031 -74 Q5.7031 -75 6.7031 -75 Q7.9062 -75 12 -70.9062 Q18.2031 -64.7031 22.2969 -56.2031 Q28.9062 -42.5938 28.9062 -25 Z" stroke="none" />
    </g>
    <g font-size="100" transform="matrix(20,0,0,20,0,0) translate(29.1229,1.1336) scale(0.01,0.01)" text-rendering="geometricPrecision" image-rendering="optimizeQuality" color-rendering="optimizeQuality" font-family="&apos;jlm_cmr10&apos;" color-interpolation="linearRGB">
      <path d="M28.9062 -25 L28.9062 -25 Q28.9062 -8.0938 22.5938 5.5 Q17.4062 16.5938 9.4062 23.2969 Q7.2969 25 6.7031 25 Q5.7031 25 5.7031 24 Q5.7031 23.5 7 22.2969 Q23.0938 5.9062 23.0938 -25 Q23.0938 -55.5 8.0938 -71.2031 L7.5938 -71.7031 Q5.7031 -73.5 5.7031 -74 Q5.7031 -75 6.7031 -75 Q7.9062 -75 12 -70.9062 Q18.2031 -64.7031 22.2969 -56.2031 Q28.9062 -42.5938 28.9062 -25 Z" stroke="none" />
    </g>
  </g>
</svg>
