<?xml version="1.0" encoding="UTF-8"?>

<!DOCTYPE svg PUBLIC '-//W3C//DTD SVG 1.0//EN' 'http://www.w3.org/TR/2001/REC-SVG-20010904/DTD/svg10.dtd'>
<svg stroke-dasharray="none" shape-rendering="auto" xmlns="http://www.w3.org/2000/svg" font-family="&apos;Dialog&apos;" width="367" text-rendering="auto" fill-opacity="1" contentScriptType="text/ecmascript" color-interpolation="auto" color-rendering="auto" preserveAspectRatio="xMidYMid meet" font-size="12" fill="black" xmlns:xlink="http://www.w3.org/1999/xlink" stroke="black" image-rendering="auto" stroke-miterlimit="10" zoomAndPan="magnify" version="1.0" stroke-linecap="square" stroke-linejoin="miter" contentStyleType="text/css" font-style="normal" height="53" stroke-width="1" stroke-dashoffset="0" font-weight="normal" stroke-opacity="1">
  <!--Generated by the Batik Graphics2D SVG Generator-->
  <defs id="genericDefs" />
  <g>
    <g font-size="100" transform="scale(20,20) translate(0.15,1.5098) scale(0.01,0.01)" text-rendering="geometricPrecision" image-rendering="optimizeQuality" color-rendering="optimizeQuality" font-family="&apos;jlm_cmmi10&apos;" color-interpolation="linearRGB">
      <path d="M37.4062 -60.5938 L24 -7.2969 Q23.5938 -5.9062 23.5938 -5 Q23.5938 -3.7031 25 -3.4062 L25.0938 -3.4062 L25.2031 -3.4062 Q25.5938 -3.2969 26.0938 -3.2969 Q28.0938 -3.0938 30.4062 -3.0938 Q33.0938 -3.0938 33.2969 -2.4062 Q33.4062 -2.2031 33.4062 -1.9062 Q33.4062 0 31.4062 0 L18.0938 -0.2969 L18 -0.2969 L5 0 L4.9062 0 Q3.4062 0 3.4062 -1.0938 Q3.4062 -2.7969 4.7969 -3 Q5.2969 -3.0938 6.5938 -3.0938 Q13.2969 -3.0938 14.5938 -4.7969 Q15.0938 -5.5 15.7031 -7.7969 L29.2031 -61.7031 Q29.4062 -62.5938 29.4062 -63.2969 Q29.4062 -65.0938 25.2031 -65.2031 L25.0938 -65.2031 L22.5 -65.2031 Q19.9062 -65.2031 19.7031 -66.2969 Q19.7031 -68.2969 21.7031 -68.2969 L34.9062 -68 L35 -68 L48.0938 -68.2969 L48.2031 -68.2969 Q49.7031 -68.2969 49.7031 -67.0938 Q49.7031 -65.4062 48.2969 -65.2969 Q47.7969 -65.2031 46.5 -65.2031 Q39.7969 -65.2031 38.5 -63.5938 Q38 -62.9062 37.4062 -60.5938 Z" stroke="none" />
    </g>
    <g font-size="100" transform="matrix(20,0,0,20,0,0) translate(0.6681,1.5098) scale(0.01,0.01)" text-rendering="geometricPrecision" image-rendering="optimizeQuality" color-rendering="optimizeQuality" font-family="&apos;jlm_cmmi10&apos;" color-interpolation="linearRGB">
      <path d="M15.9062 -7.7969 L15.9062 -7.7969 L29.2969 -61.5 Q29.7031 -63.0938 29.7031 -63.4062 Q29.7031 -64.5938 28.0938 -64.9062 L28 -64.9062 L28 -64.9062 Q27.7969 -65 27.5 -65 Q25.0938 -65.2031 23.2031 -65.2031 Q20.5938 -65.2031 20.4062 -66 Q20.2969 -66.2031 20.2969 -66.4062 Q20.2969 -68.0938 22 -68.2969 L22 -68.2969 L23.2969 -68.2969 L56.9062 -68.2969 Q69.9062 -68.2969 76.2969 -58.2031 Q80.4062 -51.7969 80.4062 -43 Q80.4062 -28.5 70.2969 -15.9062 Q60.7031 -4.2031 47.7031 -1 Q43.7969 0 39.9062 0 L6.7969 0 Q4.2969 0 4.0938 -0.7969 Q4 -0.9062 4 -1.2031 Q4 -2.9062 5.5938 -3.0938 L6.7969 -3.0938 Q13.2969 -3.0938 14.5938 -4.5 Q15.2031 -5.2031 15.7969 -7.2969 Q15.7969 -7.4062 15.9062 -7.7969 ZM37.5 -61.4062 L23.7969 -6.5 Q23.2969 -4.7031 23.2969 -4.2031 Q23.2969 -3.4062 24.2031 -3.2031 L24.2031 -3.2031 L24.2031 -3.2031 L24.5938 -3.2031 Q25.2031 -3.0938 26.7969 -3.0938 L38.0938 -3.0938 Q50.5 -3.0938 59.5 -12.4062 Q60.4062 -13.4062 61.2031 -14.4062 Q69.2031 -24.7969 71.2969 -41.5938 Q71.7031 -44.7031 71.7031 -46.7031 Q71.7031 -60.0938 61.2031 -63.9062 Q57.7969 -65.2031 53.5938 -65.2031 L42.9062 -65.2031 Q39.2969 -65.2031 38.5 -64.2031 L38.5 -64.2031 L38.5 -64.0938 L38.4062 -64.0938 L38.4062 -64 Q38 -63.4062 37.5 -61.4062 Z" stroke="none" />
    </g>
    <g font-size="100" transform="matrix(20,0,0,20,0,0) translate(1.5238,1.5098) scale(0.01,0.01)" text-rendering="geometricPrecision" image-rendering="optimizeQuality" color-rendering="optimizeQuality" font-family="&apos;jlm_cmmi10&apos;" color-interpolation="linearRGB">
      <path d="M30.2969 -32.5 L24.0938 -7.5938 Q23.7031 -6.0938 23.7031 -5.2969 Q23.7031 -3.9062 25 -3.5938 Q25.7031 -3.4062 26.9062 -3.2969 Q29.4062 -3.0938 32.0938 -3.0938 Q34.5938 -3.0938 34.9062 -3 L35.4062 -2.2969 Q35.5 -2.0938 35.5 -1.9062 Q35.5 0 33.4062 0 L18.5938 -0.2969 L18.5 -0.2969 L5.4062 0 L5.2969 0 Q3.7969 0 3.7969 -1.2031 Q3.7969 -2.9062 5.4062 -3.0938 L6.5938 -3.0938 Q13.0938 -3.0938 14.4062 -4.5 Q15 -5.2031 15.5938 -7.2969 Q15.5938 -7.4062 15.7031 -7.7969 L28.9062 -60.7031 Q29.4062 -62.5 29.4062 -63.0938 Q29.4062 -64.7969 24.7969 -64.9062 L24.7031 -64.9062 L22.9062 -64.9062 Q20.2969 -64.9062 20.0938 -66 Q20.0938 -67.7969 21.7031 -68 L23.0938 -68 L72.0938 -68 Q74.5 -68 74.7031 -67.2969 L74.7969 -67.2969 Q75 -66.7031 74.7969 -65.2969 L72.7969 -48 Q72.0938 -45.7031 71.4062 -45.5 Q70.2031 -45.5 70.2031 -46.7031 Q70.2031 -47.2031 70.4062 -48.5 Q70.7031 -51.2031 70.7031 -53.9062 Q70.7031 -60.5938 67.2969 -62.7969 L67.2031 -62.9062 Q64 -64.9062 56.0938 -64.9062 L42.9062 -64.9062 Q39.2031 -64.9062 38.5 -63.7969 L38.4062 -63.7969 L38.4062 -63.7031 Q38.0938 -63.2969 37.9062 -62.5 L37.9062 -62.4062 L37.7969 -62.2969 Q37.7031 -61.9062 37.5 -61 L31.0938 -35.5938 L40.2031 -35.5938 Q47.5 -35.5938 50 -38.2969 L50.0938 -38.4062 Q51.7969 -40.2969 53.0938 -45.2031 Q53.5938 -47.0938 54.5938 -47.2969 Q55.7031 -47.2969 55.7969 -46.2031 Q55.7969 -45.7031 55.5 -44.5938 L50 -22.9062 Q49 -20.9062 48.5 -20.7969 Q47.2969 -20.7969 47.2969 -22 Q47.2969 -22.4062 47.5938 -23.0938 Q48.2969 -26.0938 48.2969 -28 Q48.2969 -30.9062 46.0938 -31.7969 L46.0938 -31.7969 Q44.2031 -32.5 40 -32.5 L30.2969 -32.5 Z" stroke="none" />
    </g>
    <g font-size="100" transform="matrix(20,0,0,20,0,0) translate(2.3057,1.5098) scale(0.01,0.01)" text-rendering="geometricPrecision" image-rendering="optimizeQuality" color-rendering="optimizeQuality" font-family="&apos;jlm_cmr10&apos;" color-interpolation="linearRGB">
      <path d="M33.0938 24 L33.0938 24 Q33.0938 25 32.0938 25 Q30.9062 25 26.7969 20.9062 Q20.5938 14.7031 16.5 6.2031 Q9.9062 -7.4062 9.9062 -25 Q9.9062 -41.9062 16.2031 -55.5 Q21.4062 -66.5938 29.4062 -73.2969 Q31.5 -75 32.0938 -75 Q33.0938 -75 33.0938 -74 Q33.0938 -73.5 31.7969 -72.2969 Q15.7031 -55.9062 15.7031 -25 Q15.7031 5.7969 31.4062 21.7969 Q33.0938 23.5 33.0938 24 Z" stroke="none" />
    </g>
    <g font-size="100" transform="matrix(20,0,0,20,0,0) translate(2.6946,1.5098) scale(0.01,0.01)" text-rendering="geometricPrecision" image-rendering="optimizeQuality" color-rendering="optimizeQuality" font-family="&apos;jlm_cmmi10&apos;" color-interpolation="linearRGB">
      <path d="M20.5938 -40 L13.2031 -10.5 Q12.5938 -8 12.5938 -5.7031 Q12.5938 -1.0938 15.7031 -1.0938 Q22.2969 -1.0938 27.2969 -10.7969 L28.7031 -13.9062 Q29.2969 -15.2031 30.2031 -15.2969 Q31.4062 -15.2969 31.4062 -14.2969 Q31.4062 -13 28.7969 -8.5938 Q23 1.0938 15.5 1.0938 Q9.7031 1.0938 7.2969 -3.7031 Q6.2969 -5.7031 6.2969 -8.0938 Q6.2969 -10 12.4062 -34 L13.9062 -40 L5.0938 -40 Q2.5938 -40 2.4062 -40.7969 L2.2969 -40.7969 L2.2969 -41.2031 Q2.2969 -42.9062 3.9062 -43.0938 L5.2969 -43.0938 L14.7031 -43.0938 L18.5938 -59 Q19.5 -62.5 22.5938 -62.5938 Q25.2031 -62.5938 25.5 -59.9062 Q25.5 -59.2969 21.4062 -43.0938 L30.2031 -43.0938 Q32.7969 -43.0938 33 -42 Q33 -40.2031 31.4062 -40 L31.2969 -40 L30 -40 L20.5938 -40 Z" stroke="none" />
    </g>
    <g font-size="100" transform="matrix(20,0,0,20,0,0) translate(3.0557,1.5098) scale(0.01,0.01)" text-rendering="geometricPrecision" image-rendering="optimizeQuality" color-rendering="optimizeQuality" font-family="&apos;jlm_cmmi10&apos;" color-interpolation="linearRGB">
      <path d="M18.7031 -23.0938 L13.4062 -23.0938 Q11.7969 -16.5938 11.7969 -12.7031 Q11.7969 -4.7969 16.4062 -2.0938 Q18.0938 -1.0938 20.5 -1.0938 Q29.5 -1.0938 36.7031 -7.0938 Q38.7969 -8.7969 40.5 -11 Q41.2031 -12 41.7969 -12 Q42.7031 -12 43 -10.7031 Q43 -9.5938 39.5938 -6.4062 Q31.2969 1.0938 20.2969 1.0938 Q11.2969 1.0938 7.0938 -6.5938 Q4.5938 -11.0938 4.5938 -17 Q4.5938 -30.0938 14.7969 -38.2031 Q22.2969 -44.2031 30.7969 -44.2031 Q38 -44.2031 40.5938 -39.2031 Q41.5 -37.5938 41.5 -35.7031 Q41.5 -30.5 37 -27.0938 L36.9062 -27 Q35.5938 -26.0938 34 -25.4062 Q28.5 -23.0938 18.7031 -23.0938 ZM14 -25.2969 L18.0938 -25.2969 Q38.2031 -25.2969 38.2031 -35.7031 Q38.2031 -39.7031 34.2969 -41.4062 L34.2969 -41.4062 Q32.9062 -41.9062 30.7969 -42 Q25.2031 -42 20.5 -37.4062 Q16 -33 14 -25.2969 Z" stroke="none" />
    </g>
    <g font-size="100" transform="matrix(20,0,0,20,0,0) translate(3.5213,1.5098) scale(0.01,0.01)" text-rendering="geometricPrecision" image-rendering="optimizeQuality" color-rendering="optimizeQuality" font-family="&apos;jlm_cmmi10&apos;" color-interpolation="linearRGB">
      <path d="M8.7969 -5.9062 L8.7969 -5.9062 L14.5938 -29 Q16.2031 -35.4062 16.2031 -37.4062 Q16.2031 -42 13.0938 -42 Q9 -42 6.4062 -32.5 Q6.0938 -31.4062 5.7969 -30.0938 Q4.7031 -27.9062 4.0938 -27.7969 Q2.9062 -27.7969 2.9062 -28.7969 Q2.9062 -30.4062 4.7031 -35.5 Q5.4062 -37.2969 6 -38.5 Q8.4062 -43.4062 12 -44.0938 Q12.7031 -44.2031 13.4062 -44.2031 Q19 -44.2031 21.5 -39.4062 Q22.0938 -38.2969 22.4062 -37 Q22.5 -36.7969 22.5 -36.5 Q28.2969 -43.7031 35.2969 -44.2031 Q40.9062 -44.2031 42.9062 -40.2969 Q43.5938 -39.0938 43.5938 -37.7031 Q43.5938 -33.7969 40.2969 -32.2969 Q39.2031 -31.7969 38.0938 -31.7969 Q35 -31.7969 34.4062 -34.5 Q34.2969 -34.9062 34.2969 -35.2969 Q34.2969 -38.5938 37.7031 -40.2031 L37.7969 -40.2969 Q38.5938 -40.5938 39.5 -40.7969 L37.5 -41.7031 Q36.2031 -41.9062 35.2969 -42 Q31.0938 -42 27.2969 -38.7031 Q24.2031 -35.9062 22 -31.2969 Q21.7969 -30.7969 21.7031 -30.5 L18.5 -17.5 L14.5 -1.7031 Q13.5938 0.9062 10.7969 1.0938 Q8.2969 0.5938 7.9062 -1.5938 Q7.9062 -1.4062 8.7969 -5.9062 Z" stroke="none" />
    </g>
    <g font-size="100" transform="matrix(20,0,0,20,0,0) translate(4.0003,1.5098) scale(0.01,0.01)" text-rendering="geometricPrecision" image-rendering="optimizeQuality" color-rendering="optimizeQuality" font-family="&apos;jlm_cmmi10&apos;" color-interpolation="linearRGB">
      <path d="M8.7969 -5.9062 L8.7969 -5.9062 L14.5938 -29 Q16.2031 -35.4062 16.2031 -37.4062 Q16.2031 -42 13.0938 -42 Q9 -42 6.4062 -32.5 Q6.0938 -31.4062 5.7969 -30.0938 Q4.7031 -27.9062 4.0938 -27.7969 Q2.9062 -27.7969 2.9062 -28.7969 Q2.9062 -30.4062 4.7969 -35.5938 Q5.4062 -37.2969 6 -38.5 Q8.4062 -43.4062 12 -44.0938 Q12.7031 -44.2031 13.4062 -44.2031 Q18.7969 -44.2031 21.4062 -39.7031 Q22.4062 -37.7969 22.5938 -35.5 Q29 -44.2031 38.2031 -44.2031 Q43.2969 -44.2031 46.4062 -41.5938 Q49.2031 -39.2031 49.5938 -34.5 Q56.4062 -44.2031 65.9062 -44.2031 Q74.7969 -44.2031 76.9062 -37.2969 L76.9062 -37.2031 Q77.4062 -35.5 77.4062 -33.5 Q77.4062 -28.2031 71.2969 -11.5 Q69.5 -7.0938 69.5 -4.4062 Q69.5 -1.0938 71.9062 -1.0938 Q78.0938 -1.0938 81.7031 -12.0938 L82.0938 -13.5 Q82.5938 -15.0938 83.0938 -15.2031 L83.0938 -15.2969 L83.5938 -15.2969 Q84.7969 -15.2969 84.7969 -14.2969 Q84.7969 -12.5938 82.7031 -8 Q78.4062 1.0938 71.7031 1.0938 Q66.5938 1.0938 64.4062 -3.2031 Q63.5 -5 63.5 -7.0938 Q63.5 -9.0938 64.7969 -12.5938 Q71 -29 71 -35 Q71 -42 65.5938 -42 Q56.7969 -42 51 -32.5 Q49.4062 -30 49.0938 -28.7031 Q48.7969 -27.4062 43.0938 -4.5938 Q42 -0.2969 40.5938 0.5938 L40.5 0.7031 L40.4062 0.7031 Q39.7031 1.0938 38.5938 1.0938 Q36.0938 0.5938 35.7031 -1.5938 L37 -7.5 L39 -15.0938 L41.7969 -26.7031 Q43.2969 -32.2969 43.2969 -35 Q43.2969 -42 37.9062 -42 Q28.9062 -42 22.7969 -32 Q22.0938 -30.9062 21.5938 -29.7969 L20.2969 -24.7969 Q19.7969 -22.5 18.5938 -18.0938 L16.4062 -9.0938 Q14.7031 -2.2031 14.5 -1.7031 Q13.5938 0.9062 10.7969 1.0938 Q8.2969 0.5938 7.9062 -1.5938 Q7.9062 -1.4062 8.7969 -5.9062 Z" stroke="none" />
    </g>
    <g font-size="100" transform="matrix(20,0,0,20,0,0) translate(4.8783,1.5098) scale(0.01,0.01)" text-rendering="geometricPrecision" image-rendering="optimizeQuality" color-rendering="optimizeQuality" font-family="&apos;jlm_cmr10&apos;" color-interpolation="linearRGB">
      <path d="M28.9062 -25 L28.9062 -25 Q28.9062 -8.0938 22.5938 5.5 Q17.4062 16.5938 9.4062 23.2969 Q7.2969 25 6.7031 25 Q5.7031 25 5.7031 24 Q5.7031 23.5 7 22.2969 Q23.0938 5.9062 23.0938 -25 Q23.0938 -55.5 8.0938 -71.2031 L7.5938 -71.7031 Q5.7031 -73.5 5.7031 -74 Q5.7031 -75 6.7031 -75 Q7.9062 -75 12 -70.9062 Q18.2031 -64.7031 22.2969 -56.2031 Q28.9062 -42.5938 28.9062 -25 Z" stroke="none" />
    </g>
    <g font-size="100" transform="matrix(20,0,0,20,0,0) translate(5.545,1.5098) scale(0.01,0.01)" text-rendering="geometricPrecision" image-rendering="optimizeQuality" color-rendering="optimizeQuality" font-family="&apos;jlm_cmr10&apos;" color-interpolation="linearRGB">
      <path d="M68.7031 -32.7031 L9 -32.7031 Q5.7969 -32.7031 5.5938 -34.7031 Q5.5938 -36.7031 8.9062 -36.7031 L68.7969 -36.7031 Q72 -36.7031 72.0938 -34.7031 Q72.0938 -32.7031 68.7031 -32.7031 ZM68.7969 -13.2969 L8.9062 -13.2969 Q5.7031 -13.2969 5.5938 -15.2969 Q5.5938 -17.2969 9 -17.2969 L68.7031 -17.2969 Q71.9062 -17.2969 72.0938 -15.2969 Q72.0938 -13.2969 68.7969 -13.2969 Z" stroke="none" />
    </g>
    <g font-size="100" transform="matrix(20,0,0,20,0,0) translate(6.6005,1.5098) scale(0.01,0.01)" text-rendering="geometricPrecision" image-rendering="optimizeQuality" color-rendering="optimizeQuality" font-family="&apos;jlm_cmr10&apos;" color-interpolation="linearRGB">
      <path d="M29.4062 -64 L29.4062 -7.9062 Q29.4062 -4.9062 30.5938 -4.0938 Q32.2969 -3.0938 38.7031 -3.0938 L41.9062 -3.0938 L41.9062 0 Q38.4062 -0.2969 25.7031 -0.2969 Q13 -0.2969 9.5 0 L9.5 -3.0938 L12.7031 -3.0938 Q20.4062 -3.0938 21.5 -4.9062 L21.5938 -5 Q22 -5.7969 22 -7.9062 L22 -59.7031 Q16.7969 -57.0938 8.9062 -57.0938 L8.9062 -60.2031 Q20.9062 -60.2031 27.0938 -66.5938 Q29 -66.5938 29.2969 -65.9062 L29.2969 -65.9062 L29.2969 -65.7969 Q29.4062 -65.5 29.4062 -64 Z" stroke="none" />
    </g>
    <g font-size="100" transform="matrix(20,0,0,20,0,0) translate(7.3227,1.5098) scale(0.01,0.01)" text-rendering="geometricPrecision" image-rendering="optimizeQuality" color-rendering="optimizeQuality" font-family="&apos;jlm_cmr10&apos;" color-interpolation="linearRGB">
      <path d="M40.9062 -23 L40.9062 5 Q40.9062 8.2031 38.9062 8.2969 Q36.9062 8.2969 36.9062 5 L36.9062 -23 L8.9062 -23 Q5.7031 -23 5.5938 -25 Q5.5938 -27 8.9062 -27 L36.9062 -27 L36.9062 -55 Q36.9062 -58.2031 38.9062 -58.2969 Q40.9062 -58.2969 40.9062 -55 L40.9062 -27 L68.7969 -27 Q72 -27 72.0938 -25 Q72.0938 -23 68.7969 -23 L40.9062 -23 Z" stroke="none" />
    </g>
    <g font-size="100" transform="matrix(20,0,0,20,0,0) translate(8.3227,1.5098) scale(0.01,0.01)" text-rendering="geometricPrecision" image-rendering="optimizeQuality" color-rendering="optimizeQuality" font-family="&apos;jlm_cmmi10&apos;" color-interpolation="linearRGB">
      <path d="M25.7969 -68.2969 L11.4062 -10.5 Q10.7969 -8.2031 10.7969 -5.7031 Q10.7969 -1.0938 13.7969 -1.0938 Q17.7031 -1.0938 20.2969 -9.7031 Q20.7969 -11.2031 21.4062 -13.5 Q22.2031 -15.2031 22.7969 -15.2969 Q24 -15.2969 24 -14.2969 Q24 -12.7969 22.2031 -7.4062 Q21.5938 -5.7031 21 -4.5 Q18.4062 1.0938 13.5 1.0938 Q8.2969 1.0938 5.7031 -3.0938 Q4.4062 -5.2969 4.4062 -8.0938 Q4.4062 -9.7031 4.9062 -11.5 L17.5 -61.5 L17.7969 -63.5 Q17.7969 -64.5938 16.4062 -64.9062 Q15.2031 -65.2031 12.9062 -65.2031 Q10.5938 -65.2031 10.4062 -66.2969 Q10.4062 -68.0938 12.2969 -68.4062 L24.5 -69.4062 Q25.7969 -69.4062 25.7969 -68.2969 Z" stroke="none" />
    </g>
    <g font-size="100" transform="matrix(20,0,0,20,0,0) translate(8.6408,1.5098) scale(0.01,0.01)" text-rendering="geometricPrecision" image-rendering="optimizeQuality" color-rendering="optimizeQuality" font-family="&apos;jlm_cmmi10&apos;" color-interpolation="linearRGB">
      <path d="M46.9062 -27.2969 Q46.9062 -16.7031 38.7969 -8 Q31.0938 0.4062 21.5 1 Q20.7969 1.0938 20.0938 1.0938 Q11.4062 1.0938 6.9062 -5.7969 Q4.0938 -10.0938 4.0938 -15.7969 Q4.0938 -26.0938 12.0938 -34.9062 Q19.7031 -43.2969 29.2969 -44.0938 Q30.0938 -44.2031 30.9062 -44.2031 Q39.5 -44.2031 44 -37.5 Q46.9062 -33.2031 46.9062 -27.2969 ZM20.2031 -1.0938 L20.2031 -1.0938 Q26.0938 -1.0938 31.2969 -6.9062 Q32.7031 -8.5 33.7969 -10.2969 Q38 -17.5 39.4062 -28.2031 Q39.5 -29 39.5 -29.7969 L39.5 -29.9062 L39.5938 -30 L39.5938 -31.2031 Q39.5938 -38.5938 34.7031 -41.0938 Q33 -42 30.7969 -42 Q24.7031 -42 19.2969 -35.5938 Q18.5938 -34.7031 18 -33.7969 Q17.5938 -33.2969 17.2969 -32.7969 Q13.7031 -27 12 -16.5938 Q11.5 -13.7969 11.5 -12 Q11.5 -3.7031 17.2969 -1.5938 Q18.7031 -1.0938 20.2031 -1.0938 Z" stroke="none" />
    </g>
    <g font-size="100" transform="matrix(20,0,0,20,0,0) translate(9.1255,1.5098) scale(0.01,0.01)" text-rendering="geometricPrecision" image-rendering="optimizeQuality" color-rendering="optimizeQuality" font-family="&apos;jlm_cmmi10&apos;" color-interpolation="linearRGB">
      <path d="M47.0938 -37.7031 L47.0938 -37.7031 L36 6.7031 Q34.5 12.7031 28.2031 16.7969 Q22.4062 20.5 14.7969 20.5 Q2.5 20.5 1.5938 15.5 Q1.5 15 1.5 14.4062 Q1.5 10.2969 5.2031 8.9062 Q6.0938 8.5938 6.9062 8.5938 Q10 8.5938 10.5938 11.2969 Q10.7031 11.7031 10.7031 12.0938 Q10.7031 15.2969 7.7031 16.9062 Q7.2031 17.0938 6.5938 17.2969 Q9.7031 18.2969 14.5938 18.2969 Q24.4062 18.2969 29 7.5 L32.2969 -5.7031 L32.2031 -5.7969 Q27.7031 -0.7969 22.0938 -0.0938 Q21.2969 0 20.5938 0 Q13.5938 0 9.7969 -6.0938 Q7.2969 -10.2031 7.2969 -15.7969 Q7.2969 -26.5 14.9062 -35.4062 Q21.9062 -43.5938 30 -44.2031 L31.0938 -44.2031 Q36.5 -44.2031 39.7969 -39.0938 L40.4062 -37.9062 Q41.2969 -41.7031 44.5 -42.2031 Q47.0938 -42.2031 47.4062 -39.5 L47.0938 -37.7031 ZM34.0938 -12.7969 L34.0938 -12.7969 L38.9062 -31.9062 Q39.2031 -33.0938 39.2031 -33.4062 Q39.2031 -35.4062 37.5 -38.2031 L37.5 -38.2031 Q36.2969 -40.2031 34.5 -41.2031 Q33 -42 31.2031 -42 Q26 -42 21.2969 -35.2969 Q20.5938 -34.2031 20 -33.0938 Q16.7969 -27.0938 14.9062 -16.4062 Q14.4062 -13.2969 14.4062 -11.4062 Q14.4062 -4.7969 18.2031 -2.7969 Q19.2969 -2.2031 20.9062 -2.2031 Q24.7969 -2.2031 29 -5.7969 Q33.4062 -9.5938 34.0938 -12.7969 Z" stroke="none" />
    </g>
    <g font-size="100" transform="matrix(20,0,0,20,0,0) translate(9.6384,1.5098) scale(0.01,0.01)" text-rendering="geometricPrecision" image-rendering="optimizeQuality" color-rendering="optimizeQuality" font-family="&apos;jlm_cmr10&apos;" color-interpolation="linearRGB">
      <path d="M33.0938 24 L33.0938 24 Q33.0938 25 32.0938 25 Q30.9062 25 26.7969 20.9062 Q20.5938 14.7031 16.5 6.2031 Q9.9062 -7.4062 9.9062 -25 Q9.9062 -41.9062 16.2031 -55.5 Q21.4062 -66.5938 29.4062 -73.2969 Q31.5 -75 32.0938 -75 Q33.0938 -75 33.0938 -74 Q33.0938 -73.5 31.7969 -72.2969 Q15.7031 -55.9062 15.7031 -25 Q15.7031 5.7969 31.4062 21.7969 Q33.0938 23.5 33.0938 24 Z" stroke="none" />
    </g>
    <g font-size="100" transform="matrix(20,0,0,20,0,0) translate(13.5152,0.8333) scale(0.01,0.01)" text-rendering="geometricPrecision" image-rendering="optimizeQuality" color-rendering="optimizeQuality" font-family="&apos;jlm_cmmi10&apos;" color-interpolation="linearRGB">
      <path d="M75.5938 -57.7969 L61.5938 -2.0938 Q61.0938 -0.2031 60.5938 -0.0938 L60.5 0 L60 0 Q59 0 58.4062 -1.2031 Q58.2969 -1.5 58.0938 -1.9062 L33.2031 -60.7969 L32.2969 -62.5938 L19.0938 -9.7969 Q18.7031 -8.2969 18.7031 -7.5 Q18.7031 -4.0938 23 -3.2969 Q24 -3.0938 25.2969 -3.0938 Q27.2969 -3.0938 27.2969 -2 Q27.2969 0 25.5 0 L15.5 -0.2969 L15.2031 -0.2969 L5.2969 0 L5.2031 0 Q3.9062 0 3.9062 -1.0938 Q3.9062 -3.0938 5.5938 -3.0938 Q13.5 -3.4062 15.5938 -8.0938 Q16 -9.0938 16.4062 -10.5938 L29.7969 -64.2969 Q29.7969 -65.2031 23 -65.2031 Q20.4062 -65.2031 20.2031 -66.2969 Q20.2031 -68.0938 21.7031 -68.2969 L23.0938 -68.2969 L36.5 -68.2969 Q38.5938 -68.2969 39.0938 -67.5938 Q39.2969 -67.2969 39.7031 -66.4062 L61.7969 -14.2031 L73 -58.7031 Q73.2969 -59.5938 73.2969 -60.7969 Q73.2969 -65.0938 66.5 -65.2031 Q64.7031 -65.2031 64.7031 -66.2969 Q64.7031 -68.2969 66.5 -68.2969 L76.5938 -68 L76.7031 -68 L86.7031 -68.2969 L86.7969 -68.2969 Q88.0938 -68.2969 88.0938 -67.2031 Q88.0938 -65.2031 86.4062 -65.2031 Q78.5938 -64.9062 76.4062 -60.2969 L76.4062 -60.2969 Q76 -59.2969 75.5938 -57.7969 Z" stroke="none" />
    </g>
    <g font-size="100" transform="matrix(20,0,0,20,0,0)" text-rendering="geometricPrecision" image-rendering="optimizeQuality" color-rendering="optimizeQuality" font-family="&apos;jlm_cmmi10&apos;" color-interpolation="linearRGB">
      <rect width="7.5394" x="10.1473" height="0.04" y="1.2398" stroke="none" />
      <path d="M15.9062 -7.7969 L15.9062 -7.7969 L29.2969 -61.5 Q29.7031 -63.0938 29.7031 -63.4062 Q29.7031 -64.5938 28.0938 -64.9062 L28 -64.9062 L28 -64.9062 Q27.7969 -65 27.5 -65 Q25.0938 -65.2031 23.2031 -65.2031 Q20.5938 -65.2031 20.4062 -66 Q20.2969 -66.2031 20.2969 -66.4062 Q20.2969 -68.0938 22 -68.2969 L22 -68.2969 L23.2969 -68.2969 L56.9062 -68.2969 Q69.9062 -68.2969 76.2969 -58.2031 Q80.4062 -51.7969 80.4062 -43 Q80.4062 -28.5 70.2969 -15.9062 Q60.7031 -4.2031 47.7031 -1 Q43.7969 0 39.9062 0 L6.7969 0 Q4.2969 0 4.0938 -0.7969 Q4 -0.9062 4 -1.2031 Q4 -2.9062 5.5938 -3.0938 L6.7969 -3.0938 Q13.2969 -3.0938 14.5938 -4.5 Q15.2031 -5.2031 15.7969 -7.2969 Q15.7969 -7.4062 15.9062 -7.7969 ZM37.5 -61.4062 L23.7969 -6.5 Q23.2969 -4.7031 23.2969 -4.2031 Q23.2969 -3.4062 24.2031 -3.2031 L24.2031 -3.2031 L24.2031 -3.2031 L24.5938 -3.2031 Q25.2031 -3.0938 26.7969 -3.0938 L38.0938 -3.0938 Q50.5 -3.0938 59.5 -12.4062 Q60.4062 -13.4062 61.2031 -14.4062 Q69.2031 -24.7969 71.2969 -41.5938 Q71.7031 -44.7031 71.7031 -46.7031 Q71.7031 -60.0938 61.2031 -63.9062 Q57.7969 -65.2031 53.5938 -65.2031 L42.9062 -65.2031 Q39.2969 -65.2031 38.5 -64.2031 L38.5 -64.2031 L38.5 -64.0938 L38.4062 -64.0938 L38.4062 -64 Q38 -63.4062 37.5 -61.4062 Z" transform="translate(10.1473,2.1958) scale(0.01,0.01)" stroke="none" />
    </g>
    <g font-size="100" transform="matrix(20,0,0,20,0,0) translate(11.003,2.1958) scale(0.01,0.01)" text-rendering="geometricPrecision" image-rendering="optimizeQuality" color-rendering="optimizeQuality" font-family="&apos;jlm_cmmi10&apos;" color-interpolation="linearRGB">
      <path d="M46.9062 -27.2969 Q46.9062 -16.7031 38.7969 -8 Q31.0938 0.4062 21.5 1 Q20.7969 1.0938 20.0938 1.0938 Q11.4062 1.0938 6.9062 -5.7969 Q4.0938 -10.0938 4.0938 -15.7969 Q4.0938 -26.0938 12.0938 -34.9062 Q19.7031 -43.2969 29.2969 -44.0938 Q30.0938 -44.2031 30.9062 -44.2031 Q39.5 -44.2031 44 -37.5 Q46.9062 -33.2031 46.9062 -27.2969 ZM20.2031 -1.0938 L20.2031 -1.0938 Q26.0938 -1.0938 31.2969 -6.9062 Q32.7031 -8.5 33.7969 -10.2969 Q38 -17.5 39.4062 -28.2031 Q39.5 -29 39.5 -29.7969 L39.5 -29.9062 L39.5938 -30 L39.5938 -31.2031 Q39.5938 -38.5938 34.7031 -41.0938 Q33 -42 30.7969 -42 Q24.7031 -42 19.2969 -35.5938 Q18.5938 -34.7031 18 -33.7969 Q17.5938 -33.2969 17.2969 -32.7969 Q13.7031 -27 12 -16.5938 Q11.5 -13.7969 11.5 -12 Q11.5 -3.7031 17.2969 -1.5938 Q18.7031 -1.0938 20.2031 -1.0938 Z" stroke="none" />
    </g>
    <g font-size="100" transform="matrix(20,0,0,20,0,0) translate(11.4877,2.1958) scale(0.01,0.01)" text-rendering="geometricPrecision" image-rendering="optimizeQuality" color-rendering="optimizeQuality" font-family="&apos;jlm_cmmi10&apos;" color-interpolation="linearRGB">
      <path d="M39.5938 -38 L39.5938 -38 Q36.7969 -41.5938 31 -42 Q24.5 -42 19.2031 -35.4062 Q17.9062 -33.7969 16.9062 -32 Q12.9062 -24.7031 11.7031 -14.7969 Q11.5 -13.2031 11.5 -12 Q11.5 -3.7969 17.0938 -1.7031 Q18.5 -1.0938 20.5 -1.0938 Q29.5 -1.0938 36.7031 -7.0938 Q38.7969 -8.7969 40.5 -11 Q41.2031 -12 41.7969 -12 Q42.7031 -12 43 -10.7031 Q43 -9.5938 39.5938 -6.4062 Q31.2969 1.0938 20.2969 1.0938 Q10.7969 1.0938 6.5 -6.5 Q4.0938 -10.5938 4.0938 -15.7969 Q4.0938 -26 11.9062 -34.7031 Q19.5938 -43.2969 29.0938 -44.0938 Q30 -44.2031 30.9062 -44.2031 Q38.5938 -44.2031 41.5938 -39.5 Q42.7031 -37.7031 42.7031 -35.5938 Q42.7031 -31.2031 39.2031 -29.5938 Q38.2031 -29.2031 37.0938 -29.2031 Q34.0938 -29.2031 33.5 -31.7969 Q33.4062 -32.2031 33.4062 -32.7031 Q33.4062 -34.9062 35.2031 -36.5938 Q36.5938 -38 39.5938 -38 Z" stroke="none" />
    </g>
    <g font-size="100" transform="matrix(20,0,0,20,0,0) translate(11.9204,2.1958) scale(0.01,0.01)" text-rendering="geometricPrecision" image-rendering="optimizeQuality" color-rendering="optimizeQuality" font-family="&apos;jlm_cmmi10&apos;" color-interpolation="linearRGB">
      <path d="M76 -69.5 L69.7031 -44 Q69.2031 -42.2031 68.7031 -42.0938 L68.5938 -42 L67.9062 -42 Q66.4062 -42 66.4062 -43 L66.7031 -47.9062 L66.7031 -48.0938 Q66.7031 -60.5 58.9062 -65.2031 L58.7969 -65.2969 Q55.2969 -67.4062 50.5938 -67.4062 Q40 -67.4062 30.5 -59.5 Q28.0938 -57.5938 26.2031 -55.2969 Q16.7031 -44.2031 14.5 -27.0938 Q14.0938 -24 14.0938 -21.7031 Q14.0938 -7.7031 24.7031 -2.7969 Q28.7969 -0.9062 33.7031 -0.9062 Q43.0938 -0.9062 52.0938 -8.2031 Q59.0938 -14.0938 62.2031 -24 Q62.4062 -25 63.5 -25 Q64.7031 -25 64.7031 -24 Q64.7031 -22.2031 62.4062 -17.5938 Q59.2969 -11.2969 53.7031 -6.4062 Q43.7969 2.2031 32.0938 2.2031 Q19.2969 2.2031 11.5938 -6.5938 Q5 -14.0938 5 -25.2031 Q5 -40.0938 15.9062 -53.0938 Q26 -65.2031 39.7969 -69.0938 Q44.9062 -70.5 49.7969 -70.5 Q60.7031 -70.5 66.4062 -61.5938 L73.4062 -69.2969 Q74.5938 -70.5 74.9062 -70.5 Q76 -70.5 76 -69.5 Z" stroke="none" />
    </g>
    <g font-size="100" transform="matrix(20,0,0,20,0,0) translate(12.7067,2.1958) scale(0.01,0.01)" text-rendering="geometricPrecision" image-rendering="optimizeQuality" color-rendering="optimizeQuality" font-family="&apos;jlm_cmmi10&apos;" color-interpolation="linearRGB">
      <path d="M46.9062 -27.2969 Q46.9062 -16.7031 38.7969 -8 Q31.0938 0.4062 21.5 1 Q20.7969 1.0938 20.0938 1.0938 Q11.4062 1.0938 6.9062 -5.7969 Q4.0938 -10.0938 4.0938 -15.7969 Q4.0938 -26.0938 12.0938 -34.9062 Q19.7031 -43.2969 29.2969 -44.0938 Q30.0938 -44.2031 30.9062 -44.2031 Q39.5 -44.2031 44 -37.5 Q46.9062 -33.2031 46.9062 -27.2969 ZM20.2031 -1.0938 L20.2031 -1.0938 Q26.0938 -1.0938 31.2969 -6.9062 Q32.7031 -8.5 33.7969 -10.2969 Q38 -17.5 39.4062 -28.2031 Q39.5 -29 39.5 -29.7969 L39.5 -29.9062 L39.5938 -30 L39.5938 -31.2031 Q39.5938 -38.5938 34.7031 -41.0938 Q33 -42 30.7969 -42 Q24.7031 -42 19.2969 -35.5938 Q18.5938 -34.7031 18 -33.7969 Q17.5938 -33.2969 17.2969 -32.7969 Q13.7031 -27 12 -16.5938 Q11.5 -13.7969 11.5 -12 Q11.5 -3.7031 17.2969 -1.5938 Q18.7031 -1.0938 20.2031 -1.0938 Z" stroke="none" />
    </g>
    <g font-size="100" transform="matrix(20,0,0,20,0,0) translate(13.1914,2.1958) scale(0.01,0.01)" text-rendering="geometricPrecision" image-rendering="optimizeQuality" color-rendering="optimizeQuality" font-family="&apos;jlm_cmmi10&apos;" color-interpolation="linearRGB">
      <path d="M35 -5.5938 L35 -5.5938 Q29.7969 1.0938 23.0938 1.0938 Q15 1.0938 12.0938 -4.7969 Q10.7969 -7.4062 10.7969 -10.9062 Q10.7969 -16.2969 16.0938 -30.5 Q16.2969 -31.2031 16.5938 -31.9062 Q18.2969 -36.2031 18.2969 -38.7031 Q18.2969 -42 15.7969 -42 Q10.2031 -42 6.7031 -32.5 Q6.5938 -32.5 6.5938 -32.4062 L6.5938 -32.2969 Q6.0938 -31 5.7031 -29.5938 Q4.5938 -27.9062 4.0938 -27.7969 Q2.9062 -27.7969 2.9062 -28.7969 Q2.9062 -30.5938 5 -35.0938 Q9.4062 -44.2031 16.0938 -44.2031 Q21.4062 -44.2031 23.5 -39.7031 Q24.2969 -38 24.2969 -36 Q24.2969 -34 22.5938 -29.7031 Q17.2031 -15.4062 17.2031 -9.2969 Q17.2031 -1.0938 23.4062 -1.0938 Q29.7031 -1.0938 34 -8 Q34.5938 -8.9062 34.7969 -9.5 Q37 -19.4062 42.2969 -39.5938 Q43.0938 -43.0938 46.2031 -43.0938 Q48.7031 -42.5938 49.0938 -40.4062 Q49.0938 -40.5938 47.5938 -33.7031 Q46.2031 -28.5938 45.9062 -26.9062 L43.0938 -16.0938 Q41.0938 -7.4062 41.0938 -5.7031 Q41.0938 -1.0938 44.2031 -1.0938 Q48.4062 -1.0938 51.0938 -11.0938 Q51.4062 -12.0938 51.7031 -13.5 Q52.5 -15.2031 53.0938 -15.2969 Q54.2969 -15.2969 54.2969 -14.2969 Q54.2969 -12.7969 52.5 -7.2969 Q51.9062 -5.5938 51.2969 -4.4062 Q48.5938 1.0938 43.9062 1.0938 Q38.2031 1.0938 35.7969 -3.7031 Q35.2969 -4.5938 35 -5.5938 Z" stroke="none" />
    </g>
    <g font-size="100" transform="matrix(20,0,0,20,0,0) translate(13.7639,2.1958) scale(0.01,0.01)" text-rendering="geometricPrecision" image-rendering="optimizeQuality" color-rendering="optimizeQuality" font-family="&apos;jlm_cmmi10&apos;" color-interpolation="linearRGB">
      <path d="M8.7969 -5.9062 L8.7969 -5.9062 L14.5938 -29 Q16.2031 -35.4062 16.2031 -37.4062 Q16.2031 -42 13.0938 -42 Q9 -42 6.4062 -32.5 Q6.0938 -31.4062 5.7969 -30.0938 Q4.7031 -27.9062 4.0938 -27.7969 Q2.9062 -27.7969 2.9062 -28.7969 Q2.9062 -30.4062 4.9062 -36 L4.9062 -36.0938 Q4.9062 -36.2031 5 -36.2031 L5 -36.2969 L5 -36.4062 L5.9062 -38.5 Q8.0938 -42.5 10.4062 -43.5 Q11.7969 -44.2031 13.4062 -44.2031 Q19 -44.2031 21.5 -39.5 Q22.4062 -37.7031 22.5938 -35.5 Q29 -44.2031 38.2031 -44.2031 Q46.7969 -44.2031 49.0938 -37.5938 Q49.7031 -35.7969 49.7031 -33.5 Q49.7031 -28.4062 43.5938 -11.5 Q41.7969 -7.0938 41.7969 -4.4062 Q41.7969 -1.0938 44.2031 -1.0938 Q50.7969 -1.0938 54.4062 -13.5 Q54.9062 -15.0938 55.4062 -15.2031 L55.4062 -15.2969 L55.9062 -15.2969 Q57.0938 -15.2969 57.0938 -14.2969 Q57.0938 -12.5938 55 -8 Q50.7031 1.0938 44 1.0938 Q38.9062 1.0938 36.7031 -3.2031 Q35.7969 -5 35.7969 -7.0938 Q35.7969 -9.0938 36.7969 -11.7031 Q43.2969 -29.2031 43.2969 -35 Q43.2969 -42 37.9062 -42 Q28.9062 -42 22.7969 -32 Q22.0938 -30.9062 21.5938 -29.7969 L20.2969 -24.7969 Q19.7969 -22.5 18.5938 -18.0938 L16.4062 -9.0938 Q14.7031 -2.2031 14.5 -1.7031 Q13.5938 0.9062 10.7969 1.0938 Q8.2969 0.5938 7.9062 -1.5938 Q7.9062 -1.4062 8.7969 -5.9062 Z" stroke="none" />
    </g>
    <g font-size="100" transform="matrix(20,0,0,20,0,0) translate(14.3641,2.1958) scale(0.01,0.01)" text-rendering="geometricPrecision" image-rendering="optimizeQuality" color-rendering="optimizeQuality" font-family="&apos;jlm_cmmi10&apos;" color-interpolation="linearRGB">
      <path d="M20.5938 -40 L13.2031 -10.5 Q12.5938 -8 12.5938 -5.7031 Q12.5938 -1.0938 15.7031 -1.0938 Q22.2969 -1.0938 27.2969 -10.7969 L28.7031 -13.9062 Q29.2969 -15.2031 30.2031 -15.2969 Q31.4062 -15.2969 31.4062 -14.2969 Q31.4062 -13 28.7969 -8.5938 Q23 1.0938 15.5 1.0938 Q9.7031 1.0938 7.2969 -3.7031 Q6.2969 -5.7031 6.2969 -8.0938 Q6.2969 -10 12.4062 -34 L13.9062 -40 L5.0938 -40 Q2.5938 -40 2.4062 -40.7969 L2.2969 -40.7969 L2.2969 -41.2031 Q2.2969 -42.9062 3.9062 -43.0938 L5.2969 -43.0938 L14.7031 -43.0938 L18.5938 -59 Q19.5 -62.5 22.5938 -62.5938 Q25.2031 -62.5938 25.5 -59.9062 Q25.5 -59.2969 21.4062 -43.0938 L30.2031 -43.0938 Q32.7969 -43.0938 33 -42 Q33 -40.2031 31.4062 -40 L31.2969 -40 L30 -40 L20.5938 -40 Z" stroke="none" />
    </g>
    <g font-size="100" transform="matrix(20,0,0,20,0,0) translate(14.7252,2.1958) scale(0.01,0.01)" text-rendering="geometricPrecision" image-rendering="optimizeQuality" color-rendering="optimizeQuality" font-family="&apos;jlm_cmr10&apos;" color-interpolation="linearRGB">
      <path d="M33.0938 24 L33.0938 24 Q33.0938 25 32.0938 25 Q30.9062 25 26.7969 20.9062 Q20.5938 14.7031 16.5 6.2031 Q9.9062 -7.4062 9.9062 -25 Q9.9062 -41.9062 16.2031 -55.5 Q21.4062 -66.5938 29.4062 -73.2969 Q31.5 -75 32.0938 -75 Q33.0938 -75 33.0938 -74 Q33.0938 -73.5 31.7969 -72.2969 Q15.7031 -55.9062 15.7031 -25 Q15.7031 5.7969 31.4062 21.7969 Q33.0938 23.5 33.0938 24 Z" stroke="none" />
    </g>
    <g font-size="100" transform="matrix(20,0,0,20,0,0) translate(15.1141,2.1958) scale(0.01,0.01)" text-rendering="geometricPrecision" image-rendering="optimizeQuality" color-rendering="optimizeQuality" font-family="&apos;jlm_cmmi10&apos;" color-interpolation="linearRGB">
      <path d="M20.5938 -40 L13.2031 -10.5 Q12.5938 -8 12.5938 -5.7031 Q12.5938 -1.0938 15.7031 -1.0938 Q22.2969 -1.0938 27.2969 -10.7969 L28.7031 -13.9062 Q29.2969 -15.2031 30.2031 -15.2969 Q31.4062 -15.2969 31.4062 -14.2969 Q31.4062 -13 28.7969 -8.5938 Q23 1.0938 15.5 1.0938 Q9.7031 1.0938 7.2969 -3.7031 Q6.2969 -5.7031 6.2969 -8.0938 Q6.2969 -10 12.4062 -34 L13.9062 -40 L5.0938 -40 Q2.5938 -40 2.4062 -40.7969 L2.2969 -40.7969 L2.2969 -41.2031 Q2.2969 -42.9062 3.9062 -43.0938 L5.2969 -43.0938 L14.7031 -43.0938 L18.5938 -59 Q19.5 -62.5 22.5938 -62.5938 Q25.2031 -62.5938 25.5 -59.9062 Q25.5 -59.2969 21.4062 -43.0938 L30.2031 -43.0938 Q32.7969 -43.0938 33 -42 Q33 -40.2031 31.4062 -40 L31.2969 -40 L30 -40 L20.5938 -40 Z" stroke="none" />
    </g>
    <g font-size="100" transform="matrix(20,0,0,20,0,0) translate(15.4752,2.1958) scale(0.01,0.01)" text-rendering="geometricPrecision" image-rendering="optimizeQuality" color-rendering="optimizeQuality" font-family="&apos;jlm_cmmi10&apos;" color-interpolation="linearRGB">
      <path d="M18.7031 -23.0938 L13.4062 -23.0938 Q11.7969 -16.5938 11.7969 -12.7031 Q11.7969 -4.7969 16.4062 -2.0938 Q18.0938 -1.0938 20.5 -1.0938 Q29.5 -1.0938 36.7031 -7.0938 Q38.7969 -8.7969 40.5 -11 Q41.2031 -12 41.7969 -12 Q42.7031 -12 43 -10.7031 Q43 -9.5938 39.5938 -6.4062 Q31.2969 1.0938 20.2969 1.0938 Q11.2969 1.0938 7.0938 -6.5938 Q4.5938 -11.0938 4.5938 -17 Q4.5938 -30.0938 14.7969 -38.2031 Q22.2969 -44.2031 30.7969 -44.2031 Q38 -44.2031 40.5938 -39.2031 Q41.5 -37.5938 41.5 -35.7031 Q41.5 -30.5 37 -27.0938 L36.9062 -27 Q35.5938 -26.0938 34 -25.4062 Q28.5 -23.0938 18.7031 -23.0938 ZM14 -25.2969 L18.0938 -25.2969 Q38.2031 -25.2969 38.2031 -35.7031 Q38.2031 -39.7031 34.2969 -41.4062 L34.2969 -41.4062 Q32.9062 -41.9062 30.7969 -42 Q25.2031 -42 20.5 -37.4062 Q16 -33 14 -25.2969 Z" stroke="none" />
    </g>
    <g font-size="100" transform="matrix(20,0,0,20,0,0) translate(15.9408,2.1958) scale(0.01,0.01)" text-rendering="geometricPrecision" image-rendering="optimizeQuality" color-rendering="optimizeQuality" font-family="&apos;jlm_cmmi10&apos;" color-interpolation="linearRGB">
      <path d="M8.7969 -5.9062 L8.7969 -5.9062 L14.5938 -29 Q16.2031 -35.4062 16.2031 -37.4062 Q16.2031 -42 13.0938 -42 Q9 -42 6.4062 -32.5 Q6.0938 -31.4062 5.7969 -30.0938 Q4.7031 -27.9062 4.0938 -27.7969 Q2.9062 -27.7969 2.9062 -28.7969 Q2.9062 -30.4062 4.7031 -35.5 Q5.4062 -37.2969 6 -38.5 Q8.4062 -43.4062 12 -44.0938 Q12.7031 -44.2031 13.4062 -44.2031 Q19 -44.2031 21.5 -39.4062 Q22.0938 -38.2969 22.4062 -37 Q22.5 -36.7969 22.5 -36.5 Q28.2969 -43.7031 35.2969 -44.2031 Q40.9062 -44.2031 42.9062 -40.2969 Q43.5938 -39.0938 43.5938 -37.7031 Q43.5938 -33.7969 40.2969 -32.2969 Q39.2031 -31.7969 38.0938 -31.7969 Q35 -31.7969 34.4062 -34.5 Q34.2969 -34.9062 34.2969 -35.2969 Q34.2969 -38.5938 37.7031 -40.2031 L37.7969 -40.2969 Q38.5938 -40.5938 39.5 -40.7969 L37.5 -41.7031 Q36.2031 -41.9062 35.2969 -42 Q31.0938 -42 27.2969 -38.7031 Q24.2031 -35.9062 22 -31.2969 Q21.7969 -30.7969 21.7031 -30.5 L18.5 -17.5 L14.5 -1.7031 Q13.5938 0.9062 10.7969 1.0938 Q8.2969 0.5938 7.9062 -1.5938 Q7.9062 -1.4062 8.7969 -5.9062 Z" stroke="none" />
    </g>
    <g font-size="100" transform="matrix(20,0,0,20,0,0) translate(16.4198,2.1958) scale(0.01,0.01)" text-rendering="geometricPrecision" image-rendering="optimizeQuality" color-rendering="optimizeQuality" font-family="&apos;jlm_cmmi10&apos;" color-interpolation="linearRGB">
      <path d="M8.7969 -5.9062 L8.7969 -5.9062 L14.5938 -29 Q16.2031 -35.4062 16.2031 -37.4062 Q16.2031 -42 13.0938 -42 Q9 -42 6.4062 -32.5 Q6.0938 -31.4062 5.7969 -30.0938 Q4.7031 -27.9062 4.0938 -27.7969 Q2.9062 -27.7969 2.9062 -28.7969 Q2.9062 -30.4062 4.7969 -35.5938 Q5.4062 -37.2969 6 -38.5 Q8.4062 -43.4062 12 -44.0938 Q12.7031 -44.2031 13.4062 -44.2031 Q18.7969 -44.2031 21.4062 -39.7031 Q22.4062 -37.7969 22.5938 -35.5 Q29 -44.2031 38.2031 -44.2031 Q43.2969 -44.2031 46.4062 -41.5938 Q49.2031 -39.2031 49.5938 -34.5 Q56.4062 -44.2031 65.9062 -44.2031 Q74.7969 -44.2031 76.9062 -37.2969 L76.9062 -37.2031 Q77.4062 -35.5 77.4062 -33.5 Q77.4062 -28.2031 71.2969 -11.5 Q69.5 -7.0938 69.5 -4.4062 Q69.5 -1.0938 71.9062 -1.0938 Q78.0938 -1.0938 81.7031 -12.0938 L82.0938 -13.5 Q82.5938 -15.0938 83.0938 -15.2031 L83.0938 -15.2969 L83.5938 -15.2969 Q84.7969 -15.2969 84.7969 -14.2969 Q84.7969 -12.5938 82.7031 -8 Q78.4062 1.0938 71.7031 1.0938 Q66.5938 1.0938 64.4062 -3.2031 Q63.5 -5 63.5 -7.0938 Q63.5 -9.0938 64.7969 -12.5938 Q71 -29 71 -35 Q71 -42 65.5938 -42 Q56.7969 -42 51 -32.5 Q49.4062 -30 49.0938 -28.7031 Q48.7969 -27.4062 43.0938 -4.5938 Q42 -0.2969 40.5938 0.5938 L40.5 0.7031 L40.4062 0.7031 Q39.7031 1.0938 38.5938 1.0938 Q36.0938 0.5938 35.7031 -1.5938 L37 -7.5 L39 -15.0938 L41.7969 -26.7031 Q43.2969 -32.2969 43.2969 -35 Q43.2969 -42 37.9062 -42 Q28.9062 -42 22.7969 -32 Q22.0938 -30.9062 21.5938 -29.7969 L20.2969 -24.7969 Q19.7969 -22.5 18.5938 -18.0938 L16.4062 -9.0938 Q14.7031 -2.2031 14.5 -1.7031 Q13.5938 0.9062 10.7969 1.0938 Q8.2969 0.5938 7.9062 -1.5938 Q7.9062 -1.4062 8.7969 -5.9062 Z" stroke="none" />
    </g>
    <g font-size="100" transform="matrix(20,0,0,20,0,0) translate(17.2978,2.1958) scale(0.01,0.01)" text-rendering="geometricPrecision" image-rendering="optimizeQuality" color-rendering="optimizeQuality" font-family="&apos;jlm_cmr10&apos;" color-interpolation="linearRGB">
      <path d="M28.9062 -25 L28.9062 -25 Q28.9062 -8.0938 22.5938 5.5 Q17.4062 16.5938 9.4062 23.2969 Q7.2969 25 6.7031 25 Q5.7031 25 5.7031 24 Q5.7031 23.5 7 22.2969 Q23.0938 5.9062 23.0938 -25 Q23.0938 -55.5 8.0938 -71.2031 L7.5938 -71.7031 Q5.7031 -73.5 5.7031 -74 Q5.7031 -75 6.7031 -75 Q7.9062 -75 12 -70.9062 Q18.2031 -64.7031 22.2969 -56.2031 Q28.9062 -42.5938 28.9062 -25 Z" stroke="none" />
    </g>
    <g font-size="100" transform="matrix(20,0,0,20,0,0) translate(17.8067,1.5098) scale(0.01,0.01)" text-rendering="geometricPrecision" image-rendering="optimizeQuality" color-rendering="optimizeQuality" font-family="&apos;jlm_cmr10&apos;" color-interpolation="linearRGB">
      <path d="M28.9062 -25 L28.9062 -25 Q28.9062 -8.0938 22.5938 5.5 Q17.4062 16.5938 9.4062 23.2969 Q7.2969 25 6.7031 25 Q5.7031 25 5.7031 24 Q5.7031 23.5 7 22.2969 Q23.0938 5.9062 23.0938 -25 Q23.0938 -55.5 8.0938 -71.2031 L7.5938 -71.7031 Q5.7031 -73.5 5.7031 -74 Q5.7031 -75 6.7031 -75 Q7.9062 -75 12 -70.9062 Q18.2031 -64.7031 22.2969 -56.2031 Q28.9062 -42.5938 28.9062 -25 Z" stroke="none" />
    </g>
  </g>
</svg>
