<?xml version="1.0" encoding="UTF-8"?>

<!DOCTYPE svg PUBLIC '-//W3C//DTD SVG 1.0//EN' 'http://www.w3.org/TR/2001/REC-SVG-20010904/DTD/svg10.dtd'>
<svg stroke-dasharray="none" shape-rendering="auto" xmlns="http://www.w3.org/2000/svg" font-family="&apos;Dialog&apos;" width="320" text-rendering="auto" fill-opacity="1" contentScriptType="text/ecmascript" color-interpolation="auto" color-rendering="auto" preserveAspectRatio="xMidYMid meet" font-size="12" fill="black" xmlns:xlink="http://www.w3.org/1999/xlink" stroke="black" image-rendering="auto" stroke-miterlimit="10" zoomAndPan="magnify" version="1.0" stroke-linecap="square" stroke-linejoin="miter" contentStyleType="text/css" font-style="normal" height="74" stroke-width="1" stroke-dashoffset="0" font-weight="normal" stroke-opacity="1">
  <!--Generated by the Batik Graphics2D SVG Generator-->
  <defs id="genericDefs" />
  <g>
    <g font-size="100" transform="scale(20,20) translate(0.15,1.8102) scale(0.01,0.01)" text-rendering="geometricPrecision" image-rendering="optimizeQuality" color-rendering="optimizeQuality" font-family="&apos;jlm_cmmi10&apos;" color-interpolation="linearRGB">
      <path d="M76 -69.5 L69.7031 -44 Q69.2031 -42.2031 68.7031 -42.0938 L68.5938 -42 L67.9062 -42 Q66.4062 -42 66.4062 -43 L66.7031 -47.9062 L66.7031 -48.0938 Q66.7031 -60.5 58.9062 -65.2031 L58.7969 -65.2969 Q55.2969 -67.4062 50.5938 -67.4062 Q40 -67.4062 30.5 -59.5 Q28.0938 -57.5938 26.2031 -55.2969 Q16.7031 -44.2031 14.5 -27.0938 Q14.0938 -24 14.0938 -21.7031 Q14.0938 -7.7031 24.7031 -2.7969 Q28.7969 -0.9062 33.7031 -0.9062 Q43.0938 -0.9062 52.0938 -8.2031 Q59.0938 -14.0938 62.2031 -24 Q62.4062 -25 63.5 -25 Q64.7031 -25 64.7031 -24 Q64.7031 -22.2031 62.4062 -17.5938 Q59.2969 -11.2969 53.7031 -6.4062 Q43.7969 2.2031 32.0938 2.2031 Q19.2969 2.2031 11.5938 -6.5938 Q5 -14.0938 5 -25.2031 Q5 -40.0938 15.9062 -53.0938 Q26 -65.2031 39.7969 -69.0938 Q44.9062 -70.5 49.7969 -70.5 Q60.7031 -70.5 66.4062 -61.5938 L73.4062 -69.2969 Q74.5938 -70.5 74.9062 -70.5 Q76 -70.5 76 -69.5 Z" stroke="none" />
    </g>
    <g font-size="100" transform="matrix(20,0,0,20,0,0) translate(0.9362,1.8102) scale(0.01,0.01)" text-rendering="geometricPrecision" image-rendering="optimizeQuality" color-rendering="optimizeQuality" font-family="&apos;jlm_cmmi10&apos;" color-interpolation="linearRGB">
      <path d="M64.5 -69.5 L64.5 -69.5 L59.0938 -47.5938 Q58.2031 -45.7031 57.5938 -45.5938 Q56.4062 -45.5938 56.4062 -46.5938 L56.7969 -52 L56.7969 -52.2031 Q56.7969 -66 45.2031 -67.5 Q43.9062 -67.7031 42.4062 -67.7031 Q34.5938 -67.7031 29.0938 -61.4062 Q24.9062 -56.5938 24.9062 -51.0938 Q24.9062 -45.0938 29.7969 -42.5 Q30.4062 -42.2031 31 -42 Q31.5 -41.9062 37.7031 -40.2031 Q46.9062 -37.7969 48.7031 -36.5938 Q49.5 -36.0938 50.4062 -35.2031 Q55.2969 -30.5938 55.2969 -23.5 Q55.2969 -14.2969 48.0938 -6.4062 Q39.9062 1.9062 29.9062 2.2031 Q18.2969 2.2031 13 -5 L8.0938 0.7031 Q6.7969 2.2031 6.2969 2.2031 Q5.2031 2.2031 5.2031 1.2031 L10.9062 -21.2969 L10.9062 -21.5 Q11.0938 -22.2031 11.2031 -22.2969 Q11.5938 -22.7031 12.2031 -22.7031 Q13.4062 -22.7031 13.4062 -21.5938 L13.2031 -20.9062 Q12.5938 -17.2969 12.5938 -15.5 Q12.5938 -4.2031 24.0938 -1.5938 Q26.9062 -0.9062 30.0938 -0.9062 Q38 -0.9062 43.5938 -7.7031 Q48.0938 -13 48.0938 -19.2969 Q48.0938 -27.0938 40.9062 -29.4062 L38.9062 -29.9062 L28.2031 -32.7031 Q21.5938 -34.5938 19 -40.7031 Q17.7969 -43.5938 17.7969 -46.9062 Q17.7969 -56 25.4062 -63.2969 Q33 -70.5 42.5 -70.5 Q52.7031 -70.5 56.7969 -63.2969 L61.5938 -69 Q62.9062 -70.5 63.4062 -70.5 Q64.5 -70.5 64.5 -69.5 Z" stroke="none" />
    </g>
    <g font-size="100" transform="matrix(20,0,0,20,0,0) translate(1.6071,1.8102) scale(0.01,0.01)" text-rendering="geometricPrecision" image-rendering="optimizeQuality" color-rendering="optimizeQuality" font-family="&apos;jlm_cmr10&apos;" color-interpolation="linearRGB">
      <path d="M33.0938 24 L33.0938 24 Q33.0938 25 32.0938 25 Q30.9062 25 26.7969 20.9062 Q20.5938 14.7031 16.5 6.2031 Q9.9062 -7.4062 9.9062 -25 Q9.9062 -41.9062 16.2031 -55.5 Q21.4062 -66.5938 29.4062 -73.2969 Q31.5 -75 32.0938 -75 Q33.0938 -75 33.0938 -74 Q33.0938 -73.5 31.7969 -72.2969 Q15.7031 -55.9062 15.7031 -25 Q15.7031 5.7969 31.4062 21.7969 Q33.0938 23.5 33.0938 24 Z" stroke="none" />
    </g>
    <g font-size="100" transform="matrix(20,0,0,20,0,0) translate(1.9388,1.1934) scale(0.0051,0.01)" text-rendering="geometricPrecision" image-rendering="optimizeQuality" color-rendering="optimizeQuality" font-family="&apos;jlm_cmsy10&apos;" color-interpolation="linearRGB">
      <path d="M66.0938 -23 L11.5938 -23 Q8.4062 -23 8.2969 -25 Q8.2969 -27 11.5938 -27 L66.0938 -27 Q69.2969 -27 69.4062 -25 Q69.4062 -23 66.0938 -23 Z" stroke="none" />
    </g>
    <g font-size="100" transform="matrix(10.2892,0,0,20,38.7762,23.8677) scale(1.9438,1) translate(0.2319,0) scale(0.01,0.01)" text-rendering="geometricPrecision" image-rendering="optimizeQuality" color-rendering="optimizeQuality" font-family="&apos;jlm_cmsy10&apos;" color-interpolation="linearRGB">
      <path d="M85.7969 -23 L8.9062 -23 Q5.9062 -23.5 5.5938 -25 Q5.5938 -27 8.9062 -27 L85.7969 -27 Q79 -32 75.5938 -39.9062 L75.5 -40 Q75 -41.2969 75 -41.5938 Q75 -42.7969 76.5 -42.7969 Q77.5938 -42.7969 78.2031 -41.4062 Q82.5938 -31.5 91.7969 -26.7969 L91.9062 -26.7969 L92 -26.7031 L92.0938 -26.7031 Q92.7969 -26.2969 93.5 -26 Q93.9062 -26 94.2031 -25 Q94.2031 -24.2969 93.2969 -23.7969 Q93.0938 -23.7969 92.7969 -23.5938 Q82.9062 -18.9062 78.2969 -8.5938 L78.2969 -8.5938 Q78.2031 -8.5 78.0938 -8.2031 Q77.5938 -7.2031 76.5 -7.2031 Q75 -7.2031 75 -8.4062 Q75 -9.9062 77.9062 -14.4062 Q81.2031 -19.5938 85.7969 -23 Z" stroke="none" />
    </g>
    <g font-size="100" transform="matrix(20,0,0,20,0,0) translate(1.996,1.8102) scale(0.01,0.01)" text-rendering="geometricPrecision" image-rendering="optimizeQuality" color-rendering="optimizeQuality" font-family="&apos;jlm_cmmi10&apos;" color-interpolation="linearRGB">
      <path d="M15.9062 -7.7969 L15.9062 -7.7969 L29.2969 -61.5 Q29.7031 -63.0938 29.7031 -63.4062 Q29.7031 -64.5938 28.0938 -64.9062 L28 -64.9062 L28 -64.9062 Q27.7969 -65 27.5 -65 Q25.0938 -65.2031 23.2031 -65.2031 Q20.5938 -65.2031 20.4062 -66 Q20.2969 -66.2031 20.2969 -66.4062 Q20.2969 -68.0938 22 -68.2969 L22 -68.2969 L23.2969 -68.2969 L56.9062 -68.2969 Q69.9062 -68.2969 76.2969 -58.2031 Q80.4062 -51.7969 80.4062 -43 Q80.4062 -28.5 70.2969 -15.9062 Q60.7031 -4.2031 47.7031 -1 Q43.7969 0 39.9062 0 L6.7969 0 Q4.2969 0 4.0938 -0.7969 Q4 -0.9062 4 -1.2031 Q4 -2.9062 5.5938 -3.0938 L6.7969 -3.0938 Q13.2969 -3.0938 14.5938 -4.5 Q15.2031 -5.2031 15.7969 -7.2969 Q15.7969 -7.4062 15.9062 -7.7969 ZM37.5 -61.4062 L23.7969 -6.5 Q23.2969 -4.7031 23.2969 -4.2031 Q23.2969 -3.4062 24.2031 -3.2031 L24.2031 -3.2031 L24.2031 -3.2031 L24.5938 -3.2031 Q25.2031 -3.0938 26.7969 -3.0938 L38.0938 -3.0938 Q50.5 -3.0938 59.5 -12.4062 Q60.4062 -13.4062 61.2031 -14.4062 Q69.2031 -24.7969 71.2969 -41.5938 Q71.7031 -44.7031 71.7031 -46.7031 Q71.7031 -60.0938 61.2031 -63.9062 Q57.7969 -65.2031 53.5938 -65.2031 L42.9062 -65.2031 Q39.2969 -65.2031 38.5 -64.2031 L38.5 -64.2031 L38.5 -64.0938 L38.4062 -64.0938 L38.4062 -64 Q38 -63.4062 37.5 -61.4062 Z" stroke="none" />
    </g>
    <g font-size="100" transform="matrix(20,0,0,20,0,0) translate(2.8239,1.9602) scale(0.007,0.007)" text-rendering="geometricPrecision" image-rendering="optimizeQuality" color-rendering="optimizeQuality" font-family="&apos;jlm_cmr10&apos;" color-interpolation="linearRGB">
      <path d="M29.4062 -64 L29.4062 -7.9062 Q29.4062 -4.9062 30.5938 -4.0938 Q32.2969 -3.0938 38.7031 -3.0938 L41.9062 -3.0938 L41.9062 0 Q38.4062 -0.2969 25.7031 -0.2969 Q13 -0.2969 9.5 0 L9.5 -3.0938 L12.7031 -3.0938 Q20.4062 -3.0938 21.5 -4.9062 L21.5938 -5 Q22 -5.7969 22 -7.9062 L22 -59.7031 Q16.7969 -57.0938 8.9062 -57.0938 L8.9062 -60.2031 Q20.9062 -60.2031 27.0938 -66.5938 Q29 -66.5938 29.2969 -65.9062 L29.2969 -65.9062 L29.2969 -65.7969 Q29.4062 -65.5 29.4062 -64 Z" stroke="none" />
    </g>
    <g font-size="100" transform="matrix(20,0,0,20,0,0) translate(3.1739,1.8102) scale(0.01,0.01)" text-rendering="geometricPrecision" image-rendering="optimizeQuality" color-rendering="optimizeQuality" font-family="&apos;jlm_cmmi10&apos;" color-interpolation="linearRGB">
      <path d="M20.2969 -0.0938 L20.2969 -0.0938 Q20.2969 9.5938 14 16.9062 Q12.2969 18.9062 11.2031 19.2969 Q10.2031 19.2969 10.2031 18.2031 Q10.2031 17.7031 11.2969 16.5938 Q17.2969 10.5938 18 1.9062 Q18.0938 0.9062 18.0938 -0.0938 Q18.0938 -1.5938 17.9062 -1.5938 Q17.7969 -1.5938 17.4062 -1.2969 Q16 0 13.9062 0 Q10.2031 0 9 -3.4062 Q8.5938 -4.2969 8.5938 -5.2969 Q8.5938 -8.9062 11.7031 -10.2031 Q12.7031 -10.5938 13.9062 -10.5938 Q18.2969 -10.5938 19.7969 -4.7969 Q20.2969 -2.7031 20.2969 -0.0938 Z" stroke="none" />
    </g>
    <g font-size="100" transform="matrix(20,0,0,20,0,0) translate(3.5612,1.1934) scale(0.0051,0.01)" text-rendering="geometricPrecision" image-rendering="optimizeQuality" color-rendering="optimizeQuality" font-family="&apos;jlm_cmsy10&apos;" color-interpolation="linearRGB">
      <path d="M66.0938 -23 L11.5938 -23 Q8.4062 -23 8.2969 -25 Q8.2969 -27 11.5938 -27 L66.0938 -27 Q69.2969 -27 69.4062 -25 Q69.4062 -23 66.0938 -23 Z" stroke="none" />
    </g>
    <g font-size="100" transform="matrix(10.2892,0,0,20,71.2235,23.8677) scale(1.9438,1) translate(0.2319,0) scale(0.01,0.01)" text-rendering="geometricPrecision" image-rendering="optimizeQuality" color-rendering="optimizeQuality" font-family="&apos;jlm_cmsy10&apos;" color-interpolation="linearRGB">
      <path d="M85.7969 -23 L8.9062 -23 Q5.9062 -23.5 5.5938 -25 Q5.5938 -27 8.9062 -27 L85.7969 -27 Q79 -32 75.5938 -39.9062 L75.5 -40 Q75 -41.2969 75 -41.5938 Q75 -42.7969 76.5 -42.7969 Q77.5938 -42.7969 78.2031 -41.4062 Q82.5938 -31.5 91.7969 -26.7969 L91.9062 -26.7969 L92 -26.7031 L92.0938 -26.7031 Q92.7969 -26.2969 93.5 -26 Q93.9062 -26 94.2031 -25 Q94.2031 -24.2969 93.2969 -23.7969 Q93.0938 -23.7969 92.7969 -23.5938 Q82.9062 -18.9062 78.2969 -8.5938 L78.2969 -8.5938 Q78.2031 -8.5 78.0938 -8.2031 Q77.5938 -7.2031 76.5 -7.2031 Q75 -7.2031 75 -8.4062 Q75 -9.9062 77.9062 -14.4062 Q81.2031 -19.5938 85.7969 -23 Z" stroke="none" />
    </g>
    <g font-size="100" transform="matrix(20,0,0,20,0,0) translate(3.6183,1.8102) scale(0.01,0.01)" text-rendering="geometricPrecision" image-rendering="optimizeQuality" color-rendering="optimizeQuality" font-family="&apos;jlm_cmmi10&apos;" color-interpolation="linearRGB">
      <path d="M15.9062 -7.7969 L15.9062 -7.7969 L29.2969 -61.5 Q29.7031 -63.0938 29.7031 -63.4062 Q29.7031 -64.5938 28.0938 -64.9062 L28 -64.9062 L28 -64.9062 Q27.7969 -65 27.5 -65 Q25.0938 -65.2031 23.2031 -65.2031 Q20.5938 -65.2031 20.4062 -66 Q20.2969 -66.2031 20.2969 -66.4062 Q20.2969 -68.0938 22 -68.2969 L22 -68.2969 L23.2969 -68.2969 L56.9062 -68.2969 Q69.9062 -68.2969 76.2969 -58.2031 Q80.4062 -51.7969 80.4062 -43 Q80.4062 -28.5 70.2969 -15.9062 Q60.7031 -4.2031 47.7031 -1 Q43.7969 0 39.9062 0 L6.7969 0 Q4.2969 0 4.0938 -0.7969 Q4 -0.9062 4 -1.2031 Q4 -2.9062 5.5938 -3.0938 L6.7969 -3.0938 Q13.2969 -3.0938 14.5938 -4.5 Q15.2031 -5.2031 15.7969 -7.2969 Q15.7969 -7.4062 15.9062 -7.7969 ZM37.5 -61.4062 L23.7969 -6.5 Q23.2969 -4.7031 23.2969 -4.2031 Q23.2969 -3.4062 24.2031 -3.2031 L24.2031 -3.2031 L24.2031 -3.2031 L24.5938 -3.2031 Q25.2031 -3.0938 26.7969 -3.0938 L38.0938 -3.0938 Q50.5 -3.0938 59.5 -12.4062 Q60.4062 -13.4062 61.2031 -14.4062 Q69.2031 -24.7969 71.2969 -41.5938 Q71.7031 -44.7031 71.7031 -46.7031 Q71.7031 -60.0938 61.2031 -63.9062 Q57.7969 -65.2031 53.5938 -65.2031 L42.9062 -65.2031 Q39.2969 -65.2031 38.5 -64.2031 L38.5 -64.2031 L38.5 -64.0938 L38.4062 -64.0938 L38.4062 -64 Q38 -63.4062 37.5 -61.4062 Z" stroke="none" />
    </g>
    <g font-size="100" transform="matrix(20,0,0,20,0,0) translate(4.4463,1.9602) scale(0.007,0.007)" text-rendering="geometricPrecision" image-rendering="optimizeQuality" color-rendering="optimizeQuality" font-family="&apos;jlm_cmr10&apos;" color-interpolation="linearRGB">
      <path d="M44.9062 -17.4062 L44.9062 -17.4062 L42.0938 0 L5 0 Q5 -2.5 5.5938 -3.2031 L6.0938 -3.7031 L25.2969 -25.0938 Q35.7969 -36.9062 35.7969 -47.2031 Q35.7969 -56.0938 30.4062 -60.7031 L30.2969 -60.7969 L30.2031 -60.7969 Q27 -63.5 22.4062 -63.5 Q15.2031 -63.5 10.9062 -57.2969 Q9.7031 -55.5 8.9062 -53.2969 Q9.2031 -53.4062 10.2031 -53.4062 Q14.2031 -53.4062 15.2969 -49.7969 L15.2969 -49.7031 Q15.5 -49 15.5 -48.2031 Q15.5 -44.2031 11.7031 -43.0938 Q10.9062 -42.9062 10.2969 -42.9062 Q6.5938 -42.9062 5.4062 -46 Q5 -47.0938 5 -48.5 Q5 -56.2031 10.9062 -61.7031 Q16.2031 -66.5938 23.7031 -66.5938 Q34.7031 -66.5938 40.7969 -59.2031 Q44.2969 -54.9062 44.7969 -49 Q44.9062 -48.0938 44.9062 -47.2031 Q44.9062 -39.9062 39.4062 -33.2969 Q36.5 -29.9062 30.4062 -24.2969 L24.2969 -18.9062 L23.2969 -18 L12.7031 -7.7031 L30.7031 -7.7031 Q39.5 -7.7031 40.2031 -8.5 Q41.2031 -9.9062 42.4062 -17.4062 L44.9062 -17.4062 Z" stroke="none" />
    </g>
    <g font-size="100" transform="matrix(20,0,0,20,0,0) translate(4.7963,1.8102) scale(0.01,0.01)" text-rendering="geometricPrecision" image-rendering="optimizeQuality" color-rendering="optimizeQuality" font-family="&apos;jlm_cmr10&apos;" color-interpolation="linearRGB">
      <path d="M28.9062 -25 L28.9062 -25 Q28.9062 -8.0938 22.5938 5.5 Q17.4062 16.5938 9.4062 23.2969 Q7.2969 25 6.7031 25 Q5.7031 25 5.7031 24 Q5.7031 23.5 7 22.2969 Q23.0938 5.9062 23.0938 -25 Q23.0938 -55.5 8.0938 -71.2031 L7.5938 -71.7031 Q5.7031 -73.5 5.7031 -74 Q5.7031 -75 6.7031 -75 Q7.9062 -75 12 -70.9062 Q18.2031 -64.7031 22.2969 -56.2031 Q28.9062 -42.5938 28.9062 -25 Z" stroke="none" />
    </g>
    <g font-size="100" transform="matrix(20,0,0,20,0,0) translate(5.4629,1.8102) scale(0.01,0.01)" text-rendering="geometricPrecision" image-rendering="optimizeQuality" color-rendering="optimizeQuality" font-family="&apos;jlm_cmr10&apos;" color-interpolation="linearRGB">
      <path d="M68.7031 -32.7031 L9 -32.7031 Q5.7969 -32.7031 5.5938 -34.7031 Q5.5938 -36.7031 8.9062 -36.7031 L68.7969 -36.7031 Q72 -36.7031 72.0938 -34.7031 Q72.0938 -32.7031 68.7031 -32.7031 ZM68.7969 -13.2969 L8.9062 -13.2969 Q5.7031 -13.2969 5.5938 -15.2969 Q5.5938 -17.2969 9 -17.2969 L68.7031 -17.2969 Q71.9062 -17.2969 72.0938 -15.2969 Q72.0938 -13.2969 68.7969 -13.2969 Z" stroke="none" />
    </g>
    <g font-size="100" transform="matrix(20,0,0,20,0,0) translate(7.8035,0.5169) scale(0.0051,0.01)" text-rendering="geometricPrecision" image-rendering="optimizeQuality" color-rendering="optimizeQuality" font-family="&apos;jlm_cmsy10&apos;" color-interpolation="linearRGB">
      <path d="M66.0938 -23 L11.5938 -23 Q8.4062 -23 8.2969 -25 Q8.2969 -27 11.5938 -27 L66.0938 -27 Q69.2969 -27 69.4062 -25 Q69.4062 -23 66.0938 -23 Z" stroke="none" />
    </g>
    <g font-size="100" transform="matrix(10.2892,0,0,20,156.0709,10.3375) scale(1.9438,1) translate(0.2319,0) scale(0.01,0.01)" text-rendering="geometricPrecision" image-rendering="optimizeQuality" color-rendering="optimizeQuality" font-family="&apos;jlm_cmsy10&apos;" color-interpolation="linearRGB">
      <path d="M85.7969 -23 L8.9062 -23 Q5.9062 -23.5 5.5938 -25 Q5.5938 -27 8.9062 -27 L85.7969 -27 Q79 -32 75.5938 -39.9062 L75.5 -40 Q75 -41.2969 75 -41.5938 Q75 -42.7969 76.5 -42.7969 Q77.5938 -42.7969 78.2031 -41.4062 Q82.5938 -31.5 91.7969 -26.7969 L91.9062 -26.7969 L92 -26.7031 L92.0938 -26.7031 Q92.7969 -26.2969 93.5 -26 Q93.9062 -26 94.2031 -25 Q94.2031 -24.2969 93.2969 -23.7969 Q93.0938 -23.7969 92.7969 -23.5938 Q82.9062 -18.9062 78.2969 -8.5938 L78.2969 -8.5938 Q78.2031 -8.5 78.0938 -8.2031 Q77.5938 -7.2031 76.5 -7.2031 Q75 -7.2031 75 -8.4062 Q75 -9.9062 77.9062 -14.4062 Q81.2031 -19.5938 85.7969 -23 Z" stroke="none" />
    </g>
    <g font-size="100" transform="matrix(20,0,0,20,0,0) translate(7.8607,1.1336) scale(0.01,0.01)" text-rendering="geometricPrecision" image-rendering="optimizeQuality" color-rendering="optimizeQuality" font-family="&apos;jlm_cmmi10&apos;" color-interpolation="linearRGB">
      <path d="M15.9062 -7.7969 L15.9062 -7.7969 L29.2969 -61.5 Q29.7031 -63.0938 29.7031 -63.4062 Q29.7031 -64.5938 28.0938 -64.9062 L28 -64.9062 L28 -64.9062 Q27.7969 -65 27.5 -65 Q25.0938 -65.2031 23.2031 -65.2031 Q20.5938 -65.2031 20.4062 -66 Q20.2969 -66.2031 20.2969 -66.4062 Q20.2969 -68.0938 22 -68.2969 L22 -68.2969 L23.2969 -68.2969 L56.9062 -68.2969 Q69.9062 -68.2969 76.2969 -58.2031 Q80.4062 -51.7969 80.4062 -43 Q80.4062 -28.5 70.2969 -15.9062 Q60.7031 -4.2031 47.7031 -1 Q43.7969 0 39.9062 0 L6.7969 0 Q4.2969 0 4.0938 -0.7969 Q4 -0.9062 4 -1.2031 Q4 -2.9062 5.5938 -3.0938 L6.7969 -3.0938 Q13.2969 -3.0938 14.5938 -4.5 Q15.2031 -5.2031 15.7969 -7.2969 Q15.7969 -7.4062 15.9062 -7.7969 ZM37.5 -61.4062 L23.7969 -6.5 Q23.2969 -4.7031 23.2969 -4.2031 Q23.2969 -3.4062 24.2031 -3.2031 L24.2031 -3.2031 L24.2031 -3.2031 L24.5938 -3.2031 Q25.2031 -3.0938 26.7969 -3.0938 L38.0938 -3.0938 Q50.5 -3.0938 59.5 -12.4062 Q60.4062 -13.4062 61.2031 -14.4062 Q69.2031 -24.7969 71.2969 -41.5938 Q71.7031 -44.7031 71.7031 -46.7031 Q71.7031 -60.0938 61.2031 -63.9062 Q57.7969 -65.2031 53.5938 -65.2031 L42.9062 -65.2031 Q39.2969 -65.2031 38.5 -64.2031 L38.5 -64.2031 L38.5 -64.0938 L38.4062 -64.0938 L38.4062 -64 Q38 -63.4062 37.5 -61.4062 Z" stroke="none" />
    </g>
    <g font-size="100" transform="matrix(20,0,0,20,0,0) translate(8.6886,1.2836) scale(0.007,0.007)" text-rendering="geometricPrecision" image-rendering="optimizeQuality" color-rendering="optimizeQuality" font-family="&apos;jlm_cmr10&apos;" color-interpolation="linearRGB">
      <path d="M29.4062 -64 L29.4062 -7.9062 Q29.4062 -4.9062 30.5938 -4.0938 Q32.2969 -3.0938 38.7031 -3.0938 L41.9062 -3.0938 L41.9062 0 Q38.4062 -0.2969 25.7031 -0.2969 Q13 -0.2969 9.5 0 L9.5 -3.0938 L12.7031 -3.0938 Q20.4062 -3.0938 21.5 -4.9062 L21.5938 -5 Q22 -5.7969 22 -7.9062 L22 -59.7031 Q16.7969 -57.0938 8.9062 -57.0938 L8.9062 -60.2031 Q20.9062 -60.2031 27.0938 -66.5938 Q29 -66.5938 29.2969 -65.9062 L29.2969 -65.9062 L29.2969 -65.7969 Q29.4062 -65.5 29.4062 -64 Z" stroke="none" />
    </g>
    <g font-size="100" transform="matrix(20,0,0,20,0,0) translate(9.0386,1.1336) scale(0.01,0.01)" text-rendering="geometricPrecision" image-rendering="optimizeQuality" color-rendering="optimizeQuality" font-family="&apos;jlm_cmmi10&apos;" color-interpolation="linearRGB">
      <path d="M19.2031 -5.2969 L19.2031 -5.2969 Q19.2031 -2 16.2031 -0.5 Q15.0938 0 13.9062 0 Q10.5938 0 9.0938 -3 Q8.5938 -4.0938 8.5938 -5.2969 Q8.5938 -8.5938 11.5938 -10.0938 Q12.7031 -10.5938 13.9062 -10.5938 Q17.2031 -10.5938 18.7031 -7.5938 Q19.2031 -6.5 19.2031 -5.2969 Z" stroke="none" />
    </g>
    <g font-size="100" transform="matrix(20,0,0,20,0,0) translate(9.2592,0.5169) scale(0.0051,0.01)" text-rendering="geometricPrecision" image-rendering="optimizeQuality" color-rendering="optimizeQuality" font-family="&apos;jlm_cmsy10&apos;" color-interpolation="linearRGB">
      <path d="M66.0938 -23 L11.5938 -23 Q8.4062 -23 8.2969 -25 Q8.2969 -27 11.5938 -27 L66.0938 -27 Q69.2969 -27 69.4062 -25 Q69.4062 -23 66.0938 -23 Z" stroke="none" />
    </g>
    <g font-size="100" transform="matrix(10.2892,0,0,20,185.1849,10.3375) scale(1.9438,1) translate(0.2319,0) scale(0.01,0.01)" text-rendering="geometricPrecision" image-rendering="optimizeQuality" color-rendering="optimizeQuality" font-family="&apos;jlm_cmsy10&apos;" color-interpolation="linearRGB">
      <path d="M85.7969 -23 L8.9062 -23 Q5.9062 -23.5 5.5938 -25 Q5.5938 -27 8.9062 -27 L85.7969 -27 Q79 -32 75.5938 -39.9062 L75.5 -40 Q75 -41.2969 75 -41.5938 Q75 -42.7969 76.5 -42.7969 Q77.5938 -42.7969 78.2031 -41.4062 Q82.5938 -31.5 91.7969 -26.7969 L91.9062 -26.7969 L92 -26.7031 L92.0938 -26.7031 Q92.7969 -26.2969 93.5 -26 Q93.9062 -26 94.2031 -25 Q94.2031 -24.2969 93.2969 -23.7969 Q93.0938 -23.7969 92.7969 -23.5938 Q82.9062 -18.9062 78.2969 -8.5938 L78.2969 -8.5938 Q78.2031 -8.5 78.0938 -8.2031 Q77.5938 -7.2031 76.5 -7.2031 Q75 -7.2031 75 -8.4062 Q75 -9.9062 77.9062 -14.4062 Q81.2031 -19.5938 85.7969 -23 Z" stroke="none" />
    </g>
    <g font-size="100" transform="matrix(20,0,0,20,0,0) translate(9.3164,1.1336) scale(0.01,0.01)" text-rendering="geometricPrecision" image-rendering="optimizeQuality" color-rendering="optimizeQuality" font-family="&apos;jlm_cmmi10&apos;" color-interpolation="linearRGB">
      <path d="M15.9062 -7.7969 L15.9062 -7.7969 L29.2969 -61.5 Q29.7031 -63.0938 29.7031 -63.4062 Q29.7031 -64.5938 28.0938 -64.9062 L28 -64.9062 L28 -64.9062 Q27.7969 -65 27.5 -65 Q25.0938 -65.2031 23.2031 -65.2031 Q20.5938 -65.2031 20.4062 -66 Q20.2969 -66.2031 20.2969 -66.4062 Q20.2969 -68.0938 22 -68.2969 L22 -68.2969 L23.2969 -68.2969 L56.9062 -68.2969 Q69.9062 -68.2969 76.2969 -58.2031 Q80.4062 -51.7969 80.4062 -43 Q80.4062 -28.5 70.2969 -15.9062 Q60.7031 -4.2031 47.7031 -1 Q43.7969 0 39.9062 0 L6.7969 0 Q4.2969 0 4.0938 -0.7969 Q4 -0.9062 4 -1.2031 Q4 -2.9062 5.5938 -3.0938 L6.7969 -3.0938 Q13.2969 -3.0938 14.5938 -4.5 Q15.2031 -5.2031 15.7969 -7.2969 Q15.7969 -7.4062 15.9062 -7.7969 ZM37.5 -61.4062 L23.7969 -6.5 Q23.2969 -4.7031 23.2969 -4.2031 Q23.2969 -3.4062 24.2031 -3.2031 L24.2031 -3.2031 L24.2031 -3.2031 L24.5938 -3.2031 Q25.2031 -3.0938 26.7969 -3.0938 L38.0938 -3.0938 Q50.5 -3.0938 59.5 -12.4062 Q60.4062 -13.4062 61.2031 -14.4062 Q69.2031 -24.7969 71.2969 -41.5938 Q71.7031 -44.7031 71.7031 -46.7031 Q71.7031 -60.0938 61.2031 -63.9062 Q57.7969 -65.2031 53.5938 -65.2031 L42.9062 -65.2031 Q39.2969 -65.2031 38.5 -64.2031 L38.5 -64.2031 L38.5 -64.0938 L38.4062 -64.0938 L38.4062 -64 Q38 -63.4062 37.5 -61.4062 Z" stroke="none" />
    </g>
    <g font-size="100" transform="matrix(20,0,0,20,0,0) translate(10.1443,1.2836) scale(0.007,0.007)" text-rendering="geometricPrecision" image-rendering="optimizeQuality" color-rendering="optimizeQuality" font-family="&apos;jlm_cmr10&apos;" color-interpolation="linearRGB">
      <path d="M44.9062 -17.4062 L44.9062 -17.4062 L42.0938 0 L5 0 Q5 -2.5 5.5938 -3.2031 L6.0938 -3.7031 L25.2969 -25.0938 Q35.7969 -36.9062 35.7969 -47.2031 Q35.7969 -56.0938 30.4062 -60.7031 L30.2969 -60.7969 L30.2031 -60.7969 Q27 -63.5 22.4062 -63.5 Q15.2031 -63.5 10.9062 -57.2969 Q9.7031 -55.5 8.9062 -53.2969 Q9.2031 -53.4062 10.2031 -53.4062 Q14.2031 -53.4062 15.2969 -49.7969 L15.2969 -49.7031 Q15.5 -49 15.5 -48.2031 Q15.5 -44.2031 11.7031 -43.0938 Q10.9062 -42.9062 10.2969 -42.9062 Q6.5938 -42.9062 5.4062 -46 Q5 -47.0938 5 -48.5 Q5 -56.2031 10.9062 -61.7031 Q16.2031 -66.5938 23.7031 -66.5938 Q34.7031 -66.5938 40.7969 -59.2031 Q44.2969 -54.9062 44.7969 -49 Q44.9062 -48.0938 44.9062 -47.2031 Q44.9062 -39.9062 39.4062 -33.2969 Q36.5 -29.9062 30.4062 -24.2969 L24.2969 -18.9062 L23.2969 -18 L12.7031 -7.7031 L30.7031 -7.7031 Q39.5 -7.7031 40.2031 -8.5 Q41.2031 -9.9062 42.4062 -17.4062 L44.9062 -17.4062 Z" stroke="none" />
    </g>
    <g font-size="100" transform="matrix(20,0,0,20,0,0)" text-rendering="geometricPrecision" image-rendering="optimizeQuality" color-rendering="optimizeQuality" font-family="&apos;jlm_cmr10&apos;" color-interpolation="linearRGB">
      <rect width="5.0781" x="6.6385" height="0.04" y="1.5402" stroke="none" />
      <path d="M14.5 60.1094 L14.5 -0.0938 Q14.8438 -2.2031 16.7031 -2.2031 Q18.4531 -2.2031 18.7969 -0.0938 L18.7969 60.1094 Q18.4062 62.2031 16.7031 62.2031 Q14.8906 62.2031 14.5 60.1094 ZM36.7188 60.1094 L36.7188 -0.0938 Q37.0625 -2.2031 38.9219 -2.2031 Q40.6719 -2.2031 41.0156 -0.0938 L41.0156 60.1094 Q40.625 62.2031 38.9219 62.2031 Q37.1094 62.2031 36.7188 60.1094 Z" transform="translate(6.6385,1.7001) scale(0.01,0.01)" stroke="none" />
    </g>
    <g font-size="100" transform="matrix(20,0,0,20,0,0) translate(6.6385,2.3002) scale(0.01,0.01)" text-rendering="geometricPrecision" image-rendering="optimizeQuality" color-rendering="optimizeQuality" font-family="&apos;jlm_cmex10&apos;" color-interpolation="linearRGB">
      <path d="M14.5 60.1094 L14.5 -0.0938 Q14.8438 -2.2031 16.7031 -2.2031 Q18.4531 -2.2031 18.7969 -0.0938 L18.7969 60.1094 Q18.4062 62.2031 16.7031 62.2031 Q14.8906 62.2031 14.5 60.1094 ZM36.7188 60.1094 L36.7188 -0.0938 Q37.0625 -2.2031 38.9219 -2.2031 Q40.6719 -2.2031 41.0156 -0.0938 L41.0156 60.1094 Q40.625 62.2031 38.9219 62.2031 Q37.1094 62.2031 36.7188 60.1094 Z" stroke="none" />
    </g>
    <g font-size="100" transform="matrix(20,0,0,20,0,0) translate(6.6385,2.9002) scale(0.01,0.01)" text-rendering="geometricPrecision" image-rendering="optimizeQuality" color-rendering="optimizeQuality" font-family="&apos;jlm_cmex10&apos;" color-interpolation="linearRGB">
      <path d="M14.5 60.1094 L14.5 -0.0938 Q14.8438 -2.2031 16.7031 -2.2031 Q18.4531 -2.2031 18.7969 -0.0938 L18.7969 60.1094 Q18.4062 62.2031 16.7031 62.2031 Q14.8906 62.2031 14.5 60.1094 ZM36.7188 60.1094 L36.7188 -0.0938 Q37.0625 -2.2031 38.9219 -2.2031 Q40.6719 -2.2031 41.0156 -0.0938 L41.0156 60.1094 Q40.625 62.2031 38.9219 62.2031 Q37.1094 62.2031 36.7188 60.1094 Z" stroke="none" />
    </g>
    <g font-size="100" transform="matrix(20,0,0,20,0,0) translate(7.1369,2.2334) scale(0.0051,0.01)" text-rendering="geometricPrecision" image-rendering="optimizeQuality" color-rendering="optimizeQuality" font-family="&apos;jlm_cmsy10&apos;" color-interpolation="linearRGB">
      <path d="M66.0938 -23 L11.5938 -23 Q8.4062 -23 8.2969 -25 Q8.2969 -27 11.5938 -27 L66.0938 -27 Q69.2969 -27 69.4062 -25 Q69.4062 -23 66.0938 -23 Z" stroke="none" />
    </g>
    <g font-size="100" transform="matrix(10.2892,0,0,20,142.7376,44.6678) scale(1.9438,1) translate(0.2319,0) scale(0.01,0.01)" text-rendering="geometricPrecision" image-rendering="optimizeQuality" color-rendering="optimizeQuality" font-family="&apos;jlm_cmsy10&apos;" color-interpolation="linearRGB">
      <path d="M85.7969 -23 L8.9062 -23 Q5.9062 -23.5 5.5938 -25 Q5.5938 -27 8.9062 -27 L85.7969 -27 Q79 -32 75.5938 -39.9062 L75.5 -40 Q75 -41.2969 75 -41.5938 Q75 -42.7969 76.5 -42.7969 Q77.5938 -42.7969 78.2031 -41.4062 Q82.5938 -31.5 91.7969 -26.7969 L91.9062 -26.7969 L92 -26.7031 L92.0938 -26.7031 Q92.7969 -26.2969 93.5 -26 Q93.9062 -26 94.2031 -25 Q94.2031 -24.2969 93.2969 -23.7969 Q93.0938 -23.7969 92.7969 -23.5938 Q82.9062 -18.9062 78.2969 -8.5938 L78.2969 -8.5938 Q78.2031 -8.5 78.0938 -8.2031 Q77.5938 -7.2031 76.5 -7.2031 Q75 -7.2031 75 -8.4062 Q75 -9.9062 77.9062 -14.4062 Q81.2031 -19.5938 85.7969 -23 Z" stroke="none" />
    </g>
    <g font-size="100" transform="matrix(20,0,0,20,0,0) translate(7.194,2.8502) scale(0.01,0.01)" text-rendering="geometricPrecision" image-rendering="optimizeQuality" color-rendering="optimizeQuality" font-family="&apos;jlm_cmmi10&apos;" color-interpolation="linearRGB">
      <path d="M15.9062 -7.7969 L15.9062 -7.7969 L29.2969 -61.5 Q29.7031 -63.0938 29.7031 -63.4062 Q29.7031 -64.5938 28.0938 -64.9062 L28 -64.9062 L28 -64.9062 Q27.7969 -65 27.5 -65 Q25.0938 -65.2031 23.2031 -65.2031 Q20.5938 -65.2031 20.4062 -66 Q20.2969 -66.2031 20.2969 -66.4062 Q20.2969 -68.0938 22 -68.2969 L22 -68.2969 L23.2969 -68.2969 L56.9062 -68.2969 Q69.9062 -68.2969 76.2969 -58.2031 Q80.4062 -51.7969 80.4062 -43 Q80.4062 -28.5 70.2969 -15.9062 Q60.7031 -4.2031 47.7031 -1 Q43.7969 0 39.9062 0 L6.7969 0 Q4.2969 0 4.0938 -0.7969 Q4 -0.9062 4 -1.2031 Q4 -2.9062 5.5938 -3.0938 L6.7969 -3.0938 Q13.2969 -3.0938 14.5938 -4.5 Q15.2031 -5.2031 15.7969 -7.2969 Q15.7969 -7.4062 15.9062 -7.7969 ZM37.5 -61.4062 L23.7969 -6.5 Q23.2969 -4.7031 23.2969 -4.2031 Q23.2969 -3.4062 24.2031 -3.2031 L24.2031 -3.2031 L24.2031 -3.2031 L24.5938 -3.2031 Q25.2031 -3.0938 26.7969 -3.0938 L38.0938 -3.0938 Q50.5 -3.0938 59.5 -12.4062 Q60.4062 -13.4062 61.2031 -14.4062 Q69.2031 -24.7969 71.2969 -41.5938 Q71.7031 -44.7031 71.7031 -46.7031 Q71.7031 -60.0938 61.2031 -63.9062 Q57.7969 -65.2031 53.5938 -65.2031 L42.9062 -65.2031 Q39.2969 -65.2031 38.5 -64.2031 L38.5 -64.2031 L38.5 -64.0938 L38.4062 -64.0938 L38.4062 -64 Q38 -63.4062 37.5 -61.4062 Z" stroke="none" />
    </g>
    <g font-size="100" transform="matrix(20,0,0,20,0,0) translate(8.022,3.0002) scale(0.007,0.007)" text-rendering="geometricPrecision" image-rendering="optimizeQuality" color-rendering="optimizeQuality" font-family="&apos;jlm_cmr10&apos;" color-interpolation="linearRGB">
      <path d="M29.4062 -64 L29.4062 -7.9062 Q29.4062 -4.9062 30.5938 -4.0938 Q32.2969 -3.0938 38.7031 -3.0938 L41.9062 -3.0938 L41.9062 0 Q38.4062 -0.2969 25.7031 -0.2969 Q13 -0.2969 9.5 0 L9.5 -3.0938 L12.7031 -3.0938 Q20.4062 -3.0938 21.5 -4.9062 L21.5938 -5 Q22 -5.7969 22 -7.9062 L22 -59.7031 Q16.7969 -57.0938 8.9062 -57.0938 L8.9062 -60.2031 Q20.9062 -60.2031 27.0938 -66.5938 Q29 -66.5938 29.2969 -65.9062 L29.2969 -65.9062 L29.2969 -65.7969 Q29.4062 -65.5 29.4062 -64 Z" stroke="none" />
    </g>
    <g font-size="100" transform="matrix(20,0,0,20,0,0) translate(8.5386,2.8502) scale(0.01,0.01)" text-rendering="geometricPrecision" image-rendering="optimizeQuality" color-rendering="optimizeQuality" font-family="&apos;jlm_cmsy10&apos;" color-interpolation="linearRGB">
      <path d="M17.2031 -71.7969 L17.2031 21.7969 Q17.2031 24.7969 15.2031 25 Q13.2031 25 13.2031 21.4062 L13.2031 -71.4062 Q13.2031 -74.9062 15.2031 -75 Q17.2031 -75 17.2031 -71.7969 ZM36.7031 -71.4062 L36.7031 21.4062 Q36.7031 24.9062 34.7031 25 Q32.7031 25 32.7031 21.7969 L32.7031 -71.7969 Q32.7031 -74.7969 34.7031 -75 Q36.7031 -75 36.7031 -71.4062 Z" stroke="none" />
    </g>
    <g font-size="100" transform="matrix(20,0,0,20,0,0) translate(9.0386,2.8502) scale(0.01,0.01)" text-rendering="geometricPrecision" image-rendering="optimizeQuality" color-rendering="optimizeQuality" font-family="&apos;jlm_cmmi10&apos;" color-interpolation="linearRGB">
      <path d="M19.2031 -5.2969 L19.2031 -5.2969 Q19.2031 -2 16.2031 -0.5 Q15.0938 0 13.9062 0 Q10.5938 0 9.0938 -3 Q8.5938 -4.0938 8.5938 -5.2969 Q8.5938 -8.5938 11.5938 -10.0938 Q12.7031 -10.5938 13.9062 -10.5938 Q17.2031 -10.5938 18.7031 -7.5938 Q19.2031 -6.5 19.2031 -5.2969 Z" stroke="none" />
    </g>
    <g font-size="100" transform="matrix(20,0,0,20,0,0) translate(9.3164,2.8502) scale(0.01,0.01)" text-rendering="geometricPrecision" image-rendering="optimizeQuality" color-rendering="optimizeQuality" font-family="&apos;jlm_cmsy10&apos;" color-interpolation="linearRGB">
      <path d="M17.2031 -71.7969 L17.2031 21.7969 Q17.2031 24.7969 15.2031 25 Q13.2031 25 13.2031 21.4062 L13.2031 -71.4062 Q13.2031 -74.9062 15.2031 -75 Q17.2031 -75 17.2031 -71.7969 ZM36.7031 -71.4062 L36.7031 21.4062 Q36.7031 24.9062 34.7031 25 Q32.7031 25 32.7031 21.7969 L32.7031 -71.7969 Q32.7031 -74.7969 34.7031 -75 Q36.7031 -75 36.7031 -71.4062 Z" stroke="none" />
    </g>
    <g font-size="100" transform="matrix(20,0,0,20,0,0) translate(9.9259,2.2334) scale(0.0051,0.01)" text-rendering="geometricPrecision" image-rendering="optimizeQuality" color-rendering="optimizeQuality" font-family="&apos;jlm_cmsy10&apos;" color-interpolation="linearRGB">
      <path d="M66.0938 -23 L11.5938 -23 Q8.4062 -23 8.2969 -25 Q8.2969 -27 11.5938 -27 L66.0938 -27 Q69.2969 -27 69.4062 -25 Q69.4062 -23 66.0938 -23 Z" stroke="none" />
    </g>
    <g font-size="100" transform="matrix(10.2892,0,0,20,198.5183,44.6678) scale(1.9438,1) translate(0.2319,0) scale(0.01,0.01)" text-rendering="geometricPrecision" image-rendering="optimizeQuality" color-rendering="optimizeQuality" font-family="&apos;jlm_cmsy10&apos;" color-interpolation="linearRGB">
      <path d="M85.7969 -23 L8.9062 -23 Q5.9062 -23.5 5.5938 -25 Q5.5938 -27 8.9062 -27 L85.7969 -27 Q79 -32 75.5938 -39.9062 L75.5 -40 Q75 -41.2969 75 -41.5938 Q75 -42.7969 76.5 -42.7969 Q77.5938 -42.7969 78.2031 -41.4062 Q82.5938 -31.5 91.7969 -26.7969 L91.9062 -26.7969 L92 -26.7031 L92.0938 -26.7031 Q92.7969 -26.2969 93.5 -26 Q93.9062 -26 94.2031 -25 Q94.2031 -24.2969 93.2969 -23.7969 Q93.0938 -23.7969 92.7969 -23.5938 Q82.9062 -18.9062 78.2969 -8.5938 L78.2969 -8.5938 Q78.2031 -8.5 78.0938 -8.2031 Q77.5938 -7.2031 76.5 -7.2031 Q75 -7.2031 75 -8.4062 Q75 -9.9062 77.9062 -14.4062 Q81.2031 -19.5938 85.7969 -23 Z" stroke="none" />
    </g>
    <g font-size="100" transform="matrix(20,0,0,20,0,0) translate(9.9831,2.8502) scale(0.01,0.01)" text-rendering="geometricPrecision" image-rendering="optimizeQuality" color-rendering="optimizeQuality" font-family="&apos;jlm_cmmi10&apos;" color-interpolation="linearRGB">
      <path d="M15.9062 -7.7969 L15.9062 -7.7969 L29.2969 -61.5 Q29.7031 -63.0938 29.7031 -63.4062 Q29.7031 -64.5938 28.0938 -64.9062 L28 -64.9062 L28 -64.9062 Q27.7969 -65 27.5 -65 Q25.0938 -65.2031 23.2031 -65.2031 Q20.5938 -65.2031 20.4062 -66 Q20.2969 -66.2031 20.2969 -66.4062 Q20.2969 -68.0938 22 -68.2969 L22 -68.2969 L23.2969 -68.2969 L56.9062 -68.2969 Q69.9062 -68.2969 76.2969 -58.2031 Q80.4062 -51.7969 80.4062 -43 Q80.4062 -28.5 70.2969 -15.9062 Q60.7031 -4.2031 47.7031 -1 Q43.7969 0 39.9062 0 L6.7969 0 Q4.2969 0 4.0938 -0.7969 Q4 -0.9062 4 -1.2031 Q4 -2.9062 5.5938 -3.0938 L6.7969 -3.0938 Q13.2969 -3.0938 14.5938 -4.5 Q15.2031 -5.2031 15.7969 -7.2969 Q15.7969 -7.4062 15.9062 -7.7969 ZM37.5 -61.4062 L23.7969 -6.5 Q23.2969 -4.7031 23.2969 -4.2031 Q23.2969 -3.4062 24.2031 -3.2031 L24.2031 -3.2031 L24.2031 -3.2031 L24.5938 -3.2031 Q25.2031 -3.0938 26.7969 -3.0938 L38.0938 -3.0938 Q50.5 -3.0938 59.5 -12.4062 Q60.4062 -13.4062 61.2031 -14.4062 Q69.2031 -24.7969 71.2969 -41.5938 Q71.7031 -44.7031 71.7031 -46.7031 Q71.7031 -60.0938 61.2031 -63.9062 Q57.7969 -65.2031 53.5938 -65.2031 L42.9062 -65.2031 Q39.2969 -65.2031 38.5 -64.2031 L38.5 -64.2031 L38.5 -64.0938 L38.4062 -64.0938 L38.4062 -64 Q38 -63.4062 37.5 -61.4062 Z" stroke="none" />
    </g>
    <g font-size="100" transform="matrix(20,0,0,20,0,0) translate(10.811,3.0002) scale(0.007,0.007)" text-rendering="geometricPrecision" image-rendering="optimizeQuality" color-rendering="optimizeQuality" font-family="&apos;jlm_cmr10&apos;" color-interpolation="linearRGB">
      <path d="M44.9062 -17.4062 L44.9062 -17.4062 L42.0938 0 L5 0 Q5 -2.5 5.5938 -3.2031 L6.0938 -3.7031 L25.2969 -25.0938 Q35.7969 -36.9062 35.7969 -47.2031 Q35.7969 -56.0938 30.4062 -60.7031 L30.2969 -60.7969 L30.2031 -60.7969 Q27 -63.5 22.4062 -63.5 Q15.2031 -63.5 10.9062 -57.2969 Q9.7031 -55.5 8.9062 -53.2969 Q9.2031 -53.4062 10.2031 -53.4062 Q14.2031 -53.4062 15.2969 -49.7969 L15.2969 -49.7031 Q15.5 -49 15.5 -48.2031 Q15.5 -44.2031 11.7031 -43.0938 Q10.9062 -42.9062 10.2969 -42.9062 Q6.5938 -42.9062 5.4062 -46 Q5 -47.0938 5 -48.5 Q5 -56.2031 10.9062 -61.7031 Q16.2031 -66.5938 23.7031 -66.5938 Q34.7031 -66.5938 40.7969 -59.2031 Q44.2969 -54.9062 44.7969 -49 Q44.9062 -48.0938 44.9062 -47.2031 Q44.9062 -39.9062 39.4062 -33.2969 Q36.5 -29.9062 30.4062 -24.2969 L24.2969 -18.9062 L23.2969 -18 L12.7031 -7.7031 L30.7031 -7.7031 Q39.5 -7.7031 40.2031 -8.5 Q41.2031 -9.9062 42.4062 -17.4062 L44.9062 -17.4062 Z" stroke="none" />
    </g>
    <g font-size="100" transform="matrix(20,0,0,20,0,0) translate(11.161,1.7001) scale(0.01,0.01)" text-rendering="geometricPrecision" image-rendering="optimizeQuality" color-rendering="optimizeQuality" font-family="&apos;jlm_cmex10&apos;" color-interpolation="linearRGB">
      <path d="M14.5 60.1094 L14.5 -0.0938 Q14.8438 -2.2031 16.7031 -2.2031 Q18.4531 -2.2031 18.7969 -0.0938 L18.7969 60.1094 Q18.4062 62.2031 16.7031 62.2031 Q14.8906 62.2031 14.5 60.1094 ZM36.7188 60.1094 L36.7188 -0.0938 Q37.0625 -2.2031 38.9219 -2.2031 Q40.6719 -2.2031 41.0156 -0.0938 L41.0156 60.1094 Q40.625 62.2031 38.9219 62.2031 Q37.1094 62.2031 36.7188 60.1094 Z" stroke="none" />
    </g>
    <g font-size="100" transform="matrix(20,0,0,20,0,0) translate(11.161,2.3002) scale(0.01,0.01)" text-rendering="geometricPrecision" image-rendering="optimizeQuality" color-rendering="optimizeQuality" font-family="&apos;jlm_cmex10&apos;" color-interpolation="linearRGB">
      <path d="M14.5 60.1094 L14.5 -0.0938 Q14.8438 -2.2031 16.7031 -2.2031 Q18.4531 -2.2031 18.7969 -0.0938 L18.7969 60.1094 Q18.4062 62.2031 16.7031 62.2031 Q14.8906 62.2031 14.5 60.1094 ZM36.7188 60.1094 L36.7188 -0.0938 Q37.0625 -2.2031 38.9219 -2.2031 Q40.6719 -2.2031 41.0156 -0.0938 L41.0156 60.1094 Q40.625 62.2031 38.9219 62.2031 Q37.1094 62.2031 36.7188 60.1094 Z" stroke="none" />
    </g>
    <g font-size="100" transform="matrix(20,0,0,20,0,0) translate(11.161,2.9002) scale(0.01,0.01)" text-rendering="geometricPrecision" image-rendering="optimizeQuality" color-rendering="optimizeQuality" font-family="&apos;jlm_cmex10&apos;" color-interpolation="linearRGB">
      <path d="M14.5 60.1094 L14.5 -0.0938 Q14.8438 -2.2031 16.7031 -2.2031 Q18.4531 -2.2031 18.7969 -0.0938 L18.7969 60.1094 Q18.4062 62.2031 16.7031 62.2031 Q14.8906 62.2031 14.5 60.1094 ZM36.7188 60.1094 L36.7188 -0.0938 Q37.0625 -2.2031 38.9219 -2.2031 Q40.6719 -2.2031 41.0156 -0.0938 L41.0156 60.1094 Q40.625 62.2031 38.9219 62.2031 Q37.1094 62.2031 36.7188 60.1094 Z" stroke="none" />
    </g>
    <g font-size="100" transform="matrix(20,0,0,20,0,0) translate(12.1143,1.8102) scale(0.01,0.01)" text-rendering="geometricPrecision" image-rendering="optimizeQuality" color-rendering="optimizeQuality" font-family="&apos;jlm_cmr10&apos;" color-interpolation="linearRGB">
      <path d="M68.7031 -32.7031 L9 -32.7031 Q5.7969 -32.7031 5.5938 -34.7031 Q5.5938 -36.7031 8.9062 -36.7031 L68.7969 -36.7031 Q72 -36.7031 72.0938 -34.7031 Q72.0938 -32.7031 68.7031 -32.7031 ZM68.7969 -13.2969 L8.9062 -13.2969 Q5.7031 -13.2969 5.5938 -15.2969 Q5.5938 -17.2969 9 -17.2969 L68.7031 -17.2969 Q71.9062 -17.2969 72.0938 -15.2969 Q72.0938 -13.2969 68.7969 -13.2969 Z" stroke="none" />
    </g>
    <g font-size="100" transform="matrix(20,0,0,20,0,0) translate(13.1699,1.8102) scale(0.01,0.01)" text-rendering="geometricPrecision" image-rendering="optimizeQuality" color-rendering="optimizeQuality" font-family="&apos;jlm_cmmi10&apos;" color-interpolation="linearRGB">
      <path d="M39.5938 -38 L39.5938 -38 Q36.7969 -41.5938 31 -42 Q24.5 -42 19.2031 -35.4062 Q17.9062 -33.7969 16.9062 -32 Q12.9062 -24.7031 11.7031 -14.7969 Q11.5 -13.2031 11.5 -12 Q11.5 -3.7969 17.0938 -1.7031 Q18.5 -1.0938 20.5 -1.0938 Q29.5 -1.0938 36.7031 -7.0938 Q38.7969 -8.7969 40.5 -11 Q41.2031 -12 41.7969 -12 Q42.7031 -12 43 -10.7031 Q43 -9.5938 39.5938 -6.4062 Q31.2969 1.0938 20.2969 1.0938 Q10.7969 1.0938 6.5 -6.5 Q4.0938 -10.5938 4.0938 -15.7969 Q4.0938 -26 11.9062 -34.7031 Q19.5938 -43.2969 29.0938 -44.0938 Q30 -44.2031 30.9062 -44.2031 Q38.5938 -44.2031 41.5938 -39.5 Q42.7031 -37.7031 42.7031 -35.5938 Q42.7031 -31.2031 39.2031 -29.5938 Q38.2031 -29.2031 37.0938 -29.2031 Q34.0938 -29.2031 33.5 -31.7969 Q33.4062 -32.2031 33.4062 -32.7031 Q33.4062 -34.9062 35.2031 -36.5938 Q36.5938 -38 39.5938 -38 Z" stroke="none" />
    </g>
    <g font-size="100" transform="matrix(20,0,0,20,0,0) translate(13.6026,1.8102) scale(0.01,0.01)" text-rendering="geometricPrecision" image-rendering="optimizeQuality" color-rendering="optimizeQuality" font-family="&apos;jlm_cmmi10&apos;" color-interpolation="linearRGB">
      <path d="M46.9062 -27.2969 Q46.9062 -16.7031 38.7969 -8 Q31.0938 0.4062 21.5 1 Q20.7969 1.0938 20.0938 1.0938 Q11.4062 1.0938 6.9062 -5.7969 Q4.0938 -10.0938 4.0938 -15.7969 Q4.0938 -26.0938 12.0938 -34.9062 Q19.7031 -43.2969 29.2969 -44.0938 Q30.0938 -44.2031 30.9062 -44.2031 Q39.5 -44.2031 44 -37.5 Q46.9062 -33.2031 46.9062 -27.2969 ZM20.2031 -1.0938 L20.2031 -1.0938 Q26.0938 -1.0938 31.2969 -6.9062 Q32.7031 -8.5 33.7969 -10.2969 Q38 -17.5 39.4062 -28.2031 Q39.5 -29 39.5 -29.7969 L39.5 -29.9062 L39.5938 -30 L39.5938 -31.2031 Q39.5938 -38.5938 34.7031 -41.0938 Q33 -42 30.7969 -42 Q24.7031 -42 19.2969 -35.5938 Q18.5938 -34.7031 18 -33.7969 Q17.5938 -33.2969 17.2969 -32.7969 Q13.7031 -27 12 -16.5938 Q11.5 -13.7969 11.5 -12 Q11.5 -3.7031 17.2969 -1.5938 Q18.7031 -1.0938 20.2031 -1.0938 Z" stroke="none" />
    </g>
    <g font-size="100" transform="matrix(20,0,0,20,0,0) translate(14.0874,1.8102) scale(0.01,0.01)" text-rendering="geometricPrecision" image-rendering="optimizeQuality" color-rendering="optimizeQuality" font-family="&apos;jlm_cmmi10&apos;" color-interpolation="linearRGB">
      <path d="M39.0938 -37.4062 L39.0938 -37.4062 Q37 -41.7969 30.0938 -42 Q22 -42 19.5 -35.9062 Q18.9062 -34.4062 18.9062 -33 Q18.9062 -29.0938 23.7031 -27.7031 L23.7031 -27.7031 L23.7969 -27.5938 Q24.5 -27.4062 26.5 -27 Q32.7031 -25.7031 34.7969 -24.2031 Q35.7031 -23.5938 36.5 -22.7969 Q39.5938 -19.7031 39.5938 -15.5 Q39.5938 -10.2969 35.7031 -5.5938 Q30.0938 1.0938 19.5 1.0938 Q10.2031 1.0938 6.5938 -4.0938 Q5.2031 -6.0938 5.2031 -8.5938 Q5.2031 -13.5 9 -14.9062 Q9.9062 -15.2031 10.7969 -15.2031 Q14.0938 -14.7031 14.5 -11.7031 Q14.5 -8.5938 11.7969 -7.0938 Q10.2031 -6.0938 8.2031 -6.4062 Q10.5 -1.0938 19.5938 -1.0938 Q29.9062 -1.0938 33.0938 -8.5938 Q33.9062 -10.5 33.9062 -12.0938 Q33.9062 -16.9062 28 -18.7031 L28 -18.7031 L27.9062 -18.7031 Q26.4062 -19.0938 23.5 -19.7031 Q14.5 -21.5938 13.4062 -27.7031 Q13.2031 -28.5938 13.2031 -29.5938 Q13.2031 -34.5938 17 -38.9062 Q21.7031 -44.2031 30.0938 -44.2031 Q38 -44.2031 41 -39.2969 Q42 -37.5938 42 -35.5938 Q42 -31.0938 38.5938 -30.2031 Q38 -30 37.4062 -30 Q34.5938 -30.4062 34.2969 -32.9062 Q34.2969 -35.5938 37 -36.9062 Q38 -37.4062 39.0938 -37.4062 Z" stroke="none" />
    </g>
    <g font-size="100" transform="matrix(20,0,0,20,0,0) translate(14.5561,1.8102) scale(0.01,0.01)" text-rendering="geometricPrecision" image-rendering="optimizeQuality" color-rendering="optimizeQuality" font-family="&apos;jlm_cmr10&apos;" color-interpolation="linearRGB">
      <path d="M33.0938 24 L33.0938 24 Q33.0938 25 32.0938 25 Q30.9062 25 26.7969 20.9062 Q20.5938 14.7031 16.5 6.2031 Q9.9062 -7.4062 9.9062 -25 Q9.9062 -41.9062 16.2031 -55.5 Q21.4062 -66.5938 29.4062 -73.2969 Q31.5 -75 32.0938 -75 Q33.0938 -75 33.0938 -74 Q33.0938 -73.5 31.7969 -72.2969 Q15.7031 -55.9062 15.7031 -25 Q15.7031 5.7969 31.4062 21.7969 Q33.0938 23.5 33.0938 24 Z" stroke="none" />
    </g>
    <g font-size="100" transform="matrix(20,0,0,20,0,0) translate(14.945,1.8102) scale(0.01,0.01)" text-rendering="geometricPrecision" image-rendering="optimizeQuality" color-rendering="optimizeQuality" font-family="&apos;jlm_cmmi10&apos;" color-interpolation="linearRGB">
      <path d="M45.5 -50 L45.5 -50 Q45.5 -34.7031 37.7031 -19 Q30.7031 -5 22.2031 -0.5 Q19.0938 1.0938 16.2031 1.0938 Q8 1.0938 5.2031 -10.0938 Q4.2031 -14.2969 4.2031 -19.4062 Q4.2031 -35.0938 12.2031 -50.9062 Q19.2031 -64.5938 27.7031 -69 Q30.7031 -70.5 33.5 -70.5 Q42.2031 -70.5 44.7031 -57.7969 Q45.5 -54 45.5 -50 ZM14.7969 -36.2969 L14.7969 -36.2969 L35.7031 -36.2969 Q38.9062 -49.5 38.9062 -56.2031 Q38.9062 -67.5 34.2031 -68.2031 Q33.7969 -68.2969 33.4062 -68.2969 Q28.2969 -68.2969 22.5 -57.7969 Q18.7031 -51.0938 14.9062 -36.7969 Q14.9062 -36.5 14.7969 -36.2969 ZM34.7969 -33.0938 L14 -33.0938 Q10.7969 -21 10.7969 -13.2969 Q10.7969 -1.2969 16.2031 -1.0938 Q21.7969 -1.0938 27.7969 -12.7969 Q31.7031 -20.2031 34.7969 -33.0938 Z" stroke="none" />
    </g>
    <g font-size="100" transform="matrix(20,0,0,20,0,0) translate(15.4145,1.8102) scale(0.01,0.01)" text-rendering="geometricPrecision" image-rendering="optimizeQuality" color-rendering="optimizeQuality" font-family="&apos;jlm_cmr10&apos;" color-interpolation="linearRGB">
      <path d="M28.9062 -25 L28.9062 -25 Q28.9062 -8.0938 22.5938 5.5 Q17.4062 16.5938 9.4062 23.2969 Q7.2969 25 6.7031 25 Q5.7031 25 5.7031 24 Q5.7031 23.5 7 22.2969 Q23.0938 5.9062 23.0938 -25 Q23.0938 -55.5 8.0938 -71.2031 L7.5938 -71.7031 Q5.7031 -73.5 5.7031 -74 Q5.7031 -75 6.7031 -75 Q7.9062 -75 12 -70.9062 Q18.2031 -64.7031 22.2969 -56.2031 Q28.9062 -42.5938 28.9062 -25 Z" stroke="none" />
    </g>
  </g>
</svg>
